{"glyphs":{"0":{"ha":779,"x_min":31,"x_max":747,"o":"m 747 435 q 654 124 747 244 q 368 -11 551 -11 q 115 146 214 -11 q 31 446 31 282 q 115 778 31 624 q 378 963 215 963 q 650 772 538 963 q 747 435 747 607 m 469 549 q 453 697 469 624 q 378 804 426 804 q 319 749 339 804 q 306 661 306 710 q 322 529 306 590 q 399 442 347 442 q 469 549 469 442 z "},"1":{"ha":779,"x_min":58,"x_max":722,"o":"m 714 126 q 442 -17 722 -17 q 316 -11 392 -17 q 226 -6 240 -6 q 110 38 163 -6 q 65 140 58 81 q 110 206 71 179 q 169 239 140 222 q 247 438 208 268 q 282 663 282 586 q 268 746 282 738 q 183 769 225 758 q 158 819 147 783 q 317 947 188 903 q 522 981 414 981 q 594 956 561 981 q 626 896 628 932 q 607 850 625 858 q 572 828 579 839 q 554 704 554 797 q 597 271 554 418 q 665 200 613 219 q 714 126 710 182 z "},"2":{"ha":779,"x_min":35,"x_max":744,"o":"m 157 821 q 247 939 157 894 q 404 976 321 976 q 586 936 507 976 q 686 793 686 886 q 631 661 686 726 q 521 560 611 639 q 446 467 457 504 q 506 428 457 433 q 581 428 507 428 q 725 414 715 428 q 744 356 744 406 q 742 312 744 339 q 739 279 739 285 q 721 96 739 178 q 625 -35 692 -35 q 560 1 586 -35 q 321 -19 349 -19 q 121 14 182 -19 q 35 182 35 58 q 100 307 35 215 q 188 425 143 367 q 299 572 243 499 q 369 736 369 674 q 357 782 369 757 q 325 807 344 807 q 288 783 310 807 q 261 758 265 760 q 235 756 247 756 q 190 770 214 756 q 160 804 165 785 q 157 821 157 811 z "},"3":{"ha":779,"x_min":25,"x_max":750,"o":"m 318 331 q 347 425 347 385 q 324 489 347 461 q 243 532 311 501 q 186 597 192 556 q 279 663 201 639 q 350 740 349 683 q 260 822 351 822 q 182 792 215 822 q 132 763 149 763 q 87 778 110 763 q 64 813 64 793 q 167 944 64 893 q 372 988 257 988 q 622 800 617 988 q 597 717 624 753 q 543 644 581 693 q 615 600 579 622 q 706 506 674 561 q 750 308 750 428 q 329 -49 750 -58 q 115 8 201 -44 q 29 150 25 65 q 89 239 33 225 q 206 249 147 243 q 318 331 281 261 z "},"4":{"ha":779,"x_min":26,"x_max":753,"o":"m 396 831 q 272 712 358 831 q 185 557 185 593 q 289 532 185 531 l 326 532 q 394 596 367 533 q 428 696 396 597 q 431 725 431 704 q 396 831 431 831 m 199 138 q 257 219 199 164 q 315 311 315 275 q 240 379 315 367 q 101 401 171 390 q 26 511 26 426 q 196 805 26 626 q 482 983 365 983 q 660 692 660 983 q 658 614 660 663 q 656 547 656 565 q 658 385 656 415 q 694 233 665 274 q 731 194 713 214 q 753 147 753 169 q 689 6 753 39 q 529 -14 649 -14 q 475 -15 513 -14 q 418 -17 438 -17 q 267 10 317 -17 q 199 138 199 46 z "},"5":{"ha":779,"x_min":24,"x_max":757,"o":"m 76 636 q 97 800 76 717 q 146 921 118 883 q 299 975 185 975 q 372 973 319 975 q 457 971 425 971 q 516 973 469 971 q 592 975 563 975 q 754 917 751 975 q 722 826 757 865 q 635 786 688 786 q 539 800 593 786 q 413 822 479 817 q 349 788 379 824 q 319 718 319 753 q 429 646 319 669 q 633 585 585 614 q 743 376 743 522 q 628 90 743 203 q 340 -24 514 -24 q 149 18 243 -24 q 29 153 29 68 q 26 197 29 160 q 24 258 24 233 q 72 378 24 378 q 149 358 92 378 q 224 339 206 339 q 292 372 258 339 q 325 439 325 406 q 260 528 325 514 q 140 542 200 535 q 76 636 76 557 z "},"6":{"ha":779,"x_min":33,"x_max":746,"o":"m 357 679 q 364 663 357 672 q 378 654 371 654 q 426 665 393 654 q 478 675 460 675 q 679 575 607 675 q 746 354 746 488 q 649 86 746 193 q 392 -26 549 -26 q 119 122 218 -26 q 33 433 33 250 q 131 782 33 596 q 394 999 244 996 q 568 869 568 1001 q 494 756 568 767 q 442 769 467 750 q 418 807 417 788 q 357 679 357 771 m 503 371 q 467 464 503 415 q 388 513 431 513 q 333 440 333 513 q 369 363 333 400 q 444 325 406 325 q 503 371 503 325 z "},"7":{"ha":779,"x_min":74,"x_max":706,"o":"m 625 162 q 626 157 625 162 q 626 147 626 153 q 625 103 629 124 q 554 1 617 21 q 332 -14 508 -14 q 125 17 176 -14 q 74 138 74 49 q 99 183 74 158 q 136 224 131 214 q 261 426 199 325 q 425 731 381 619 l 349 731 q 253 715 310 731 q 185 699 196 699 q 93 778 117 699 q 79 921 79 825 q 168 985 79 985 q 271 972 199 985 q 403 963 331 963 q 506 965 436 963 q 611 968 575 968 q 671 956 643 968 q 706 911 706 939 q 675 815 706 903 q 619 628 639 710 q 589 396 589 500 q 603 276 589 343 q 625 162 624 171 z "},"8":{"ha":779,"x_min":24,"x_max":753,"o":"m 579 575 q 697 459 642 554 q 753 293 753 364 q 646 57 753 144 q 396 -26 546 -26 q 146 40 249 -26 q 24 257 24 117 q 79 450 24 351 q 225 576 142 560 q 126 813 119 640 q 206 944 129 893 q 374 993 276 993 q 560 942 481 993 q 650 782 650 883 q 632 663 650 721 q 579 575 611 600 m 368 879 q 325 863 343 879 q 307 822 307 847 q 349 742 307 789 q 429 694 392 694 q 457 740 453 694 q 457 806 457 738 q 429 858 457 838 q 368 879 401 879 m 467 379 q 406 472 467 418 q 307 526 346 526 q 274 426 274 526 q 310 352 274 382 q 392 322 346 322 q 467 379 467 322 z "},"9":{"ha":779,"x_min":47,"x_max":732,"o":"m 363 500 q 258 476 325 476 q 210 483 226 476 q 60 731 60 549 q 149 910 60 835 q 346 985 238 985 q 613 861 494 985 q 732 575 732 738 q 554 67 732 272 q 453 -1 521 28 q 333 -29 385 -29 q 178 -8 249 -29 q 58 74 85 19 q 47 132 47 96 q 81 226 47 193 q 149 251 103 247 q 221 271 200 257 q 363 432 331 347 q 363 500 371 456 m 414 669 q 393 761 414 722 q 317 810 367 810 q 269 786 289 810 q 250 735 250 763 q 293 654 250 694 q 376 614 336 614 q 414 669 414 614 z "}," ":{"ha":425,"x_min":0,"x_max":0,"o":""},"!":{"ha":483,"x_min":53,"x_max":486,"o":"m 486 894 q 439 768 486 836 q 385 611 399 708 q 358 471 367 493 q 322 440 351 454 q 275 426 293 426 q 192 431 206 426 q 139 514 140 447 q 139 629 139 497 q 96 761 139 683 q 56 896 53 839 q 132 1014 58 965 q 269 1058 197 1058 q 408 1014 340 1058 q 486 894 486 963 m 442 114 q 388 -12 442 31 q 256 -53 339 -53 q 139 -9 182 -53 q 96 108 96 35 q 144 254 96 181 q 268 335 200 335 q 393 258 340 335 q 442 114 442 189 z "},"\"":{"ha":715,"x_min":36,"x_max":693,"o":"m 693 861 q 639 663 693 774 q 497 535 576 535 q 481 538 497 535 q 453 614 453 568 q 457 646 453 625 q 461 678 461 667 q 428 770 461 724 q 394 854 394 817 q 436 990 394 925 q 551 1064 483 1064 q 664 996 626 1064 q 693 861 693 942 m 335 853 q 281 654 335 765 q 139 526 218 526 q 122 529 139 526 q 94 606 94 560 q 99 638 94 617 q 103 669 103 658 q 69 762 103 715 q 36 846 36 808 q 78 982 36 917 q 193 1056 125 1056 q 306 988 268 1056 q 335 853 335 933 z "},"#":{"ha":808,"x_min":19,"x_max":842,"o":"m 842 700 q 804 589 807 658 l 656 583 q 636 486 633 522 l 638 469 l 657 471 q 722 463 678 472 q 788 454 765 453 q 729 307 765 385 q 653 314 656 314 q 589 299 653 314 l 547 81 q 482 75 485 75 q 426 81 469 75 q 369 81 393 85 q 404 199 386 139 q 422 317 425 271 l 421 326 l 319 326 q 276 200 294 307 q 232 75 258 93 l 107 75 q 103 106 103 106 l 150 296 q 144 326 150 296 l 26 326 l 24 368 q 60 469 19 421 l 185 469 q 221 561 221 511 l 218 596 l 179 594 q 86 610 125 592 q 132 740 96 688 l 176 738 q 274 753 238 735 q 300 894 288 824 q 381 992 326 992 q 481 971 399 992 l 422 753 q 506 739 458 736 l 535 740 q 578 862 560 760 q 621 983 596 964 l 746 983 q 750 949 750 949 l 700 753 q 738 739 714 740 q 779 739 758 739 q 842 700 822 736 m 507 583 q 486 590 507 586 q 415 596 446 596 l 383 571 q 360 533 372 569 q 347 482 347 496 q 369 476 347 479 q 439 469 410 469 l 472 494 q 494 532 482 496 q 507 583 507 568 z "},"$":{"ha":738,"x_min":3,"x_max":726,"o":"m 61 761 q 232 986 61 926 q 276 1031 269 999 q 292 1099 288 1090 q 331 1103 329 1103 q 385 1096 372 1103 q 394 1028 394 1081 q 621 808 621 1004 q 590 729 621 757 q 547 714 547 714 q 454 785 500 714 q 365 857 408 857 q 323 837 344 857 q 301 796 301 817 q 411 689 301 746 q 617 567 568 608 q 726 321 726 469 q 642 133 726 203 q 435 43 576 81 q 381 -14 385 28 q 363 -78 376 -65 l 313 -81 q 282 -76 313 -81 q 272 -22 279 -69 q 260 22 267 18 q 136 74 197 47 q 40 150 69 101 q 4 344 3 214 q 15 386 6 365 q 46 410 28 413 q 121 363 82 403 q 182 325 156 325 q 282 438 282 325 q 225 500 282 451 q 118 606 151 563 q 61 761 61 681 z "},"%":{"ha":1050,"x_min":21,"x_max":1051,"o":"m 778 1026 q 642 722 778 989 q 429 221 565 536 q 368 61 390 133 q 349 0 351 4 q 325 -17 336 -17 q 233 -6 300 -17 q 128 28 147 10 q 118 50 118 38 q 211 182 118 64 q 393 443 328 329 q 533 757 424 497 q 649 1029 592 893 q 700 1088 675 1088 q 771 1044 729 1088 q 778 1026 778 1038 m 426 706 q 365 515 426 589 q 219 440 304 440 q 78 511 136 440 q 21 697 21 582 q 85 892 21 818 q 233 963 144 963 q 369 889 313 963 q 426 706 426 815 m 267 649 q 251 768 267 713 q 210 833 235 833 q 178 761 178 833 q 192 646 178 704 q 236 576 210 576 q 267 649 267 576 m 1051 272 q 969 81 1051 156 q 775 7 888 7 q 586 78 663 7 q 510 264 510 149 q 596 458 510 383 q 794 531 676 531 q 975 456 899 531 q 1051 272 1051 382 m 838 217 q 818 336 838 279 q 763 400 796 400 q 719 329 719 400 q 739 214 719 272 q 797 144 763 144 q 838 217 838 144 z "},"&":{"ha":913,"x_min":26,"x_max":892,"o":"m 883 731 q 844 639 879 669 q 749 575 796 607 q 857 482 818 564 q 892 299 892 407 q 754 65 892 163 q 488 -22 629 -22 q 168 56 286 -22 q 26 338 26 147 q 71 522 26 443 q 213 643 119 607 q 163 818 163 739 q 249 985 163 922 q 435 1040 326 1040 q 550 1001 499 1040 q 608 899 608 960 q 554 850 608 850 q 522 881 546 850 q 461 911 497 911 q 431 907 447 911 q 376 882 392 899 q 356 826 360 865 q 379 710 350 761 q 436 638 390 690 q 464 575 467 601 q 429 491 460 519 q 394 429 399 463 q 424 323 389 364 q 518 282 460 282 q 617 327 574 282 q 661 429 661 372 q 607 492 661 492 q 557 465 567 492 q 542 438 547 438 q 507 471 519 438 q 499 524 496 500 q 571 629 504 603 q 689 653 572 629 q 750 710 750 665 q 736 754 750 736 q 689 769 718 775 q 665 754 676 767 q 654 742 654 742 q 628 779 626 757 q 666 845 631 813 q 750 878 701 878 q 800 868 775 878 q 883 731 890 835 z "},"'":{"ha":353,"x_min":36,"x_max":335,"o":"m 335 853 q 281 668 335 768 q 139 554 218 554 q 122 557 139 554 q 94 633 94 588 q 99 665 94 644 q 103 697 103 686 q 69 776 103 743 q 36 846 36 808 q 78 982 36 917 q 193 1056 125 1056 q 306 988 268 1056 q 335 853 335 933 z "},"(":{"ha":513,"x_min":14,"x_max":528,"o":"m 396 1053 q 461 1031 450 1053 q 469 944 469 1015 q 426 879 469 911 q 353 838 411 868 q 246 668 267 793 q 239 450 239 625 q 264 306 239 390 q 322 169 289 226 q 449 46 354 113 q 528 -31 528 -11 q 485 -112 528 -85 q 388 -140 443 -140 q 101 86 210 -140 q 14 468 14 269 q 103 843 14 672 q 396 1053 211 1053 z "},")":{"ha":560,"x_min":18,"x_max":536,"o":"m 169 1053 q 454 838 351 1053 q 536 463 536 667 q 446 82 536 263 q 154 -140 336 -140 q 65 -117 107 -140 q 18 -44 18 -89 q 65 29 18 0 q 160 85 113 58 q 239 176 218 122 q 313 469 313 374 q 311 631 313 621 q 269 779 306 725 q 157 871 250 810 q 79 951 79 922 q 169 1053 79 1053 z "},"*":{"ha":633,"x_min":60,"x_max":631,"o":"m 631 769 q 575 704 631 717 q 479 700 558 700 q 449 683 457 700 q 517 624 454 675 q 560 549 560 589 q 522 488 560 519 q 453 456 483 456 q 393 497 417 456 q 365 572 383 514 q 340 613 353 613 q 313 574 328 613 q 279 501 292 521 q 215 463 253 463 q 149 494 183 463 q 115 557 115 526 q 174 642 115 603 q 233 692 233 682 q 219 707 233 704 q 182 708 204 710 q 156 706 151 706 q 92 725 119 706 q 60 782 60 747 q 82 852 60 815 q 136 889 104 889 q 207 861 168 889 q 271 818 258 824 q 285 843 285 831 q 271 893 285 858 q 257 946 257 928 q 339 1018 257 1018 q 432 947 432 1018 q 416 887 432 926 q 400 828 400 847 l 417 813 q 476 853 429 818 q 553 879 511 879 q 610 840 585 879 q 631 769 631 806 z "},"+":{"ha":807,"x_min":67,"x_max":811,"o":"m 808 444 q 701 404 808 404 l 615 404 q 556 401 569 404 q 525 368 525 394 l 525 160 q 438 115 525 115 q 350 160 350 115 l 350 368 q 319 401 350 394 q 260 404 306 404 l 174 404 q 67 444 67 404 q 78 528 67 486 q 111 576 90 576 l 314 576 q 347 608 340 576 q 350 668 350 622 l 350 757 q 390 865 350 865 q 515 861 504 865 q 525 660 525 857 l 525 594 q 601 571 525 571 q 668 574 626 571 q 717 576 710 576 l 789 575 q 811 526 808 575 q 808 444 808 567 z "},",":{"ha":426,"x_min":47,"x_max":364,"o":"m 364 43 q 293 -147 364 -35 q 144 -269 217 -269 q 90 -225 90 -269 q 124 -160 90 -211 q 157 -72 157 -108 q 102 18 157 -42 q 47 111 47 78 q 90 225 47 175 q 196 275 132 275 q 326 199 282 275 q 364 43 364 136 z "},"-":{"ha":631,"x_min":36,"x_max":643,"o":"m 643 499 q 611 401 643 472 q 592 358 608 396 q 447 325 558 325 q 335 328 431 325 q 224 332 279 331 q 106 335 175 332 q 36 374 47 342 q 72 493 43 425 q 139 553 93 540 q 279 549 157 553 q 447 546 408 546 q 540 544 500 544 q 590 547 568 546 q 613 547 611 547 q 643 499 643 533 z "},"‐":{"ha":631,"x_min":36,"x_max":643,"o":"m 643 499 q 611 401 643 472 q 592 358 608 396 q 447 325 558 325 q 335 328 431 325 q 224 332 279 331 q 106 335 175 332 q 36 374 47 342 q 72 493 43 425 q 139 553 93 540 q 279 549 157 553 q 447 546 408 546 q 540 544 500 544 q 590 547 568 546 q 613 547 611 547 q 643 499 643 533 z "},".":{"ha":431,"x_min":35,"x_max":381,"o":"m 381 142 q 326 15 381 58 q 193 -25 278 -25 q 78 19 121 -25 q 35 136 35 63 q 83 282 35 208 q 207 363 139 363 q 332 286 279 363 q 381 142 381 217 z "},"/":{"ha":571,"x_min":0,"x_max":613,"o":"m 613 1065 q 583 1013 613 1060 q 536 908 551 958 l 267 10 q 111 -69 243 -69 q 0 -35 0 -69 q 22 17 0 -25 q 75 115 61 88 l 418 1021 q 460 1085 438 1071 q 539 1100 483 1100 q 613 1065 613 1100 z "},":":{"ha":425,"x_min":35,"x_max":381,"o":"m 381 642 q 327 520 381 564 q 194 476 274 476 q 79 522 124 476 q 35 639 35 567 q 88 756 35 704 q 214 808 142 808 q 335 760 289 808 q 381 642 381 711 m 381 142 q 329 17 381 58 q 194 -25 278 -25 q 78 19 121 -25 q 35 136 35 63 q 83 282 35 208 q 207 363 139 363 q 332 286 279 363 q 381 142 381 217 z "},";":{"ha":404,"x_min":35,"x_max":381,"o":"m 364 43 q 304 -154 364 -54 q 144 -269 238 -269 q 90 -225 90 -269 q 124 -160 90 -211 q 157 -72 157 -108 q 128 -31 157 -53 q 75 17 88 1 q 47 111 47 54 q 90 225 47 175 q 196 275 132 275 q 326 199 282 275 q 364 43 364 136 m 381 642 q 327 520 381 564 q 194 476 274 476 q 79 522 124 476 q 35 639 35 568 q 90 758 35 707 q 214 808 144 808 q 333 761 286 808 q 381 642 381 714 z "},"<":{"ha":796,"x_min":36,"x_max":771,"o":"m 771 146 q 751 133 771 139 q 719 128 731 128 q 667 146 710 128 l 86 392 q 56 416 76 396 q 36 444 36 436 q 38 514 36 479 q 47 576 40 574 l 699 853 q 757 874 747 874 q 771 738 771 874 l 749 707 q 675 654 749 686 l 292 492 l 694 322 q 771 269 771 289 l 771 146 z "},"=":{"ha":838,"x_min":75,"x_max":817,"o":"m 817 599 q 694 558 817 558 l 196 558 q 75 599 75 558 q 85 681 75 640 q 119 731 99 731 l 772 731 q 806 681 793 731 q 817 599 817 640 m 817 303 q 694 263 817 263 l 196 263 q 75 303 75 263 q 85 385 75 344 q 119 435 99 435 l 772 435 q 806 385 793 435 q 817 303 817 344 z "},">":{"ha":808,"x_min":88,"x_max":822,"o":"m 822 444 q 800 415 822 436 q 768 390 778 394 l 157 132 q 101 111 111 111 q 88 247 88 111 l 110 278 q 182 331 110 299 l 567 492 l 164 661 q 88 715 88 696 l 88 774 q 101 874 88 874 q 160 853 111 874 l 811 576 q 821 514 818 574 q 822 444 822 479 z "},"?":{"ha":699,"x_min":28,"x_max":743,"o":"m 521 140 q 469 17 521 58 q 335 -25 418 -25 q 218 19 261 -25 q 175 136 175 63 q 224 282 175 208 q 347 361 279 361 q 472 286 419 361 q 521 140 521 217 m 626 688 q 554 643 590 665 q 492 588 510 615 q 474 532 478 569 q 460 479 469 494 q 333 439 432 439 q 211 582 211 439 q 278 726 211 628 q 354 844 351 832 q 356 858 356 851 q 307 911 356 907 q 231 863 249 915 q 213 763 222 813 q 149 707 199 707 q 65 735 101 707 q 28 803 28 763 q 31 825 28 814 q 374 1054 99 1054 q 721 843 743 1054 q 626 688 710 743 z "},"@":{"ha":935,"x_min":28,"x_max":926,"o":"m 511 672 q 485 718 511 718 q 418 649 449 718 q 392 544 392 588 q 424 483 392 483 q 485 563 456 483 q 511 672 511 631 m 603 406 q 615 381 603 406 q 708 492 671 406 q 740 635 740 565 q 670 821 740 757 q 476 885 600 885 q 251 742 342 885 q 169 475 169 617 q 449 215 169 215 q 613 267 511 215 q 764 365 697 311 q 831 393 799 393 q 899 353 872 393 q 926 258 926 313 q 879 142 926 188 q 700 35 811 76 q 428 -14 571 -14 q 139 142 260 -14 q 28 454 28 286 q 156 815 28 653 q 493 990 294 990 q 733 902 638 990 q 829 674 829 814 q 756 421 829 542 q 540 281 669 281 q 464 368 486 281 q 342 279 403 279 q 250 333 283 279 q 224 443 224 379 q 281 665 224 556 q 451 797 350 797 q 542 732 514 797 q 565 796 546 753 q 600 811 575 811 q 646 798 625 811 q 663 767 667 785 q 625 588 644 676 q 603 406 603 479 z "},"A":{"ha":1100,"x_min":11,"x_max":1078,"o":"m 1075 128 q 958 14 1069 47 q 782 -10 886 -10 q 632 8 678 -10 q 556 122 556 38 q 565 194 556 154 q 628 386 628 257 q 567 454 628 431 q 467 472 521 472 q 428 465 467 472 q 376 349 376 435 q 403 240 376 286 q 454 181 414 224 q 481 126 481 151 q 381 3 481 31 q 204 -11 332 -11 q 13 85 13 -11 q 86 222 11 169 q 240 490 174 285 q 297 803 297 669 q 279 889 297 854 q 247 929 269 908 q 229 954 229 946 q 378 1033 229 1000 q 563 1056 504 1061 q 713 996 661 1046 q 782 888 736 972 q 817 779 796 860 q 979 296 897 458 q 1021 248 990 272 q 1061 208 1051 224 q 1075 128 1078 179 m 583 661 q 558 735 583 672 q 496 792 535 792 q 446 732 472 792 q 424 653 424 681 q 460 640 424 640 q 488 642 468 640 q 515 644 507 644 q 550 640 543 644 q 583 661 583 643 z "},"B":{"ha":921,"x_min":13,"x_max":908,"o":"m 419 856 q 426 776 419 817 q 454 719 436 719 q 526 824 526 719 q 506 883 526 856 q 456 910 486 910 q 419 856 419 910 m 488 578 q 447 549 449 578 l 442 444 q 490 350 435 350 q 576 460 576 350 q 488 578 576 578 m 79 956 q 354 1050 83 1050 q 428 1049 385 1050 q 482 1047 472 1047 q 669 1006 593 1047 q 767 851 767 953 q 740 755 767 796 q 683 674 713 714 q 828 571 767 646 q 908 335 908 474 q 447 -7 908 -7 q 203 0 260 -7 q 14 101 22 22 q 13 126 13 115 q 53 208 13 172 q 111 313 99 249 q 154 506 132 410 q 179 703 178 622 q 147 858 179 804 l 142 861 q 93 903 122 878 q 79 956 78 919 z "},"C":{"ha":821,"x_min":18,"x_max":796,"o":"m 793 293 q 699 71 793 149 q 465 -3 611 -3 q 143 149 275 -3 q 18 489 18 293 q 142 863 18 690 q 472 1053 278 1053 q 599 1019 538 1053 q 675 985 661 985 q 697 996 683 985 q 719 1006 710 1007 q 790 918 776 1003 q 796 801 796 892 q 760 727 796 758 q 682 696 724 696 q 610 758 642 696 q 536 821 578 821 q 401 756 454 821 q 354 626 354 697 q 500 433 354 433 q 615 481 536 433 q 718 529 693 529 q 743 518 733 529 q 793 293 793 458 z "},"D":{"ha":926,"x_min":-4,"x_max":908,"o":"m 458 899 q 440 885 451 894 q 417 854 425 874 q 404 810 410 835 q 407 504 404 561 q 472 389 410 389 q 579 471 544 389 q 606 615 606 531 q 579 790 606 719 q 458 899 542 894 m 132 700 q 94 871 132 840 q 60 892 82 878 q 43 939 43 908 q 115 1024 43 996 q 263 1046 175 1047 q 339 1042 281 1046 q 746 910 610 1024 q 908 481 908 772 q 797 128 908 260 q 463 -14 678 -14 q 282 -15 178 -14 q 86 6 144 -14 q 21 31 33 22 q 0 78 -4 46 q 36 175 7 143 q 88 251 75 217 q 132 700 133 383 z "},"E":{"ha":839,"x_min":6,"x_max":814,"o":"m 128 779 q 94 871 119 851 q 60 892 82 878 q 43 939 43 908 q 115 1024 43 996 q 263 1046 175 1047 q 313 1043 279 1046 q 365 1040 347 1040 q 519 1047 413 1040 q 671 1054 626 1054 q 764 979 731 1054 q 789 853 789 921 q 772 781 789 810 q 711 744 750 744 q 647 779 674 744 q 588 844 608 831 q 436 881 536 881 q 406 881 407 881 q 386 847 392 875 q 383 828 383 838 q 429 753 383 782 q 525 728 469 728 q 552 743 536 728 q 579 758 568 758 q 600 728 600 758 q 588 635 600 679 q 535 572 569 572 q 492 607 513 572 q 433 642 472 642 q 389 568 389 642 q 590 394 389 394 q 617 399 599 394 q 644 400 635 403 q 661 399 654 399 q 719 432 696 399 q 756 465 742 465 q 792 438 776 465 q 807 386 807 410 q 810 315 807 372 q 814 219 814 257 q 744 0 814 50 q 568 -18 718 -18 q 454 -19 526 -18 q 338 -19 394 -21 l 76 -18 q 6 50 6 -17 q 26 97 6 76 q 65 140 61 132 l 92 182 q 115 340 111 214 l 126 699 q 128 779 129 744 z "},"F":{"ha":786,"x_min":14,"x_max":799,"o":"m 132 700 l 132 701 q 94 871 131 842 q 60 892 82 878 q 43 939 43 908 q 115 1024 43 996 q 263 1046 175 1047 q 283 1044 269 1046 q 303 1044 296 1044 q 399 1044 293 1044 q 542 1056 447 1044 q 681 1068 636 1068 q 772 993 739 1068 q 799 867 799 935 q 781 794 799 824 q 721 758 760 758 q 664 796 688 758 q 614 865 629 853 q 494 901 572 903 q 399 849 399 899 q 439 769 399 797 q 529 746 475 746 q 558 759 540 746 q 589 772 576 772 q 611 607 611 772 q 599 569 611 586 q 565 553 586 553 q 517 590 550 553 q 443 628 483 628 q 403 607 411 628 q 397 554 399 596 q 426 236 392 382 q 503 139 433 204 q 561 36 565 79 q 472 -10 557 -10 q 407 -6 450 -10 q 346 -3 364 -3 l 85 -6 q 14 64 14 -6 q 47 131 14 92 q 100 189 74 160 q 138 299 139 236 l 132 700 z "},"G":{"ha":931,"x_min":14,"x_max":925,"o":"m 633 538 q 606 571 633 550 q 578 613 578 592 q 733 671 578 671 q 758 673 732 671 q 807 675 785 675 q 924 629 921 675 q 904 572 925 599 q 871 528 875 535 q 860 435 851 481 q 890 207 890 269 q 882 171 890 179 q 825 144 863 151 q 781 132 788 138 q 629 21 661 38 q 433 -14 560 -14 q 122 160 243 -14 q 14 514 14 314 q 131 876 14 715 q 457 1056 260 1056 q 541 1042 486 1056 q 622 1028 596 1028 q 664 1040 636 1028 q 706 1053 692 1053 q 772 1001 750 1053 q 789 914 789 963 q 776 796 789 831 q 685 738 754 738 q 604 774 629 738 q 569 843 586 808 q 486 879 543 879 q 375 811 422 879 q 331 683 331 749 q 411 538 331 588 q 576 499 476 499 q 633 538 633 499 z "},"H":{"ha":1114,"x_min":-8,"x_max":1090,"o":"m 546 147 q 493 11 546 47 q 364 -17 454 -17 q 309 -15 347 -17 q 250 -14 271 -14 q 74 3 118 -14 q -8 138 -8 33 q 17 183 -8 158 q 54 224 50 214 q 115 506 92 293 q 140 701 136 701 l 142 754 q 121 858 143 828 q 78 888 115 865 q 54 939 54 901 q 132 1026 54 999 q 263 1046 186 1046 q 490 949 490 1046 q 453 883 490 919 q 415 807 415 847 q 456 738 415 753 q 542 731 475 731 q 619 735 606 731 q 660 792 660 746 q 622 878 660 857 q 583 939 583 900 q 660 1026 583 999 q 790 1046 715 1046 q 1018 949 1018 1046 q 996 903 1018 931 q 954 833 967 867 q 932 682 932 775 q 1013 232 932 496 q 1090 97 1090 149 q 814 -7 1090 -7 q 657 -1 683 -7 q 568 103 568 19 q 603 165 568 132 q 638 214 638 197 q 626 356 638 261 q 615 499 615 450 q 605 547 615 532 q 561 561 594 561 q 476 518 492 561 q 468 411 468 499 q 475 260 468 285 q 515 203 481 240 q 546 147 546 171 z "},"I":{"ha":593,"x_min":6,"x_max":560,"o":"m 153 701 q 115 871 151 842 q 81 892 103 878 q 64 939 64 908 q 136 1024 64 996 q 283 1046 196 1047 q 457 1017 407 1044 q 500 949 500 994 q 487 908 500 921 q 460 885 474 896 q 439 854 446 874 q 414 668 414 793 l 414 661 q 453 410 426 542 q 501 233 481 261 q 540 192 519 214 q 560 147 560 169 q 501 7 560 33 q 264 -14 457 -14 q 57 17 108 -14 q 6 138 6 49 q 32 183 6 158 q 68 224 64 214 q 115 425 88 263 q 153 701 140 571 z "},"J":{"ha":715,"x_min":14,"x_max":710,"o":"m 363 700 q 325 871 361 842 q 290 892 313 878 q 275 939 275 908 q 347 1024 275 996 q 494 1046 406 1047 q 668 1017 617 1044 q 710 949 710 994 q 697 908 710 921 q 670 885 683 896 q 649 854 657 874 q 624 668 624 793 q 624 671 624 669 q 639 483 626 617 q 650 297 650 364 q 567 63 650 147 q 335 -22 483 -22 q 103 49 186 -22 q 14 269 14 124 q 33 361 14 310 q 92 432 57 425 q 121 436 108 436 q 188 383 160 436 q 261 331 217 331 q 371 544 371 331 q 365 692 371 578 q 363 700 363 696 z "},"K":{"ha":1086,"x_min":-8,"x_max":1106,"o":"m 415 557 q 488 233 458 275 q 526 192 506 214 q 546 147 546 169 q 488 7 546 33 q 250 -14 443 -14 q 32 25 82 -14 q 8 53 11 26 q -8 138 -8 83 q 18 183 -8 158 q 54 224 50 214 q 139 701 136 388 q 101 871 138 842 q 67 892 89 878 q 51 939 51 908 q 124 1024 51 996 q 271 1046 182 1047 q 444 1017 393 1044 q 486 949 486 994 q 473 908 486 921 q 447 885 460 896 q 425 854 433 874 q 407 776 413 824 q 442 726 408 726 q 556 860 556 726 q 538 904 556 881 q 519 949 519 928 q 582 1022 519 1000 q 760 1044 636 1042 q 861 1036 836 1046 q 906 953 904 1018 q 849 893 906 908 q 763 879 806 886 q 682 814 721 867 q 628 631 626 739 q 786 364 629 518 q 986 203 886 267 q 1081 136 1008 189 q 1098 106 1090 129 q 1106 68 1106 82 q 1065 0 1106 18 q 979 -11 1039 -11 l 817 -11 q 729 13 764 -11 q 622 189 685 40 q 521 444 572 317 q 429 576 464 576 q 418 572 422 578 q 415 557 414 567 z "},"L":{"ha":790,"x_min":22,"x_max":782,"o":"m 603 -4 l 532 -7 q 365 -12 468 -15 q 197 -8 190 -8 q 22 122 22 -8 q 60 228 22 151 q 108 349 101 311 q 136 678 136 515 q 94 871 135 838 q 60 892 82 878 q 43 939 43 908 q 115 1024 43 996 q 263 1046 175 1047 q 436 1017 386 1044 q 479 949 479 994 q 466 908 479 921 q 439 885 453 896 q 418 854 425 874 q 393 686 393 794 q 396 518 393 535 q 488 328 426 328 q 565 353 528 328 q 640 397 621 389 q 696 413 678 413 q 732 400 714 413 q 771 367 765 376 q 782 274 782 344 q 729 29 782 97 q 651 -6 701 -6 q 625 -4 643 -6 q 603 -4 610 -3 z "},"M":{"ha":1260,"x_min":6,"x_max":1224,"o":"m 85 892 q 68 939 68 939 q 146 1026 68 999 q 276 1046 200 1046 q 447 1029 407 1046 q 496 965 483 1015 q 536 832 525 857 q 571 735 553 783 q 626 664 600 664 q 681 785 664 664 q 700 939 690 861 q 786 1032 721 1010 q 919 1046 824 1044 q 1136 949 1136 1046 q 1097 879 1136 924 q 1057 783 1057 835 q 1088 489 1057 671 q 1144 197 1117 343 q 1186 141 1149 171 q 1224 81 1224 111 q 1117 -3 1224 17 q 964 -12 1069 -12 q 813 -3 860 -12 q 708 79 708 17 q 722 113 708 99 q 747 140 735 126 q 769 233 760 153 q 778 340 778 304 q 778 417 778 413 q 738 465 771 465 q 708 417 721 464 q 682 328 685 336 q 629 279 661 279 q 572 326 593 279 q 546 415 565 340 q 517 463 532 463 q 479 294 482 463 q 501 233 492 247 q 540 192 519 214 q 560 147 560 169 q 546 53 560 85 q 461 -6 535 8 q 391 -12 433 -11 q 264 -14 349 -14 q 57 17 108 -14 q 6 138 6 49 q 32 183 6 158 q 68 224 64 214 q 128 479 94 276 q 158 753 158 671 q 85 892 158 850 z "},"N":{"ha":1049,"x_min":6,"x_max":1033,"o":"m 438 471 q 463 344 438 436 q 503 232 489 251 q 535 193 518 213 q 560 147 556 169 q 564 97 564 119 q 519 11 564 36 q 390 -12 483 -8 q 203 -18 347 -18 q 89 4 147 -18 q 21 56 38 22 q 6 111 6 79 q 6 123 6 117 q 6 138 6 129 q 24 175 6 156 q 56 207 39 190 q 115 501 97 365 q 136 701 131 611 q 99 871 144 833 q 64 892 86 878 q 47 939 47 908 q 119 1024 47 996 q 267 1046 178 1047 q 461 1003 418 1043 q 579 797 526 960 q 693 568 638 622 q 724 561 707 556 q 740 622 740 582 q 736 669 740 638 q 736 676 736 672 l 735 679 q 725 750 731 713 q 649 871 701 828 q 614 892 636 878 q 599 939 599 908 q 671 1024 599 996 q 818 1046 729 1047 q 992 1017 940 1044 q 1033 949 1033 994 q 1021 908 1033 921 q 994 885 1008 896 q 972 854 981 874 q 939 794 956 825 q 914 679 914 743 q 914 661 914 682 q 957 431 917 585 q 994 201 994 283 q 976 51 994 93 q 856 -14 947 -14 q 672 118 754 -14 q 558 363 651 153 q 453 494 500 494 q 438 471 438 494 z "},"O":{"ha":918,"x_min":33,"x_max":890,"o":"m 890 374 q 758 81 890 199 q 457 -31 633 -31 q 140 125 260 -31 q 33 471 33 267 q 142 864 33 696 q 479 1058 267 1058 q 797 822 685 1058 q 890 374 890 629 m 586 556 q 546 758 586 647 q 422 897 496 897 q 356 833 379 897 q 338 729 338 785 q 368 553 338 635 q 490 443 410 443 q 586 556 586 443 z "},"P":{"ha":814,"x_min":14,"x_max":817,"o":"m 439 907 q 404 860 404 907 q 407 731 404 761 q 409 697 408 714 q 426 672 410 681 q 442 669 429 671 q 514 711 488 669 q 538 796 538 749 q 439 907 538 907 m 447 486 q 510 233 483 269 q 547 192 528 214 q 567 147 567 169 q 539 29 567 61 q 432 -10 511 -3 q 325 -21 392 -21 q 174 -10 258 -21 q 47 32 79 0 q 14 138 14 64 q 39 183 14 158 q 76 224 71 214 q 157 667 117 304 l 157 758 q 122 871 158 842 q 88 892 110 878 q 71 939 71 908 q 143 1024 71 996 q 290 1046 203 1047 q 310 1044 315 1044 q 342 1046 321 1046 q 411 1053 350 1047 q 496 1054 453 1056 q 817 778 817 1042 q 742 571 817 629 q 585 522 694 533 q 447 486 475 510 z "},"Q":{"ha":919,"x_min":15,"x_max":919,"o":"m 692 -212 q 550 -167 615 -212 q 449 -78 547 -164 q 340 -21 392 -28 q 268 -19 311 -17 q 196 -24 210 -24 q 72 22 125 -24 q 15 140 15 71 q 54 182 15 182 q 94 170 69 182 q 129 158 118 158 q 135 169 135 158 q 104 233 135 185 q 50 339 67 294 q 21 497 21 414 q 133 868 21 694 q 450 1063 263 1063 q 754 886 638 1063 q 857 532 857 731 q 679 132 857 285 q 638 108 658 119 q 610 74 610 92 q 710 8 642 8 q 805 20 742 8 q 896 32 868 32 q 919 -3 919 32 q 853 -155 919 -97 q 692 -212 788 -212 m 421 888 q 343 833 371 888 q 321 733 321 789 q 351 549 321 624 q 496 442 396 442 q 576 542 576 440 q 544 749 576 649 q 421 888 501 888 z "},"R":{"ha":1033,"x_min":-31,"x_max":1022,"o":"m 414 903 q 381 890 396 903 q 369 858 367 876 l 381 715 q 406 679 383 679 q 472 719 447 679 q 494 800 494 756 q 414 903 494 903 m 410 472 q 469 233 439 275 q 507 192 488 214 q 526 147 526 169 q 469 7 526 33 q 232 -14 425 -14 q 22 16 74 -14 q -26 138 -31 46 q 0 183 -25 158 q 36 224 31 214 q 83 425 56 263 q 121 701 108 571 q 83 871 117 843 q 49 892 71 878 q 32 939 32 908 q 104 1024 32 996 q 251 1046 163 1047 q 310 1043 283 1044 q 465 1049 433 1049 q 668 1003 581 1049 q 776 842 776 947 q 635 632 776 710 q 694 568 649 589 q 764 538 763 538 q 849 439 821 490 q 890 315 874 393 q 961 119 914 200 q 997 79 964 114 q 1022 35 1022 53 q 999 7 1022 21 q 965 -14 982 -3 q 883 -25 940 -15 q 803 -33 836 -33 q 604 81 658 -33 q 554 315 578 136 q 483 510 533 465 q 443 518 467 524 q 410 472 404 508 z "},"S":{"ha":799,"x_min":3,"x_max":783,"o":"m 232 367 q 328 458 328 367 q 264 543 328 489 q 149 649 168 626 q 85 790 85 719 q 186 990 85 917 q 407 1056 276 1056 q 527 1040 449 1056 q 649 1025 606 1025 q 724 853 724 1025 q 646 754 724 754 q 542 833 592 754 q 447 913 493 913 q 346 839 346 913 q 460 742 346 796 q 669 621 614 669 q 783 368 783 522 q 674 92 783 200 q 399 -17 565 -17 q 121 67 228 -17 q 3 324 3 157 q 89 407 3 407 q 147 387 117 407 q 232 367 176 367 z "},"T":{"ha":735,"x_min":14,"x_max":754,"o":"m 532 629 q 569 390 546 507 q 613 233 594 258 q 651 192 631 214 q 671 147 671 169 q 613 7 671 33 q 375 -14 568 -14 q 169 17 221 -14 q 117 138 117 49 q 143 183 117 158 q 179 224 175 214 q 228 425 200 264 q 265 701 256 579 q 271 851 268 733 q 250 860 250 860 q 218 826 232 860 q 183 764 199 779 q 90 731 151 731 q 24 764 39 731 q 14 844 14 785 q 51 975 14 907 q 147 1054 93 1054 q 206 1044 167 1054 q 264 1033 244 1033 q 576 1040 497 1033 q 596 1049 583 1042 q 618 1056 608 1056 q 718 979 676 1056 q 754 849 754 914 q 665 731 754 731 q 583 797 615 731 q 519 863 551 863 q 506 857 519 863 q 525 681 510 811 l 532 629 z "},"U":{"ha":964,"x_min":1,"x_max":985,"o":"m 899 651 q 901 510 899 604 q 903 369 903 417 q 785 113 903 235 q 531 -8 667 -8 q 185 85 285 -8 q 81 419 81 181 q 85 557 81 465 q 90 694 90 649 q 68 843 90 796 q 25 890 57 865 q 1 939 1 908 q 81 1026 1 999 q 210 1046 135 1046 q 438 949 438 1046 q 414 897 438 918 q 375 854 382 869 q 351 668 351 799 l 350 671 q 375 499 351 543 q 529 435 411 435 q 665 476 629 435 q 700 621 700 518 q 692 786 700 726 q 643 882 682 858 q 608 939 608 901 q 828 1046 608 1046 q 928 1028 885 1046 q 985 953 985 1003 q 961 901 985 922 q 924 860 931 875 q 899 651 899 799 z "},"V":{"ha":969,"x_min":15,"x_max":963,"o":"m 118 779 q 67 871 93 850 q 32 892 54 878 q 15 939 15 908 q 88 1024 15 996 q 235 1046 147 1047 q 408 1017 358 1044 q 451 949 451 994 q 449 926 451 935 q 428 888 447 917 q 413 811 410 858 q 450 668 415 758 q 525 553 489 569 q 613 675 574 567 q 646 835 646 768 q 615 883 646 867 q 583 939 583 900 q 790 1049 583 1049 q 899 1029 851 1049 q 963 949 961 1003 q 925 879 963 910 q 871 826 878 842 q 729 397 821 724 q 601 39 647 103 q 535 -3 583 14 q 469 -15 497 -15 q 315 135 385 -15 q 218 438 269 235 q 153 676 164 649 l 118 779 z "},"W":{"ha":1215,"x_min":1,"x_max":1272,"o":"m 1103 336 q 1122 233 1103 261 q 1160 192 1140 214 q 1179 147 1179 169 q 1147 24 1179 54 q 1018 -12 1115 -7 q 960 -18 996 -18 q 778 -11 815 -18 q 714 22 731 -3 q 678 143 678 61 q 708 197 678 175 q 751 229 729 213 q 754 243 754 233 q 742 315 754 263 q 719 414 724 397 q 704 494 706 490 q 658 550 688 551 q 590 410 624 550 q 558 260 558 279 q 564 233 558 242 q 601 192 582 214 q 621 147 621 169 q 575 13 621 42 q 388 -14 535 -12 q 289 -17 364 -17 q 203 -7 231 -17 q 96 38 125 3 q 68 138 68 68 q 94 183 68 158 q 131 224 125 214 q 153 308 146 253 l 153 317 q 131 647 154 496 q 57 867 104 819 q 20 891 39 879 q 1 939 1 903 q 81 1026 1 999 q 211 1046 135 1046 q 438 949 438 1046 q 419 901 438 917 q 385 871 388 876 q 381 849 381 860 q 403 774 381 833 q 471 657 446 657 q 532 697 500 657 q 565 767 564 736 q 546 857 568 821 q 501 903 536 871 q 475 949 476 926 q 663 1050 471 1050 q 774 1039 739 1050 q 835 961 835 1019 q 806 909 835 936 q 776 868 776 882 q 795 797 776 843 q 831 732 814 751 q 855 703 842 717 q 885 689 868 689 q 931 758 892 689 q 969 843 969 828 q 935 883 969 868 q 900 939 900 897 q 968 1024 900 994 q 1082 1046 1018 1046 q 1272 949 1272 1046 q 1261 911 1272 921 q 1228 893 1244 903 q 1172 811 1197 876 q 1147 711 1153 760 l 1103 336 z "},"X":{"ha":1132,"x_min":6,"x_max":1119,"o":"m 879 372 q 1054 233 938 292 q 1099 187 1078 221 q 1118 126 1119 153 q 1068 10 1113 35 q 893 -14 1029 -11 q 860 -14 888 -14 q 821 -15 838 -15 q 799 -14 813 -15 q 776 -14 782 -14 q 603 22 647 -10 q 558 138 558 54 q 575 172 558 156 q 607 206 592 189 q 565 317 590 243 l 533 394 q 428 204 415 211 q 468 104 468 178 q 386 1 468 25 q 238 -11 343 -11 q 54 13 108 -11 q 6 81 6 35 q 25 171 6 146 q 67 197 40 190 q 144 218 106 207 q 294 444 160 222 l 344 522 l 389 599 q 285 774 350 660 q 272 790 281 776 q 207 857 244 838 q 167 871 186 864 q 132 892 154 878 q 111 954 111 913 q 186 1033 111 1013 q 336 1046 235 1047 q 512 1026 469 1043 q 551 949 554 1008 q 538 907 550 921 q 513 885 536 906 q 496 874 504 881 q 492 856 488 868 q 594 706 515 813 q 689 858 689 843 q 659 889 689 865 q 629 947 629 913 q 669 1026 629 1006 q 867 1049 717 1049 q 994 1039 964 1049 q 1043 968 1043 1022 q 1017 893 1043 914 q 938 858 982 867 q 892 844 906 853 q 846 796 878 835 q 767 678 806 746 q 722 617 746 651 l 763 547 q 879 372 801 478 z "},"Y":{"ha":896,"x_min":22,"x_max":903,"o":"m 569 551 q 643 233 611 276 q 681 192 661 214 q 700 147 700 169 q 642 7 700 33 q 406 -14 599 -14 q 199 17 250 -14 q 147 138 147 49 q 172 183 147 158 q 210 224 204 214 q 251 396 228 260 q 278 575 272 513 q 257 611 278 581 q 217 686 231 649 q 157 801 192 732 q 117 839 143 819 q 72 871 72 871 q 38 892 60 878 q 22 939 22 908 q 94 1024 22 996 q 242 1046 153 1047 q 415 1017 364 1044 q 457 949 457 994 q 444 908 457 921 q 418 885 432 896 q 397 856 404 874 q 393 817 389 838 q 467 731 410 731 q 518 781 488 731 q 542 839 525 806 q 554 872 554 864 q 549 879 554 876 q 531 892 544 882 q 514 939 514 908 q 733 1046 514 1046 q 903 960 903 1046 q 890 919 903 932 q 865 897 876 907 q 819 874 853 888 q 755 844 768 854 q 719 804 742 835 q 619 690 639 717 q 569 575 569 625 q 569 551 569 565 z "},"Z":{"ha":860,"x_min":0,"x_max":838,"o":"m 371 360 q 479 335 388 344 q 600 328 549 328 q 697 353 647 328 q 764 378 746 378 q 819 340 797 378 q 838 274 838 310 q 828 151 838 222 q 794 42 815 56 q 650 -8 722 -8 q 540 -4 621 -8 q 432 -1 468 -1 q 78 -12 261 -7 q 53 -15 69 -12 q 26 -18 36 -18 q 1 1 6 -18 q 0 38 0 6 q 197 535 0 235 q 463 864 349 765 q 465 868 465 865 q 417 892 465 879 q 353 903 375 903 q 250 860 299 903 q 176 781 214 821 q 107 740 139 740 q 58 756 85 740 q 24 869 24 813 q 49 988 24 953 q 332 1049 93 1049 q 421 1047 368 1049 q 485 1046 474 1046 q 636 1036 588 1046 q 735 949 735 1014 q 725 910 735 924 q 698 887 724 908 q 589 739 672 865 q 469 551 517 632 l 371 360 z "},"[":{"ha":435,"x_min":33,"x_max":467,"o":"m 467 -89 q 433 -167 467 -150 q 347 -176 415 -176 q 303 -178 338 -176 q 258 -179 268 -179 q 168 -169 217 -179 q 92 -135 101 -157 q 33 17 33 -125 l 33 879 q 53 1015 33 985 q 176 1064 79 1058 q 200 1069 185 1064 q 222 1075 215 1075 q 411 983 411 1075 q 336 922 411 922 q 326 922 333 922 q 315 922 318 922 q 236 856 236 922 q 257 458 236 700 q 293 61 275 260 q 374 -31 299 -31 q 393 -29 379 -31 q 411 -29 406 -29 q 467 -89 467 -29 z "},"\\":{"ha":617,"x_min":13,"x_max":610,"o":"m 610 21 q 497 -10 610 -10 q 368 31 385 -10 q 181 514 350 42 q 13 1035 13 986 q 86 1067 13 1067 q 196 1024 182 1067 q 382 579 211 1014 q 600 49 564 115 q 610 21 610 33 z "},"]":{"ha":507,"x_min":14,"x_max":447,"o":"m 447 17 q 411 -128 447 -85 q 314 -172 381 -165 q 168 -174 299 -174 q 14 -89 14 -174 q 68 -28 14 -28 q 88 -29 75 -28 q 108 -29 101 -29 q 188 61 181 -29 q 222 458 206 260 q 244 857 244 700 q 167 922 244 922 q 156 922 163 922 q 144 922 149 922 q 69 983 69 922 q 135 1060 69 1046 q 251 1064 154 1064 q 388 1029 374 1064 q 447 879 447 1014 l 447 17 z "},"^":{"ha":563,"x_min":39,"x_max":543,"o":"m 290 790 l 172 496 q 151 456 158 463 q 107 443 140 443 q 39 471 39 443 q 124 744 39 514 q 236 1022 204 961 q 290 1046 249 1046 q 346 1022 333 1046 q 458 744 378 961 q 543 471 543 514 q 469 443 543 443 q 429 456 442 443 q 410 496 422 463 l 290 790 z "},"_":{"ha":681,"x_min":-35,"x_max":729,"o":"m 660 -192 l 35 -192 q -18 -186 -10 -192 q -35 -129 -35 -175 q -18 -72 -35 -83 q 35 -67 -10 -67 l 660 -67 q 713 -72 704 -67 q 729 -129 729 -83 q 713 -186 729 -175 q 660 -192 704 -192 z "},"`":{"ha":532,"x_min":100,"x_max":489,"o":"m 489 861 q 411 797 489 797 q 268 829 374 797 q 140 885 158 864 q 100 933 100 897 q 137 999 100 971 q 213 1028 174 1028 q 386 968 239 1028 q 428 939 404 957 q 468 903 447 921 q 489 861 489 885 z "},"a":{"ha":708,"x_min":24,"x_max":686,"o":"m 686 147 q 610 24 686 68 q 460 -15 544 -15 q 383 5 422 -15 q 331 25 344 25 q 270 13 311 25 q 207 1 229 1 q 76 63 129 1 q 24 203 24 124 q 107 408 24 319 q 303 518 186 492 q 344 529 317 519 q 371 579 371 539 q 318 672 371 672 q 263 638 286 672 q 219 572 240 604 q 139 538 188 538 q 97 558 113 538 q 81 606 81 579 q 188 747 81 697 q 378 786 271 786 q 561 718 517 786 q 589 556 589 674 l 589 535 q 604 379 589 433 q 648 255 610 361 q 686 147 686 149 m 364 375 q 354 417 364 413 q 344 422 353 422 q 290 391 310 422 q 271 325 271 360 q 324 251 271 251 q 356 292 343 251 q 365 344 365 321 q 365 360 365 350 q 364 375 364 369 z "},"b":{"ha":750,"x_min":21,"x_max":731,"o":"m 397 600 q 344 522 344 600 q 365 310 344 328 q 396 300 376 300 q 463 351 438 300 q 482 442 482 393 q 463 538 482 490 q 397 600 439 600 m 71 815 q 55 823 71 815 q 36 835 39 832 q 21 876 21 847 q 101 979 21 932 q 310 1040 207 1040 q 344 986 351 1040 l 339 950 q 313 733 328 878 q 310 724 310 728 q 333 713 310 707 q 415 757 407 753 q 506 779 465 779 q 674 615 604 779 q 731 367 731 482 q 647 92 731 193 q 389 -19 557 -19 q 232 10 319 -19 q 82 60 86 58 q 65 68 72 64 q 43 94 47 81 q 33 133 33 129 q 61 217 33 158 q 88 442 63 235 q 103 669 103 578 l 103 669 q 71 815 103 797 z "},"c":{"ha":657,"x_min":26,"x_max":640,"o":"m 410 299 q 483 321 442 299 q 544 343 524 343 q 612 317 583 343 q 640 253 640 292 q 553 58 640 135 q 347 -19 467 -19 q 108 96 199 -19 q 26 354 26 201 q 117 649 26 526 q 383 783 217 783 q 538 739 472 783 q 611 604 611 689 q 594 539 611 565 q 538 507 574 507 q 465 547 507 507 q 392 586 424 586 q 310 540 343 586 q 278 442 278 493 q 319 346 278 393 q 410 299 361 299 z "},"d":{"ha":796,"x_min":26,"x_max":767,"o":"m 372 625 q 306 558 328 625 q 290 456 290 513 q 306 369 290 406 q 369 321 326 321 q 411 333 397 321 q 433 514 433 351 q 372 625 433 625 m 699 318 q 738 226 704 296 q 767 138 767 171 q 664 26 767 72 q 504 -12 579 -12 q 440 6 478 -12 q 383 25 403 25 q 324 12 364 25 q 261 -1 283 -1 q 85 133 156 -1 q 26 361 26 246 q 90 619 26 483 q 275 782 167 782 q 411 742 344 782 q 451 711 426 732 q 474 696 471 696 q 440 815 469 799 q 407 835 410 832 q 392 876 392 847 q 472 979 392 932 q 679 1040 578 1040 q 715 986 722 1040 l 689 799 q 671 607 681 742 q 699 318 664 446 z "},"e":{"ha":667,"x_min":35,"x_max":650,"o":"m 438 299 q 499 324 460 303 q 554 343 533 343 q 622 317 593 343 q 650 253 650 292 q 563 58 650 135 q 357 -19 476 -19 q 115 100 204 -19 q 35 364 35 207 q 124 650 35 525 q 379 788 224 788 q 564 726 492 788 q 642 551 642 661 q 592 482 642 506 q 479 461 547 461 q 347 486 400 461 q 321 493 332 493 q 292 474 301 493 q 288 442 288 458 q 326 350 288 396 q 410 299 364 304 l 438 299 m 371 668 q 308 648 336 668 q 279 594 279 628 q 331 568 279 568 q 426 572 421 568 q 443 599 443 574 q 422 649 443 629 q 371 668 400 668 z "},"f":{"ha":542,"x_min":22,"x_max":518,"o":"m 518 869 q 497 793 518 825 q 432 756 474 756 q 343 819 385 756 q 276 882 301 882 q 242 832 242 882 q 289 708 242 788 q 383 618 339 624 q 447 615 414 618 q 481 575 481 613 q 432 486 481 486 q 421 488 428 486 q 408 488 413 488 q 383 478 390 488 q 389 394 379 471 q 403 296 396 346 q 458 210 404 276 q 514 97 513 144 q 244 -24 515 -24 q 99 7 158 -24 q 22 124 22 46 q 54 204 22 150 q 99 289 92 265 q 135 474 115 346 q 118 481 131 481 q 94 478 111 481 q 68 475 76 475 q 36 491 44 475 q 29 544 28 507 q 44 600 31 585 q 88 606 49 606 q 139 626 139 606 q 106 719 138 649 q 75 822 75 789 q 141 988 75 925 q 308 1051 207 1051 q 456 1001 394 1051 q 518 869 518 951 z "},"g":{"ha":661,"x_min":24,"x_max":640,"o":"m 71 40 q 26 153 26 96 q 126 358 26 290 q 51 543 51 458 q 131 725 51 660 q 308 785 201 785 q 436 760 332 785 q 460 756 451 756 q 510 789 494 756 q 538 822 525 822 q 582 794 565 822 q 599 729 599 767 q 544 583 599 668 q 547 547 547 556 q 484 349 547 418 q 317 281 421 281 q 256 286 297 281 q 299 243 260 243 q 378 253 315 243 q 469 264 442 264 q 599 186 551 264 q 640 31 640 119 q 556 -179 640 -94 q 299 -275 461 -275 q 96 -211 172 -275 q 24 -62 24 -151 q 71 40 24 1 m 314 681 q 275 660 294 681 q 251 599 251 635 q 325 488 253 479 q 376 574 379 493 q 367 651 375 631 q 314 681 353 681 m 221 -8 q 251 -65 229 -36 q 307 -101 279 -101 q 361 -69 339 -101 q 379 -21 379 -43 q 372 -10 379 -10 q 337 -13 365 -10 q 290 -17 308 -17 q 221 -8 260 -17 z "},"h":{"ha":858,"x_min":24,"x_max":846,"o":"m 106 816 q 90 824 106 816 q 74 835 75 832 q 57 876 57 847 q 139 979 57 932 q 346 1040 243 1040 q 381 986 388 1040 l 347 742 q 388 706 343 706 q 454 745 390 706 q 581 785 518 785 q 700 718 657 785 q 744 485 707 707 q 788 222 767 353 q 819 149 793 199 q 846 82 846 100 q 625 -15 846 -15 q 521 8 563 -15 q 469 97 469 39 q 486 247 469 132 q 503 418 503 361 q 438 593 503 553 q 376 479 376 593 q 381 304 376 436 q 397 238 382 279 q 413 172 413 196 q 335 36 413 93 q 183 -17 265 -17 q 81 4 125 -17 q 24 82 24 31 q 46 158 24 113 q 81 235 75 221 q 139 703 149 464 q 106 816 136 800 z "},"i":{"ha":490,"x_min":19,"x_max":468,"o":"m 386 957 q 321 854 386 897 q 201 815 264 815 q 110 840 147 815 q 67 922 67 871 q 135 1017 67 976 q 253 1053 193 1053 q 340 1029 303 1053 q 386 957 386 1003 m 38 628 q 147 746 38 694 q 325 792 244 792 q 376 760 351 792 q 394 704 400 729 q 378 589 394 665 q 363 472 363 513 q 415 247 363 388 q 468 104 468 107 q 385 -1 468 36 q 242 -29 319 -29 q 99 -1 160 -29 q 19 107 19 35 q 67 226 19 117 q 119 435 115 335 q 110 525 121 481 q 89 564 103 542 q 54 585 71 574 q 38 628 38 596 z "},"j":{"ha":557,"x_min":11,"x_max":524,"o":"m 499 949 q 431 854 499 890 q 310 825 374 825 q 228 852 263 825 q 193 925 193 879 q 258 1015 193 978 q 374 1047 317 1047 q 457 1022 422 1047 q 499 949 499 994 m 251 179 q 269 428 269 432 q 249 557 269 521 q 208 590 239 572 q 188 635 188 601 q 300 756 188 704 q 475 799 394 799 q 511 763 511 799 q 492 619 511 715 q 474 476 474 524 q 499 284 474 413 q 524 94 524 156 q 471 -143 524 -54 q 285 -246 410 -246 q 149 -218 210 -246 q 28 -82 58 -176 q 11 13 11 -31 q 50 114 11 79 q 82 125 63 125 q 141 110 100 125 q 200 94 182 94 q 251 179 246 94 z "},"k":{"ha":867,"x_min":22,"x_max":863,"o":"m 72 815 q 56 823 72 815 q 38 835 40 832 q 22 876 22 847 q 104 979 22 932 q 311 1040 208 1040 q 346 986 353 1040 l 311 728 q 313 703 313 717 q 331 625 313 674 q 374 567 351 572 q 429 597 397 560 q 467 661 457 629 q 461 699 461 679 q 515 785 460 764 q 607 794 546 796 q 711 776 663 792 q 781 714 781 754 q 699 628 781 681 q 582 543 599 564 q 651 418 579 503 q 788 263 719 340 q 863 117 863 169 q 778 7 863 32 q 626 -10 756 0 q 490 63 536 -15 q 438 232 465 107 q 383 388 411 349 l 376 392 q 367 361 367 376 q 369 317 367 339 q 371 286 371 294 q 372 227 371 268 q 374 164 374 186 q 326 0 374 44 q 251 -21 314 -11 q 172 -29 200 -29 q 64 0 111 -29 q 24 69 24 25 q 38 133 24 93 q 60 201 49 167 q 99 433 90 301 q 106 669 99 438 l 104 669 q 72 815 104 797 z "},"l":{"ha":501,"x_min":26,"x_max":481,"o":"m 53 876 q 133 979 53 932 q 340 1040 239 1040 q 375 986 383 1040 l 336 717 l 336 697 q 368 451 336 613 q 428 211 397 304 q 457 166 433 197 q 481 118 481 135 q 250 -17 481 -17 q 106 10 163 -17 q 26 122 26 44 q 43 161 26 140 q 68 200 64 188 q 115 430 92 279 q 138 664 138 581 l 138 671 q 136 675 136 672 q 107 811 136 785 q 71 833 89 822 q 53 876 53 844 z "},"m":{"ha":1181,"x_min":3,"x_max":1161,"o":"m 51 571 q 18 589 21 588 q 3 632 3 603 q 85 733 3 686 q 292 796 189 796 q 326 742 333 796 l 321 704 q 333 690 322 690 q 394 726 351 690 q 444 758 419 742 q 501 778 475 775 q 688 660 613 789 q 790 740 736 719 q 932 758 840 758 q 1060 685 1036 758 q 1069 529 1069 660 q 1115 292 1069 444 q 1161 114 1161 139 q 1100 15 1161 51 q 983 -15 1049 -15 q 807 110 807 -15 q 823 282 807 167 q 839 457 839 397 q 833 547 839 522 q 783 599 822 599 q 726 515 736 597 q 725 390 725 500 q 741 288 725 354 q 757 189 757 222 q 608 -15 757 -15 q 447 92 447 -15 q 466 249 447 139 q 485 415 485 360 q 447 578 485 572 q 364 426 364 588 q 374 356 364 401 q 385 288 385 310 q 372 118 385 168 q 285 -3 351 32 q 175 -19 250 -19 q 67 1 90 -19 q 28 83 28 35 q 49 174 28 114 q 71 262 71 235 q 78 344 71 289 q 86 425 85 400 q 51 571 89 550 z "},"n":{"ha":851,"x_min":32,"x_max":825,"o":"m 88 568 q 54 588 60 582 q 38 632 38 603 q 118 733 38 686 q 274 785 206 785 q 310 738 313 785 q 311 717 310 731 q 326 694 315 694 q 336 699 331 694 q 418 765 376 732 q 525 793 458 793 q 669 763 626 793 q 713 675 706 738 q 714 535 714 663 q 769 272 714 442 q 825 74 825 103 q 613 -12 825 -12 q 501 17 547 -12 q 446 111 446 49 q 459 157 446 126 q 474 204 472 188 q 494 451 494 442 q 425 610 494 610 q 365 544 378 610 q 361 440 361 521 q 378 299 361 390 q 396 172 396 208 q 340 30 396 78 q 190 -18 283 -18 q 82 -1 115 -18 q 32 88 32 22 q 71 232 32 115 q 124 429 114 361 q 111 532 122 496 q 88 568 101 542 z "},"o":{"ha":717,"x_min":26,"x_max":699,"o":"m 26 358 q 121 647 26 510 q 372 799 226 799 q 615 657 521 799 q 699 374 699 531 q 604 114 699 232 q 365 -14 504 -14 q 113 93 203 -14 q 26 358 26 193 m 442 404 q 424 546 442 474 q 353 649 399 649 q 304 610 321 649 q 290 543 290 579 q 311 424 290 479 q 392 350 339 350 q 427 366 413 350 q 442 404 442 382 z "},"p":{"ha":756,"x_min":14,"x_max":749,"o":"m 335 479 q 346 431 335 453 q 385 403 361 403 q 449 446 425 403 q 469 526 469 483 q 450 594 469 563 q 379 635 425 639 q 335 479 335 635 m 14 586 q 94 689 14 642 q 292 768 183 740 q 453 800 414 800 q 660 721 571 800 q 749 524 749 642 q 653 279 749 350 q 476 219 600 239 q 382 171 382 206 q 419 -11 382 101 q 457 -149 457 -124 q 258 -232 457 -232 q 118 -214 183 -232 q 21 -133 21 -187 q 35 -99 21 -119 q 53 -68 50 -79 q 79 147 64 -15 q 96 386 93 294 q 85 489 99 443 q 67 522 83 492 q 31 543 49 532 q 14 586 14 554 z "},"q":{"ha":758,"x_min":18,"x_max":753,"o":"m 432 479 q 421 431 432 453 q 382 403 406 403 q 318 446 342 403 q 297 526 297 482 q 320 601 297 567 q 382 635 343 635 q 432 479 432 635 m 753 586 q 569 738 753 665 q 314 800 413 800 q 107 721 196 800 q 18 524 18 642 q 114 281 18 353 q 290 219 167 240 q 385 171 385 204 q 347 -8 385 107 q 310 -149 310 -122 q 508 -232 310 -232 q 649 -214 583 -232 q 744 -133 744 -187 q 732 -100 744 -119 q 714 -68 717 -75 q 685 165 700 -28 q 669 408 669 340 q 692 507 669 476 q 731 542 699 518 q 753 586 753 557 z "},"r":{"ha":649,"x_min":19,"x_max":646,"o":"m 74 577 q 56 592 74 577 q 38 632 38 607 q 139 746 38 699 q 300 785 224 785 q 335 765 331 785 q 335 722 335 769 l 336 706 q 342 694 336 699 q 351 692 347 690 q 415 749 367 697 q 515 789 456 789 q 615 726 579 789 q 646 607 646 674 q 607 508 646 550 q 511 467 568 467 q 449 492 469 467 q 422 556 436 508 q 401 569 415 568 q 363 507 376 569 q 354 421 354 465 q 389 271 354 342 q 451 169 404 239 q 486 94 486 121 q 249 -17 486 -17 q 19 108 19 -17 q 69 235 19 101 q 119 438 119 369 q 117 525 119 511 q 74 577 110 547 z "},"s":{"ha":613,"x_min":28,"x_max":582,"o":"m 65 601 q 135 746 65 693 q 292 796 197 796 q 485 715 410 796 q 546 607 546 653 q 467 553 546 553 q 394 608 428 553 q 336 664 361 664 q 305 652 319 664 q 290 624 290 640 q 365 542 290 586 q 506 442 469 481 q 582 233 582 360 q 496 57 582 129 q 311 -11 415 -11 q 28 253 28 -11 q 72 315 28 315 q 106 306 85 315 q 140 297 128 297 q 193 350 193 297 q 129 459 193 386 q 65 601 65 532 z "},"t":{"ha":563,"x_min":4,"x_max":556,"o":"m 556 163 q 469 25 556 78 q 307 -19 397 -19 q 78 197 78 -19 q 103 376 78 257 q 128 558 128 496 q 97 631 128 618 q 40 636 68 633 q 7 688 8 643 q 25 756 4 738 q 74 768 39 768 q 86 767 78 768 q 99 767 94 767 q 156 788 140 767 q 197 876 179 818 q 228 951 215 935 q 303 983 251 983 q 393 900 393 983 q 392 874 393 892 q 392 847 392 856 q 407 783 392 804 q 471 750 432 750 q 492 751 478 750 q 511 753 506 753 q 543 693 543 753 q 489 639 543 639 q 468 639 482 639 q 447 640 454 640 q 372 547 372 640 q 400 382 372 488 q 469 240 432 258 q 527 219 499 231 q 556 163 556 208 z "},"u":{"ha":799,"x_min":14,"x_max":776,"o":"m 61 571 q 46 579 61 571 q 29 589 31 588 q 14 632 14 603 q 94 733 14 686 q 301 796 200 796 q 338 742 344 796 l 301 479 q 303 451 301 464 q 390 371 319 371 q 418 372 403 371 q 468 421 449 378 q 483 490 483 456 q 459 579 483 553 q 435 633 435 606 q 510 753 435 708 q 654 792 574 792 q 714 770 689 792 q 739 715 739 749 q 724 533 739 654 q 708 350 708 411 q 742 289 708 324 q 776 239 776 254 q 722 76 776 161 q 588 -17 663 -17 q 545 11 575 -17 q 501 39 515 39 q 433 14 489 39 q 332 -11 378 -11 q 76 215 76 -11 q 96 450 76 293 q 61 571 92 554 z "},"v":{"ha":797,"x_min":14,"x_max":796,"o":"m 150 500 q 61 572 125 538 q 29 590 31 589 q 14 633 14 604 q 97 737 14 689 q 271 796 179 785 q 318 800 296 800 q 400 743 400 800 q 396 653 400 725 q 392 564 392 581 q 407 499 392 536 q 451 454 426 454 q 497 499 478 454 q 515 568 515 538 q 500 626 515 588 q 485 685 485 665 q 546 764 485 738 q 654 783 593 783 q 796 699 796 783 q 750 617 796 665 q 686 539 694 557 q 567 246 679 526 q 450 -3 471 7 q 404 -15 424 -15 q 174 422 304 -15 q 150 500 158 489 z "},"w":{"ha":1204,"x_min":14,"x_max":1192,"o":"m 788 564 q 803 490 788 533 q 847 440 822 440 q 894 485 874 440 q 911 554 911 522 q 896 613 911 575 q 881 671 881 650 q 942 750 881 724 q 1050 769 989 769 q 1192 685 1192 769 q 1147 601 1192 651 q 1083 527 1090 540 q 963 239 1076 514 q 846 -3 865 4 q 800 -15 806 -15 q 599 326 708 -15 q 524 129 561 228 q 404 -15 460 -15 q 288 99 340 -15 q 211 326 257 164 q 150 500 171 469 q 69 564 138 518 q 14 633 14 603 q 133 757 14 704 q 318 800 235 800 q 403 701 403 800 q 397 630 403 678 q 392 564 392 582 q 407 497 392 535 q 451 454 426 454 q 499 499 478 454 q 515 568 515 536 q 500 626 515 589 q 485 685 485 664 q 546 764 485 738 q 654 783 592 783 q 768 757 738 783 q 793 686 793 736 q 790 630 793 671 q 788 564 788 589 z "},"x":{"ha":711,"x_min":-4,"x_max":693,"o":"m 14 633 q 128 751 14 700 q 303 796 225 796 q 339 761 339 796 q 329 666 339 731 q 319 569 319 601 q 365 493 319 519 q 444 568 397 515 q 500 656 500 629 q 489 683 500 665 q 478 713 478 701 q 588 785 478 785 q 693 715 693 785 q 661 660 693 689 q 613 614 617 621 q 521 499 567 557 q 454 378 461 425 q 501 271 447 331 q 606 176 526 243 q 661 136 633 156 q 693 81 693 108 q 531 -14 693 -14 l 460 -14 q 328 67 328 -14 q 349 112 328 90 q 369 147 369 133 q 356 201 369 168 q 324 232 342 233 q 276 151 301 215 q 251 60 251 86 q 108 -10 251 -10 q -4 60 -4 -10 q 31 114 -4 89 q 83 158 76 147 q 169 265 126 211 q 228 381 224 331 q 186 456 231 410 q 118 524 151 489 q 54 572 111 532 q 14 633 14 600 z "},"y":{"ha":706,"x_min":3,"x_max":713,"o":"m 51 571 q 19 589 21 588 q 3 632 3 603 q 85 733 3 686 q 292 796 189 796 q 326 742 333 796 l 324 715 q 313 625 313 632 q 319 538 313 558 q 414 406 338 474 q 471 488 436 406 q 501 592 501 564 q 483 642 501 613 q 464 690 464 671 q 597 774 464 774 q 713 696 713 774 q 668 618 713 663 q 601 529 615 567 q 521 238 561 383 q 392 -99 457 17 q 186 -260 301 -260 q 63 -208 110 -260 q 17 -79 17 -156 q 40 8 17 -32 q 113 54 67 54 q 172 39 156 54 q 186 11 179 32 q 204 -3 190 -3 q 238 54 238 -3 q 169 304 238 111 q 94 511 132 408 q 72 553 86 533 q 51 571 61 565 z "},"z":{"ha":604,"x_min":-4,"x_max":576,"o":"m 568 228 q 540 92 568 172 q 463 -7 507 -7 q 403 -3 446 -7 q 338 0 361 1 l 83 -7 q 24 1 44 -8 q 0 51 -4 15 q 89 289 14 178 q 233 457 128 344 q 347 607 322 550 q 350 619 350 614 q 299 643 350 643 q 230 637 272 643 q 186 631 188 631 q 165 599 171 629 q 146 540 157 556 q 65 511 122 508 q 25 540 39 511 q 14 592 14 564 q 46 708 14 639 q 122 789 82 789 q 199 786 147 789 q 281 783 251 783 q 343 786 283 783 q 443 789 403 789 q 576 756 576 789 q 469 491 576 683 q 361 231 361 299 q 394 201 361 200 q 413 235 407 201 q 435 293 421 276 q 513 321 458 324 q 568 228 568 317 z "},"{":{"ha":546,"x_min":106,"x_max":586,"o":"m 586 -128 q 522 -151 543 -153 q 406 -143 471 -150 q 251 63 251 -121 l 251 281 q 201 396 251 375 q 106 447 169 415 q 135 504 106 504 q 227 540 203 510 q 251 644 251 571 l 251 856 q 306 1023 251 975 q 493 1071 361 1071 l 557 1057 q 586 1021 586 1057 q 548 999 572 1017 q 508 974 524 981 q 468 874 468 956 l 468 699 q 444 540 468 588 q 329 464 414 482 q 331 460 329 463 q 444 383 415 442 q 468 228 468 338 l 468 44 q 481 -42 468 -18 q 557 -78 499 -76 q 586 -128 586 -78 z "},"|":{"ha":503,"x_min":253,"x_max":443,"o":"m 253 1061 l 443 1061 l 443 -278 l 253 -278 l 253 1061 z "},"}":{"ha":565,"x_min":126,"x_max":606,"o":"m 219 1071 q 406 1023 350 1071 q 461 856 461 975 l 461 644 q 511 528 461 549 q 606 478 542 508 q 578 421 606 421 q 485 385 508 415 q 461 281 461 354 l 461 63 q 306 -142 461 -121 q 189 -151 301 -143 q 126 -128 168 -153 q 154 -78 126 -78 q 231 -42 211 -76 q 243 44 243 -18 l 243 228 q 267 385 243 338 q 383 461 297 443 q 381 464 382 463 q 267 540 296 482 q 243 699 243 588 l 243 874 q 203 974 243 956 q 126 1021 178 993 q 154 1056 126 1056 l 219 1071 z "},"~":{"ha":894,"x_min":50,"x_max":844,"o":"m 783 685 q 826 626 806 685 q 844 538 844 575 q 640 410 768 410 q 481 446 579 410 q 283 500 332 500 q 242 483 260 500 q 111 400 208 446 q 68 458 89 400 q 50 546 50 510 q 267 678 135 678 q 436 642 333 678 q 533 606 483 624 q 615 588 583 588 q 656 603 640 588 q 783 685 689 639 z "},"Ä":{"ha":1100,"x_min":11,"x_max":1078,"o":"m 1075 128 q 958 14 1069 47 q 782 -10 886 -10 q 632 8 678 -10 q 556 122 556 38 q 565 194 556 154 q 628 386 628 257 q 567 454 628 431 q 467 472 521 472 q 428 465 467 472 q 376 349 376 435 q 403 240 376 286 q 454 181 414 224 q 481 126 481 151 q 381 3 481 31 q 204 -11 332 -11 q 13 85 13 -11 q 86 222 11 169 q 240 490 174 285 q 297 803 297 669 q 279 889 297 854 q 247 929 269 908 q 229 954 229 946 q 378 1033 229 1000 q 563 1056 504 1061 q 713 996 661 1046 q 782 888 736 972 q 817 779 796 860 q 978 296 897 458 q 1021 248 990 272 q 1061 208 1051 224 q 1075 128 1078 179 m 583 661 q 557 735 583 672 q 494 792 535 792 q 446 732 472 792 q 424 653 424 681 q 458 640 424 640 q 488 642 468 640 q 515 644 507 644 q 549 640 543 644 q 583 661 583 643 m 481 1257 q 521 1338 481 1308 q 596 1361 554 1361 q 659 1338 631 1361 q 688 1269 688 1314 q 643 1190 688 1221 q 565 1164 607 1164 q 508 1189 532 1164 q 481 1257 481 1215 m 208 1257 q 249 1338 208 1308 q 324 1361 282 1361 q 383 1340 358 1361 q 414 1269 414 1314 q 371 1190 414 1221 q 293 1164 335 1164 q 236 1189 260 1164 q 208 1257 208 1215 z "},"Å":{"ha":1100,"x_min":11,"x_max":1078,"o":"m 1075 128 q 958 14 1069 47 q 782 -10 886 -10 q 632 8 678 -10 q 556 122 556 38 q 565 194 556 154 q 628 386 628 257 q 567 454 628 431 q 467 472 521 472 q 428 465 467 472 q 376 349 376 435 q 403 240 376 286 q 454 181 414 224 q 481 126 481 151 q 381 3 481 31 q 204 -11 332 -11 q 13 85 13 -11 q 86 222 11 169 q 240 490 174 285 q 297 803 297 669 q 279 889 297 854 q 247 929 269 908 q 229 954 229 946 q 378 1033 229 1000 q 563 1056 504 1061 q 713 996 661 1046 q 782 888 736 972 q 817 779 796 860 q 979 296 897 458 q 1021 248 990 272 q 1061 208 1051 224 q 1075 128 1078 179 m 583 661 q 558 735 583 672 q 496 792 535 792 q 446 732 472 792 q 424 653 424 681 q 460 640 424 640 q 488 642 468 640 q 515 644 507 644 q 550 640 543 644 q 583 661 583 643 m 714 1236 q 649 1110 714 1157 q 510 1067 592 1067 q 369 1110 426 1067 q 308 1236 308 1156 q 369 1363 308 1317 q 510 1406 426 1406 q 649 1363 592 1406 q 714 1236 714 1315 m 585 1236 q 564 1292 585 1269 q 511 1315 543 1315 q 458 1292 478 1315 q 438 1236 438 1269 q 458 1180 438 1203 q 511 1157 478 1157 q 564 1180 543 1157 q 585 1236 585 1203 z "},"Ç":{"ha":818,"x_min":18,"x_max":794,"o":"m 793 293 q 699 71 793 149 q 465 -3 611 -3 q 143 149 275 -3 q 18 489 18 293 q 142 863 18 690 q 471 1053 278 1053 q 599 1019 538 1053 q 675 985 661 985 q 697 996 683 985 q 719 1006 710 1007 q 790 918 776 1003 q 794 801 794 892 q 759 727 794 758 q 682 696 724 696 q 610 758 642 696 q 536 821 578 821 q 401 756 454 821 q 354 626 354 697 q 500 433 354 433 q 615 481 536 433 q 718 529 693 529 q 742 518 733 529 q 793 293 793 458 m 658 -169 q 608 -253 658 -222 q 489 -283 557 -283 q 365 -257 411 -283 q 325 -210 325 -236 q 351 -172 325 -179 q 394 -172 364 -169 q 449 -175 431 -176 q 497 -144 497 -172 q 472 -119 497 -125 q 433 -112 453 -115 q 410 -90 422 -111 q 388 0 389 -58 q 456 0 421 0 l 524 0 q 524 -33 522 -7 q 525 -62 526 -61 q 565 -72 524 -64 q 658 -169 658 -90 z "},"É":{"ha":839,"x_min":6,"x_max":814,"o":"m 128 779 q 94 871 119 851 q 60 892 82 878 q 43 939 43 908 q 115 1024 43 996 q 263 1046 175 1047 q 313 1043 279 1046 q 365 1040 347 1040 q 519 1047 413 1040 q 671 1054 626 1054 q 764 979 731 1054 q 789 853 789 921 q 772 781 789 810 q 711 744 750 744 q 647 779 674 744 q 588 844 608 831 q 436 881 536 881 q 406 881 407 881 q 386 847 392 875 q 383 828 383 838 q 429 753 383 782 q 525 728 469 728 q 552 743 536 728 q 579 758 568 758 q 600 728 600 758 q 588 635 600 679 q 533 572 569 572 q 492 607 513 572 q 433 642 472 642 q 388 568 388 642 q 590 394 388 394 q 617 399 599 394 q 644 400 635 403 q 661 399 654 399 q 719 432 696 399 q 756 465 742 465 q 792 438 776 465 q 807 386 807 410 q 810 315 807 372 q 814 219 814 257 q 744 0 814 50 q 568 -18 718 -18 q 454 -19 526 -18 q 338 -19 394 -21 l 76 -18 q 6 50 6 -17 q 26 97 6 76 q 65 140 61 132 l 92 182 q 115 340 111 214 l 126 699 q 128 779 129 744 m 457 1304 q 510 1279 482 1304 q 542 1210 542 1250 q 511 1160 542 1175 q 433 1113 501 1144 q 333 1078 364 1082 q 299 1074 324 1074 q 250 1138 250 1074 q 313 1219 250 1176 q 353 1249 315 1222 q 396 1278 392 1275 q 457 1304 433 1304 z "},"Ñ":{"ha":1042,"x_min":4,"x_max":1033,"o":"m 438 471 q 463 344 438 436 q 503 232 489 251 q 535 193 518 213 q 558 147 556 169 q 564 97 564 119 q 519 11 564 36 q 390 -12 483 -8 q 203 -18 347 -18 q 89 4 147 -18 q 21 56 38 22 q 4 111 4 81 q 6 122 4 117 q 6 138 6 129 q 24 175 6 156 q 56 207 39 190 q 115 501 97 365 q 136 701 131 611 q 99 871 144 833 q 64 892 86 878 q 47 939 47 908 q 119 1024 47 996 q 267 1046 178 1047 q 461 1003 418 1043 q 579 797 526 960 q 693 568 638 622 q 724 561 707 556 q 740 622 740 582 q 736 669 740 638 q 736 676 736 672 l 735 679 q 725 750 731 713 q 649 871 701 828 q 614 892 636 878 q 599 939 599 908 q 671 1024 599 996 q 818 1046 729 1047 q 992 1017 940 1044 q 1033 949 1033 994 q 1021 908 1033 921 q 994 885 1008 896 q 972 854 981 874 q 939 794 956 825 q 914 679 914 743 q 914 661 914 682 q 957 431 917 585 q 994 201 994 283 q 976 51 994 93 q 856 -14 947 -14 q 672 118 754 -14 q 558 363 651 153 q 453 494 500 494 q 438 471 438 494 m 840 1292 q 792 1182 840 1232 q 681 1132 744 1132 q 537 1166 629 1132 q 419 1200 444 1200 q 377 1161 385 1200 q 329 1122 369 1122 q 250 1174 250 1122 q 288 1267 250 1215 q 406 1336 338 1336 q 543 1302 450 1336 q 669 1268 636 1268 q 715 1306 708 1268 q 761 1344 722 1344 q 840 1292 840 1344 z "},"Ö":{"ha":918,"x_min":33,"x_max":890,"o":"m 890 374 q 758 81 890 199 q 456 -31 633 -31 q 140 125 260 -31 q 33 471 33 267 q 142 864 33 696 q 478 1058 267 1058 q 797 822 685 1058 q 890 374 890 629 m 586 556 q 546 758 586 647 q 422 897 496 897 q 356 833 379 897 q 338 729 338 785 q 368 553 338 635 q 489 443 410 443 q 586 556 586 443 m 463 1257 q 503 1338 463 1308 q 578 1361 536 1361 q 638 1339 613 1361 q 668 1269 668 1314 q 625 1190 668 1221 q 547 1164 589 1164 q 488 1190 514 1164 q 463 1257 463 1215 m 189 1257 q 231 1338 189 1308 q 304 1361 263 1361 q 365 1340 339 1361 q 396 1269 396 1314 q 351 1190 396 1221 q 274 1164 315 1164 q 215 1190 242 1164 q 189 1257 189 1215 z "},"Ü":{"ha":964,"x_min":1,"x_max":985,"o":"m 899 651 q 901 510 899 604 q 903 369 903 417 q 785 113 903 235 q 531 -8 667 -8 q 185 85 285 -8 q 81 419 81 181 q 85 557 81 465 q 90 694 90 649 q 68 843 90 796 q 25 890 57 865 q 1 939 1 908 q 81 1026 1 999 q 210 1046 135 1046 q 438 949 438 1046 q 414 897 438 918 q 375 854 382 869 q 351 668 351 799 l 350 671 q 375 499 351 543 q 529 435 411 435 q 665 476 629 435 q 700 621 700 518 q 692 786 700 726 q 643 882 682 858 q 608 939 608 901 q 828 1046 608 1046 q 928 1028 885 1046 q 985 953 985 1003 q 961 901 985 922 q 924 860 931 875 q 899 651 899 799 m 488 1257 q 528 1338 488 1308 q 603 1361 561 1361 q 663 1339 638 1361 q 693 1269 693 1314 q 650 1190 693 1221 q 572 1164 614 1164 q 513 1190 539 1164 q 488 1257 488 1215 m 214 1257 q 256 1338 214 1308 q 329 1361 288 1361 q 390 1340 364 1361 q 421 1269 421 1314 q 376 1190 421 1221 q 299 1164 340 1164 q 240 1190 267 1164 q 214 1257 214 1215 z "},"á":{"ha":713,"x_min":22,"x_max":685,"o":"m 685 147 q 610 24 685 68 q 460 -15 544 -15 q 383 5 422 -15 q 331 25 344 25 q 270 13 311 25 q 207 1 229 1 q 76 63 129 1 q 22 203 22 124 q 107 408 22 319 q 303 518 186 492 q 344 529 317 519 q 371 579 371 539 q 317 672 371 672 q 263 638 286 672 q 219 572 240 604 q 139 538 188 538 q 97 558 113 538 q 81 606 81 579 q 188 747 81 697 q 376 786 271 786 q 561 718 517 786 q 589 556 589 674 l 589 535 q 604 379 589 433 q 647 255 610 361 q 685 147 685 149 m 364 375 q 354 417 364 413 q 344 422 353 422 q 290 391 310 422 q 269 325 269 360 q 324 251 269 251 q 356 292 343 251 q 365 344 365 321 q 365 360 365 350 q 364 375 364 369 m 396 1028 q 447 1004 421 1028 q 481 933 481 975 q 450 885 481 899 q 372 837 440 868 q 272 801 303 806 q 238 797 263 797 q 189 861 189 797 q 251 944 189 900 q 292 974 254 947 q 335 1001 331 1000 q 396 1028 372 1028 z "},"à":{"ha":726,"x_min":22,"x_max":685,"o":"m 565 861 q 488 797 565 797 q 344 829 450 797 q 218 885 235 864 q 176 933 176 897 q 214 999 176 971 q 289 1028 251 1028 q 464 968 315 1028 q 506 939 482 957 q 545 903 525 921 q 565 861 565 885 m 685 147 q 610 24 685 68 q 460 -15 544 -15 q 383 5 422 -15 q 331 25 344 25 q 270 13 311 25 q 207 1 229 1 q 76 63 129 1 q 22 203 22 124 q 107 408 22 319 q 303 518 186 492 q 344 529 317 519 q 371 579 371 539 q 317 672 371 672 q 263 638 286 672 q 219 572 240 604 q 139 538 188 538 q 97 558 113 538 q 81 606 81 579 q 188 747 81 697 q 376 786 271 786 q 561 718 517 786 q 589 556 589 674 l 589 535 q 604 379 589 433 q 647 255 610 361 q 685 147 685 149 m 364 375 q 354 417 364 413 q 344 422 353 422 q 290 391 310 422 q 269 325 269 360 q 324 251 269 251 q 356 292 343 251 q 365 344 365 321 q 365 360 365 350 q 364 375 364 369 z "},"â":{"ha":719,"x_min":22,"x_max":685,"o":"m 685 147 q 610 24 685 68 q 460 -15 544 -15 q 383 5 422 -15 q 331 25 344 25 q 270 13 311 25 q 207 1 229 1 q 76 63 129 1 q 22 203 22 124 q 107 408 22 319 q 303 518 186 492 q 344 529 317 519 q 371 579 371 539 q 317 672 371 672 q 263 638 286 672 q 219 572 240 604 q 139 538 188 538 q 97 558 113 538 q 81 606 81 579 q 188 747 81 697 q 376 786 271 786 q 561 718 517 786 q 589 556 589 674 l 589 535 q 604 379 589 433 q 647 255 610 361 q 685 147 685 149 m 364 375 q 354 417 364 413 q 344 422 353 422 q 290 391 310 422 q 269 325 269 360 q 324 251 269 251 q 356 292 343 251 q 365 344 365 321 q 365 360 365 350 q 364 375 364 369 m 656 863 q 590 825 656 824 q 503 854 546 825 q 453 892 493 858 q 407 921 415 921 q 282 838 360 886 q 214 825 253 825 q 153 865 153 824 q 163 889 153 878 q 225 963 171 907 q 303 1029 279 1019 q 407 1074 347 1074 q 493 1039 457 1074 q 579 968 518 1029 q 647 888 640 907 q 656 863 656 878 z "},"ä":{"ha":713,"x_min":22,"x_max":685,"o":"m 685 147 q 610 24 685 68 q 460 -15 544 -15 q 383 5 422 -15 q 331 25 344 25 q 270 13 311 25 q 207 1 229 1 q 76 63 129 1 q 22 203 22 124 q 107 408 22 319 q 303 518 186 492 q 344 529 317 519 q 371 579 371 539 q 317 672 371 672 q 263 638 286 672 q 219 572 240 604 q 139 538 188 538 q 97 558 113 538 q 81 606 81 579 q 188 747 81 697 q 376 786 271 786 q 561 718 517 786 q 589 556 589 674 l 589 535 q 604 379 589 433 q 647 255 610 361 q 685 147 685 149 m 364 375 q 354 417 364 413 q 344 422 353 422 q 290 391 310 422 q 269 325 269 360 q 324 251 269 251 q 356 292 343 251 q 365 344 365 321 q 365 360 365 350 q 364 375 364 369 m 349 981 q 389 1061 349 1033 q 464 1085 421 1085 q 524 1064 499 1085 q 554 994 554 1039 q 511 914 554 944 q 433 889 475 889 q 374 914 400 889 q 349 981 349 939 m 75 981 q 115 1063 75 1033 q 190 1086 149 1086 q 253 1063 225 1086 q 281 994 281 1039 q 238 914 281 944 q 160 889 201 889 q 101 914 128 889 q 75 981 75 939 z "},"ã":{"ha":719,"x_min":22,"x_max":707,"o":"m 685 147 q 610 24 685 68 q 460 -15 544 -15 q 383 5 422 -15 q 331 25 344 25 q 270 13 311 25 q 207 1 229 1 q 76 63 129 1 q 22 203 22 124 q 107 408 22 319 q 303 518 186 492 q 344 529 317 519 q 371 579 371 539 q 317 672 371 672 q 263 638 286 672 q 219 572 240 604 q 139 538 188 538 q 97 558 113 538 q 81 606 81 579 q 188 747 81 697 q 376 786 271 786 q 561 718 517 786 q 589 556 589 674 l 589 535 q 604 379 589 433 q 647 255 610 361 q 685 147 685 149 m 364 375 q 354 417 364 413 q 344 422 353 422 q 290 391 310 422 q 269 325 269 360 q 324 251 269 251 q 356 292 343 251 q 365 344 365 321 q 365 360 365 350 q 364 375 364 369 m 707 1017 q 659 907 707 957 q 547 857 611 857 q 403 890 496 857 q 285 924 311 924 q 244 885 251 924 q 196 846 236 846 q 115 897 115 846 q 153 992 115 939 q 271 1061 203 1061 q 409 1027 315 1061 q 535 993 503 993 q 581 1028 574 993 q 628 1068 588 1068 q 707 1017 707 1068 z "},"å":{"ha":719,"x_min":24,"x_max":686,"o":"m 686 147 q 610 24 686 68 q 460 -15 544 -15 q 383 5 422 -15 q 331 25 344 25 q 270 13 311 25 q 207 1 229 1 q 76 63 129 1 q 24 203 24 124 q 107 408 24 319 q 303 518 186 492 q 344 529 317 519 q 371 579 371 539 q 318 672 371 672 q 263 638 286 672 q 219 572 240 604 q 139 538 188 538 q 97 558 113 538 q 81 606 81 579 q 188 750 81 697 q 378 793 274 793 q 561 724 517 793 q 589 557 589 678 l 589 536 q 604 379 589 433 q 648 255 610 361 q 686 147 686 149 m 364 375 q 354 417 364 413 q 344 422 353 422 q 290 391 310 422 q 271 325 271 360 q 324 251 271 251 q 356 292 343 251 q 365 344 365 321 q 365 360 365 350 q 364 375 364 369 m 557 982 q 492 856 557 903 q 353 813 435 813 q 213 856 268 813 q 151 982 151 901 q 213 1108 151 1063 q 353 1151 269 1151 q 492 1108 433 1151 q 557 982 557 1061 m 428 982 q 407 1038 428 1015 q 354 1061 386 1061 q 301 1038 321 1061 q 281 982 281 1015 q 301 926 281 949 q 354 903 321 903 q 407 926 386 903 q 428 982 428 949 z "},"ç":{"ha":661,"x_min":25,"x_max":640,"o":"m 410 299 q 482 321 440 299 q 544 343 524 343 q 612 317 583 343 q 640 253 640 292 q 553 58 640 135 q 347 -19 467 -19 q 108 96 199 -19 q 25 354 25 201 q 117 649 25 526 q 383 783 217 783 q 538 739 472 783 q 610 604 610 689 q 594 539 610 565 q 538 507 574 507 q 465 547 507 507 q 392 586 424 586 q 310 540 343 586 q 278 442 278 493 q 319 346 278 393 q 410 299 361 299 m 547 -169 q 497 -253 547 -222 q 378 -283 446 -283 q 254 -257 301 -283 q 214 -210 214 -236 q 240 -172 214 -179 q 283 -172 253 -169 q 338 -175 319 -176 q 386 -144 386 -172 q 361 -119 386 -125 q 322 -112 342 -115 q 299 -90 311 -111 q 276 0 279 -58 q 344 0 310 0 l 413 0 q 413 -34 411 -7 q 414 -62 415 -61 q 454 -72 413 -64 q 547 -169 547 -90 z "},"é":{"ha":669,"x_min":35,"x_max":650,"o":"m 438 299 q 499 324 460 303 q 554 343 533 343 q 622 317 593 343 q 650 253 650 292 q 563 58 650 135 q 357 -19 476 -19 q 115 100 204 -19 q 35 364 35 207 q 124 650 35 525 q 379 788 224 788 q 564 726 492 788 q 642 551 642 661 q 592 482 642 506 q 479 461 547 461 q 347 486 400 461 q 321 493 332 493 q 292 474 301 493 q 288 442 288 458 q 326 350 288 396 q 410 299 364 304 l 438 299 m 371 668 q 308 648 336 668 q 279 594 279 628 q 331 568 279 568 q 426 572 421 568 q 443 599 443 574 q 422 649 443 629 q 371 668 400 668 m 376 1028 q 429 1004 401 1028 q 461 933 461 975 q 431 885 461 899 q 352 837 421 868 q 253 801 283 806 q 218 797 243 797 q 169 861 169 797 q 232 944 169 900 q 273 974 235 947 q 315 1001 311 1000 q 376 1028 353 1028 z "},"è":{"ha":671,"x_min":35,"x_max":650,"o":"m 546 861 q 468 797 546 797 q 326 829 431 797 q 199 885 217 864 q 157 933 157 897 q 194 999 157 971 q 269 1028 232 1028 q 444 968 297 1028 q 486 939 463 957 q 526 903 506 921 q 546 861 546 885 m 438 299 q 499 324 460 303 q 554 343 533 343 q 622 317 593 343 q 650 253 650 292 q 563 58 650 135 q 357 -19 476 -19 q 115 100 204 -19 q 35 364 35 207 q 124 650 35 525 q 379 788 224 788 q 564 726 492 788 q 642 551 642 661 q 592 482 642 506 q 479 461 547 461 q 347 486 400 461 q 321 493 332 493 q 292 474 301 493 q 288 442 288 458 q 326 350 288 396 q 410 299 364 304 l 438 299 m 371 668 q 308 648 336 668 q 279 594 279 628 q 331 568 279 568 q 426 572 421 568 q 443 599 443 574 q 422 649 443 629 q 371 668 400 668 z "},"ê":{"ha":672,"x_min":35,"x_max":650,"o":"m 438 299 q 499 324 460 303 q 554 343 533 343 q 622 317 593 343 q 650 253 650 292 q 563 58 650 135 q 357 -19 476 -19 q 115 100 204 -19 q 35 364 35 207 q 124 650 35 525 q 379 788 224 788 q 564 726 492 788 q 642 551 642 661 q 592 482 642 506 q 479 461 547 461 q 347 486 400 461 q 321 493 332 493 q 292 474 301 493 q 288 442 288 458 q 326 350 288 396 q 410 299 364 304 l 438 299 m 371 668 q 308 648 336 668 q 279 594 279 628 q 331 568 279 568 q 426 572 421 568 q 443 599 443 574 q 422 649 443 629 q 371 668 400 668 m 636 863 q 571 825 636 824 q 482 854 526 825 q 433 892 474 858 q 388 921 396 921 q 261 838 340 886 q 194 825 233 825 q 133 865 133 824 q 143 889 133 878 q 206 963 151 907 q 283 1029 260 1019 q 388 1074 328 1074 q 472 1039 438 1074 q 560 968 499 1029 q 628 888 621 907 q 636 863 636 878 z "},"ë":{"ha":667,"x_min":35,"x_max":650,"o":"m 438 299 q 499 324 460 303 q 554 343 533 343 q 622 317 593 343 q 650 253 650 292 q 563 58 650 135 q 357 -19 476 -19 q 115 100 204 -19 q 35 364 35 207 q 124 650 35 525 q 379 788 224 788 q 564 726 492 788 q 642 551 642 661 q 592 482 642 506 q 479 461 547 461 q 347 486 400 461 q 321 493 332 493 q 292 474 301 493 q 288 442 288 458 q 326 350 288 396 q 410 299 364 304 l 438 299 m 371 668 q 308 648 336 668 q 279 594 279 628 q 331 568 279 568 q 426 572 421 568 q 443 599 443 574 q 422 649 443 629 q 371 668 400 668 m 329 981 q 369 1061 329 1033 q 444 1085 403 1085 q 504 1064 479 1085 q 535 994 535 1039 q 492 914 535 944 q 414 889 456 889 q 355 914 381 889 q 329 981 329 939 m 56 981 q 97 1063 56 1033 q 171 1086 129 1086 q 234 1063 206 1086 q 263 994 263 1039 q 218 914 263 944 q 140 889 182 889 q 82 914 108 889 q 56 981 56 939 z "},"í":{"ha":419,"x_min":17,"x_max":390,"o":"m 286 1028 q 338 1004 311 1028 q 371 933 371 975 q 340 885 371 899 q 261 837 329 868 q 163 801 193 806 q 126 797 153 797 q 79 861 79 797 q 142 944 79 900 q 182 974 144 947 q 225 1001 219 1000 q 286 1028 263 1028 m 210 -14 q 21 72 21 -14 q 38 114 21 96 q 62 139 50 125 q 78 169 74 153 q 85 426 99 244 q 39 550 79 513 q 17 593 17 571 q 83 665 17 632 q 221 715 143 696 q 303 729 279 729 q 326 701 325 729 q 328 665 328 688 l 328 240 q 349 146 328 181 q 379 108 350 143 q 390 74 390 96 q 210 -14 390 -14 z "},"ì":{"ha":443,"x_min":17,"x_max":456,"o":"m 456 861 q 378 797 456 797 q 235 829 340 797 q 108 885 125 864 q 67 933 67 897 q 106 1000 67 971 q 179 1028 140 1028 q 353 968 206 1028 q 394 939 371 957 q 435 903 414 921 q 456 861 456 885 m 210 -14 q 21 72 21 -14 q 38 114 21 96 q 62 139 50 125 q 78 169 74 153 q 85 426 99 244 q 39 550 79 513 q 17 593 17 571 q 83 665 17 632 q 221 715 143 696 q 303 729 279 729 q 326 701 325 729 q 328 665 328 688 l 328 240 q 349 146 328 181 q 379 108 350 143 q 390 74 390 96 q 210 -14 390 -14 z "},"î":{"ha":542,"x_min":17,"x_max":546,"o":"m 210 -14 q 21 72 21 -14 q 38 114 21 96 q 62 139 50 125 q 78 169 74 153 q 85 426 99 244 q 39 550 79 513 q 17 593 17 571 q 83 665 17 632 q 221 715 143 696 q 303 729 279 729 q 326 701 325 729 q 328 665 328 688 l 328 240 q 349 146 328 181 q 379 108 350 143 q 390 74 390 96 q 210 -14 390 -14 m 546 863 q 481 825 546 824 q 392 854 436 825 q 342 892 382 858 q 296 921 306 921 q 171 838 249 886 q 104 825 143 825 q 42 865 42 824 q 53 889 42 878 q 115 963 60 907 q 193 1029 169 1019 q 296 1074 238 1074 q 382 1039 347 1074 q 468 968 407 1029 q 536 888 529 907 q 546 863 546 878 z "},"ï":{"ha":440,"x_min":-35,"x_max":444,"o":"m 239 981 q 279 1061 239 1033 q 354 1085 311 1085 q 414 1064 389 1085 q 444 994 444 1039 q 401 914 444 944 q 322 889 364 889 q 265 914 290 889 q 239 981 239 939 m -35 981 q 6 1063 -35 1033 q 81 1086 39 1086 q 143 1063 115 1086 q 171 994 171 1039 q 128 914 171 944 q 50 889 92 889 q -7 913 17 889 q -35 981 -35 939 m 210 -14 q 21 72 21 -14 q 38 114 21 96 q 62 139 50 125 q 78 169 74 153 q 85 426 99 244 q 39 550 79 513 q 17 593 17 571 q 83 665 17 632 q 221 715 143 696 q 303 729 279 729 q 326 701 325 729 q 328 665 328 688 l 328 240 q 349 146 328 181 q 379 108 350 143 q 390 74 390 96 q 210 -14 390 -14 z "},"ñ":{"ha":851,"x_min":32,"x_max":825,"o":"m 88 568 q 54 588 60 582 q 38 632 38 603 q 118 733 38 686 q 274 785 206 785 q 310 738 313 785 q 311 717 310 731 q 326 694 315 694 q 335 699 331 694 q 418 765 376 732 q 525 793 458 793 q 669 763 626 793 q 713 675 706 738 q 714 535 714 663 q 769 272 714 442 q 825 74 825 103 q 611 -12 825 -12 q 501 17 547 -12 q 446 111 446 49 q 459 157 446 126 q 474 204 472 188 q 494 451 494 442 q 425 610 494 610 q 365 544 378 610 q 361 440 361 521 q 378 299 361 390 q 396 172 396 208 q 340 30 396 78 q 189 -18 283 -18 q 82 -1 115 -18 q 32 88 32 22 q 71 232 32 115 q 124 429 114 361 q 111 532 122 496 q 88 568 101 542 m 769 1017 q 722 907 769 957 q 610 857 674 857 q 465 890 557 857 q 347 924 372 924 q 305 885 313 924 q 258 846 297 846 q 178 897 178 846 q 215 992 178 939 q 333 1061 265 1061 q 471 1027 378 1061 q 597 993 564 993 q 643 1028 636 993 q 690 1068 650 1068 q 769 1017 769 1068 z "},"ó":{"ha":707,"x_min":25,"x_max":697,"o":"m 25 358 q 121 647 25 510 q 371 799 226 799 q 615 657 521 799 q 697 374 697 531 q 604 114 697 232 q 365 -14 504 -14 q 113 93 203 -14 q 25 358 25 193 m 440 404 q 424 546 440 474 q 351 649 399 649 q 304 610 321 649 q 290 543 290 579 q 311 424 290 479 q 392 350 339 350 q 426 366 413 350 q 440 404 440 382 m 414 1028 q 467 1004 439 1028 q 499 933 499 975 q 468 885 499 899 q 390 837 458 868 q 290 801 321 806 q 256 797 281 797 q 207 861 207 797 q 269 944 207 900 q 310 974 272 947 q 353 1001 349 1000 q 414 1028 390 1028 z "},"ò":{"ha":717,"x_min":25,"x_max":697,"o":"m 583 861 q 506 797 583 797 q 364 829 468 797 q 236 885 254 864 q 194 933 194 897 q 232 999 194 971 q 307 1028 269 1028 q 482 968 335 1028 q 524 939 500 957 q 563 903 543 921 q 583 861 583 885 m 25 358 q 121 647 25 510 q 371 799 226 799 q 615 657 521 799 q 697 374 697 531 q 604 114 697 232 q 365 -14 504 -14 q 113 93 203 -14 q 25 358 25 193 m 440 404 q 424 546 440 474 q 351 649 399 649 q 304 610 321 649 q 290 543 290 579 q 311 424 290 479 q 392 350 339 350 q 426 366 413 350 q 440 404 440 382 z "},"ô":{"ha":715,"x_min":25,"x_max":697,"o":"m 25 358 q 121 647 25 510 q 371 799 226 799 q 615 657 521 799 q 697 374 697 531 q 604 114 697 232 q 365 -14 504 -14 q 113 93 203 -14 q 25 358 25 193 m 440 404 q 424 546 440 474 q 351 649 399 649 q 304 610 321 649 q 290 543 290 579 q 311 424 290 479 q 392 350 339 350 q 426 366 413 350 q 440 404 440 382 m 674 863 q 608 825 674 824 q 519 854 564 825 q 471 892 511 858 q 425 921 433 921 q 299 838 378 886 q 232 825 271 825 q 171 865 171 824 q 181 889 171 878 q 243 963 189 907 q 321 1029 297 1019 q 425 1074 365 1074 q 510 1039 475 1074 q 597 968 536 1029 q 665 888 658 907 q 674 863 674 878 z "},"ö":{"ha":707,"x_min":25,"x_max":697,"o":"m 25 358 q 121 647 25 510 q 371 799 226 799 q 615 657 521 799 q 697 374 697 531 q 604 114 697 232 q 365 -14 504 -14 q 113 93 203 -14 q 25 358 25 193 m 440 404 q 424 546 440 474 q 351 649 399 649 q 304 610 321 649 q 290 543 290 579 q 311 424 290 479 q 392 350 339 350 q 426 366 413 350 q 440 404 440 382 m 367 981 q 407 1061 367 1033 q 482 1085 440 1085 q 542 1064 517 1085 q 572 994 572 1039 q 529 914 572 944 q 451 889 493 889 q 392 914 418 889 q 367 981 367 939 m 93 981 q 135 1063 93 1033 q 208 1086 167 1086 q 272 1063 243 1086 q 300 994 300 1039 q 256 914 300 944 q 178 889 219 889 q 119 914 146 889 q 93 981 93 939 z "},"õ":{"ha":724,"x_min":25,"x_max":725,"o":"m 25 358 q 121 647 25 510 q 371 799 226 799 q 615 657 521 799 q 697 374 697 531 q 604 114 697 232 q 365 -14 504 -14 q 113 93 203 -14 q 25 358 25 193 m 440 404 q 424 546 440 474 q 351 649 399 649 q 304 610 321 649 q 290 543 290 579 q 311 424 290 479 q 392 350 339 350 q 426 366 413 350 q 440 404 440 382 m 725 1017 q 677 907 725 957 q 565 857 629 857 q 421 890 514 857 q 303 924 328 924 q 262 885 269 924 q 214 846 254 846 q 133 897 133 846 q 171 992 133 939 q 289 1061 221 1061 q 426 1027 333 1061 q 553 993 519 993 q 599 1028 592 993 q 646 1068 606 1068 q 725 1017 725 1068 z "},"ú":{"ha":797,"x_min":14,"x_max":776,"o":"m 61 571 q 46 579 61 571 q 29 589 31 588 q 14 632 14 603 q 94 733 14 686 q 301 796 200 796 q 338 742 344 796 l 301 479 q 303 451 301 464 q 390 371 319 371 q 418 372 403 371 q 468 421 449 378 q 483 490 483 456 q 459 579 483 553 q 435 633 435 606 q 510 753 435 708 q 654 792 574 792 q 714 770 689 792 q 739 715 739 749 q 724 533 739 654 q 708 350 708 411 q 742 289 708 324 q 776 239 776 254 q 722 76 776 161 q 588 -17 663 -17 q 545 11 575 -17 q 501 39 515 39 q 433 14 489 39 q 332 -11 378 -11 q 76 215 76 -11 q 96 450 76 293 q 61 571 92 554 m 460 1028 q 511 1004 483 1028 q 544 933 544 975 q 514 885 544 899 q 435 837 503 868 q 336 801 367 806 q 300 797 326 797 q 253 861 253 797 q 315 944 253 900 q 356 974 318 947 q 397 1001 393 1000 q 460 1028 436 1028 z "},"ù":{"ha":799,"x_min":14,"x_max":776,"o":"m 629 861 q 551 797 629 797 q 408 829 514 797 q 281 885 299 864 q 240 933 240 897 q 277 999 240 971 q 353 1028 314 1028 q 526 968 379 1028 q 568 939 544 957 q 608 903 588 921 q 629 861 629 885 m 61 571 q 46 579 61 571 q 29 589 31 588 q 14 632 14 603 q 94 733 14 686 q 301 796 200 796 q 338 742 344 796 l 301 479 q 303 451 301 464 q 390 371 319 371 q 418 372 403 371 q 468 421 449 378 q 483 490 483 456 q 459 579 483 553 q 435 633 435 606 q 510 753 435 708 q 654 792 574 792 q 714 770 689 792 q 739 715 739 749 q 724 533 739 654 q 708 350 708 411 q 742 289 708 324 q 776 239 776 254 q 722 76 776 161 q 588 -17 663 -17 q 545 11 575 -17 q 501 39 515 39 q 433 14 489 39 q 332 -11 378 -11 q 76 215 76 -11 q 96 450 76 293 q 61 571 92 554 z "},"û":{"ha":803,"x_min":14,"x_max":776,"o":"m 61 571 q 46 579 61 571 q 29 589 31 588 q 14 632 14 603 q 94 733 14 686 q 301 796 200 796 q 338 742 344 796 l 301 479 q 303 451 301 464 q 390 371 319 371 q 418 372 403 371 q 468 421 449 378 q 483 490 483 456 q 459 579 483 553 q 435 633 435 606 q 510 753 435 708 q 654 792 574 792 q 714 770 689 792 q 739 715 739 749 q 724 533 739 654 q 708 350 708 411 q 742 289 708 324 q 776 239 776 254 q 722 76 776 161 q 588 -17 663 -17 q 545 11 575 -17 q 501 39 515 39 q 433 14 489 39 q 332 -11 378 -11 q 76 215 76 -11 q 96 450 76 293 q 61 571 92 554 m 719 863 q 654 825 719 824 q 565 854 610 825 q 517 892 557 858 q 471 921 479 921 q 344 838 424 886 q 278 825 317 825 q 217 865 217 824 q 226 889 217 878 q 289 963 235 907 q 367 1029 343 1019 q 471 1074 411 1074 q 556 1039 521 1074 q 643 968 582 1029 q 711 888 704 907 q 719 863 719 878 z "},"ü":{"ha":799,"x_min":14,"x_max":776,"o":"m 61 571 q 46 579 61 571 q 29 589 31 588 q 14 632 14 603 q 94 733 14 686 q 301 796 200 796 q 338 742 344 796 l 301 479 q 303 451 301 464 q 390 371 319 371 q 418 372 403 371 q 468 421 449 378 q 483 490 483 456 q 459 579 483 553 q 435 633 435 606 q 510 753 435 708 q 654 792 574 792 q 714 770 689 792 q 739 715 739 749 q 724 533 739 654 q 708 350 708 411 q 742 289 708 324 q 776 239 776 254 q 722 76 776 161 q 588 -17 663 -17 q 545 11 575 -17 q 501 39 515 39 q 433 14 489 39 q 332 -11 378 -11 q 76 215 76 -11 q 96 450 76 293 q 61 571 92 554 m 413 981 q 453 1061 413 1033 q 526 1085 485 1085 q 588 1064 563 1085 q 618 994 618 1039 q 574 914 618 944 q 496 889 538 889 q 438 914 464 889 q 413 981 413 939 m 139 981 q 179 1063 139 1033 q 254 1086 213 1086 q 317 1063 289 1086 q 344 994 344 1039 q 301 914 344 944 q 224 889 265 889 q 167 913 190 889 q 139 981 139 939 z "},"†":{"ha":882,"x_min":36,"x_max":878,"o":"m 344 592 q 243 544 294 568 q 138 511 174 511 q 36 686 36 511 q 49 782 36 736 q 106 844 68 844 q 212 807 108 844 q 354 765 315 769 l 357 806 q 338 907 357 867 q 299 958 328 925 q 278 1001 278 982 q 342 1088 278 1057 q 456 1111 392 1111 q 569 1088 519 1111 q 635 1001 635 1057 q 594 923 635 971 q 553 826 553 875 q 557 797 556 821 q 569 774 560 781 q 693 817 611 779 q 778 851 771 851 q 857 792 831 851 q 878 686 878 747 q 776 511 878 511 q 681 551 746 511 q 563 597 615 592 q 571 375 567 486 q 585 142 585 135 q 633 46 589 122 q 671 -97 671 -21 q 474 -240 671 -240 q 329 -185 392 -240 q 274 -92 274 -137 q 313 21 274 -46 q 351 138 351 88 q 344 592 354 557 z "},"°":{"ha":431,"x_min":89,"x_max":410,"o":"m 410 838 q 363 688 410 750 q 249 625 315 625 q 135 687 182 625 q 89 838 89 749 q 136 989 89 926 q 249 1051 183 1051 q 363 989 315 1051 q 410 838 410 926 m 329 839 q 306 914 329 883 q 249 944 282 944 q 192 914 215 944 q 169 839 169 883 q 192 763 169 794 q 249 732 215 732 q 306 764 282 732 q 329 839 329 796 z "},"¢":{"ha":664,"x_min":28,"x_max":665,"o":"m 28 532 q 96 715 28 621 q 247 856 158 803 q 278 915 263 864 q 313 1001 296 976 q 367 1007 343 1007 q 401 1003 385 1007 q 421 999 417 999 q 472 947 472 999 q 471 924 472 939 q 469 903 469 908 q 482 876 469 881 q 571 844 525 861 q 638 803 617 828 q 665 711 665 769 q 633 632 665 663 q 551 601 600 601 q 469 665 511 601 q 394 729 426 729 q 296 668 331 729 q 278 594 278 635 q 339 467 278 519 q 493 401 418 401 q 549 413 514 401 q 603 425 585 425 q 646 358 646 425 q 585 200 646 279 q 450 100 525 121 q 421 51 422 92 q 405 -8 421 6 q 347 -21 389 -21 q 263 15 293 -21 q 258 31 258 22 q 267 65 258 42 q 272 89 275 85 q 166 217 239 151 q 69 325 93 283 q 28 532 28 401 z "},"£":{"ha":769,"x_min":15,"x_max":764,"o":"m 228 344 l 228 351 q 217 507 238 418 q 117 506 128 506 q 78 526 76 508 q 103 600 85 582 q 158 618 121 618 q 213 615 167 618 q 196 722 204 668 q 186 828 186 786 q 514 1100 186 1092 q 671 1075 622 1101 q 739 935 739 1038 q 736 900 739 919 q 633 697 724 754 q 635 756 635 728 q 540 950 635 950 q 483 935 514 950 q 425 785 425 907 q 428 722 425 765 q 428 674 429 688 l 425 625 q 461 625 438 624 q 500 626 490 626 q 574 578 574 626 q 571 561 574 569 q 524 507 563 507 q 481 510 515 507 q 421 514 447 514 q 394 338 414 447 q 456 279 443 286 q 586 251 499 253 q 676 301 633 250 q 729 353 718 353 q 761 308 757 354 q 758 246 764 283 q 665 48 743 122 q 472 -29 586 -26 q 360 1 431 -29 q 260 63 290 32 q 119 -12 190 -11 q 15 104 15 -15 q 17 135 15 118 q 90 275 28 218 q 228 344 147 328 m 235 197 q 203 211 229 211 q 168 208 192 211 q 138 204 144 204 q 85 139 93 203 q 90 99 82 117 q 118 81 99 81 q 186 124 146 82 q 235 197 226 167 z "},"§":{"ha":683,"x_min":36,"x_max":656,"o":"m 653 521 q 542 301 650 389 q 597 210 569 256 q 622 100 624 164 q 541 -103 619 -31 q 331 -176 463 -176 q 150 -135 229 -176 q 53 10 51 -83 q 88 76 54 49 q 158 103 121 103 q 219 65 196 103 q 258 -6 239 31 q 333 -43 286 -43 q 390 -22 367 -43 q 415 31 414 -1 q 317 135 415 89 q 135 231 165 206 q 39 444 36 308 q 151 679 42 586 q 96 764 107 742 q 76 864 75 806 q 165 1053 79 985 q 368 1115 244 1115 q 532 1083 461 1115 q 624 957 625 1039 q 595 892 624 922 q 532 863 567 863 q 456 927 492 863 q 365 992 419 992 q 314 972 335 992 q 293 922 293 953 q 386 824 292 864 q 563 736 531 761 q 653 521 656 663 m 460 451 q 399 538 461 497 q 267 594 310 594 q 230 569 244 594 q 215 519 215 543 q 274 438 214 476 q 410 376 367 376 q 446 404 431 376 q 460 451 460 428 z "},"•":{"ha":675,"x_min":86,"x_max":639,"o":"m 351 324 q 171 390 256 324 q 86 546 86 457 q 178 760 86 642 q 358 878 269 878 q 543 761 447 878 q 639 550 639 644 q 540 390 639 463 q 351 324 449 324 z "},"¶":{"ha":617,"x_min":14,"x_max":600,"o":"m 600 1057 l 600 961 l 549 961 l 549 -36 l 371 -39 l 371 958 l 300 958 l 300 -39 l 196 -39 l 196 583 q 58 661 108 589 q 14 818 14 725 q 63 982 14 915 q 213 1054 117 1054 l 600 1057 z "},"ß":{"ha":721,"x_min":-3,"x_max":694,"o":"m 74 674 q 119 917 74 840 q 336 1015 179 1015 q 507 965 456 1015 q 575 794 558 914 q 561 687 582 751 q 503 575 540 622 q 589 551 543 575 q 694 311 694 496 q 647 103 694 186 q 475 -3 589 -3 q 381 28 421 -3 q 335 113 335 61 q 375 175 335 144 q 451 236 442 225 q 496 350 493 282 q 456 440 497 401 q 379 494 440 456 q 335 542 336 521 q 397 669 331 600 q 464 806 464 739 q 432 881 464 843 q 343 918 394 926 q 261 824 261 906 q 263 803 261 815 q 263 786 263 789 q 288 461 264 681 q 311 136 311 247 q 278 19 311 49 q 158 -11 246 -11 q -3 92 -3 -11 q 15 142 -3 125 q 49 175 47 172 q 76 461 76 217 q 75 592 76 517 q 74 674 74 668 z "},"®":{"ha":824,"x_min":29,"x_max":794,"o":"m 413 1021 q 699 847 589 1021 q 794 511 794 697 q 699 174 794 324 q 411 0 588 0 q 125 174 235 0 q 29 511 29 324 q 125 847 29 697 q 413 1021 235 1021 m 386 710 q 364 688 363 710 l 369 615 q 382 597 371 597 q 426 658 426 597 q 386 710 426 710 m 206 703 q 201 707 206 703 q 196 726 196 711 q 306 781 196 782 q 335 779 321 781 q 413 782 396 782 q 514 760 469 782 q 567 679 567 731 q 497 574 567 613 q 524 542 504 551 q 554 526 539 533 q 618 415 603 488 q 653 317 629 358 q 678 289 663 308 q 726 511 726 396 q 649 788 726 664 q 413 931 557 931 q 175 789 265 931 q 96 511 96 665 q 175 233 96 356 q 411 90 265 90 q 661 254 569 90 q 656 251 657 253 q 607 246 644 250 q 560 242 578 242 q 461 297 489 242 q 436 411 447 326 q 404 507 426 486 l 401 508 q 382 469 379 508 q 400 358 388 433 q 413 338 401 350 q 425 307 425 326 q 372 251 425 264 q 282 247 350 247 q 186 293 186 247 q 197 332 186 317 q 208 346 203 339 q 229 457 217 365 q 240 607 242 554 q 224 692 238 675 q 206 703 217 694 z "},"©":{"ha":824,"x_min":29,"x_max":794,"o":"m 413 1021 q 699 847 589 1021 q 794 511 794 697 q 699 174 794 324 q 411 0 588 0 q 125 174 235 0 q 29 511 29 324 q 125 847 29 697 q 413 1021 235 1021 m 411 90 q 647 233 557 90 q 726 511 726 357 q 649 788 726 664 q 413 931 557 931 q 175 789 265 931 q 96 511 96 665 q 175 233 96 356 q 411 90 265 90 m 592 401 q 546 292 592 331 q 428 254 500 254 q 268 328 332 254 q 204 500 204 403 q 265 688 204 600 q 431 782 333 782 q 494 765 464 782 q 532 747 525 747 q 543 753 536 747 q 554 758 550 758 q 593 656 593 756 q 575 619 593 635 q 536 603 557 603 q 499 634 515 603 q 463 665 483 665 q 397 635 422 665 q 372 568 372 604 q 444 472 372 472 q 503 496 464 472 q 554 519 542 519 q 567 514 561 519 q 592 401 592 485 z "},"™":{"ha":900,"x_min":64,"x_max":869,"o":"m 869 536 q 781 510 869 510 q 693 535 693 510 q 698 556 693 553 q 711 567 703 560 q 725 601 725 576 q 726 714 726 603 q 721 786 726 786 q 701 738 715 786 q 686 685 693 711 l 658 586 q 633 521 636 521 q 594 575 613 521 l 561 688 q 543 729 546 729 q 533 741 540 729 q 522 753 525 753 q 519 738 519 753 q 531 638 519 707 q 539 565 542 576 q 531 529 542 543 q 526 524 531 526 q 517 516 522 522 q 511 510 513 510 q 424 532 424 510 q 430 556 424 553 q 446 564 436 558 q 461 599 461 571 q 472 778 472 621 q 467 861 472 836 q 449 926 467 910 q 436 935 447 931 q 425 949 425 939 q 476 989 425 989 q 579 961 568 989 l 631 807 q 640 776 635 792 q 653 751 649 751 q 671 789 657 751 l 697 869 q 724 946 711 908 q 769 989 744 989 q 869 964 869 989 q 860 940 869 953 q 850 906 851 928 q 844 886 847 899 q 835 825 835 857 q 833 724 832 806 q 838 622 833 639 q 839 597 838 606 q 850 574 842 582 q 860 565 850 572 q 869 536 869 557 m 408 846 q 375 814 408 814 q 343 875 368 822 q 304 913 325 911 q 294 840 294 913 l 294 633 q 314 572 294 593 q 326 565 315 569 q 336 551 336 560 q 315 521 336 532 q 274 510 293 510 q 131 540 131 510 q 138 566 131 563 q 159 576 146 569 q 172 614 172 582 l 178 829 q 168 913 181 913 q 128 875 149 913 q 92 813 94 815 q 74 822 83 813 q 64 842 64 831 q 78 928 64 871 q 106 990 93 990 q 172 985 154 985 l 306 985 q 343 988 319 985 q 369 992 367 992 q 396 929 382 992 q 408 846 408 874 z "},"´":{"ha":426,"x_min":113,"x_max":404,"o":"m 319 1028 q 371 1004 343 1028 q 404 933 404 975 q 372 885 404 899 q 294 837 363 868 q 196 801 226 806 q 160 797 185 797 q 113 861 113 797 q 175 944 113 900 q 215 974 176 947 q 257 1001 253 1000 q 319 1028 296 1028 z "},"¨":{"ha":579,"x_min":76,"x_max":554,"o":"m 349 981 q 389 1061 349 1033 q 464 1085 422 1085 q 525 1064 499 1085 q 554 994 554 1039 q 511 914 554 944 q 433 889 475 889 q 376 913 400 889 q 349 981 349 939 m 76 981 q 117 1063 76 1033 q 192 1086 150 1086 q 251 1064 226 1086 q 282 994 282 1039 q 239 914 282 944 q 161 889 201 889 q 102 914 128 889 q 76 981 76 939 z "},"≠":{"ha":2390,"x_min":8,"x_max":2442,"o":"m 161 300 q 138 290 153 290 q 117 293 125 290 q 67 424 100 351 l 63 428 q 61 393 61 415 q 94 290 61 324 q 50 288 74 288 q 22 290 36 288 q 50 393 50 335 q 42 460 50 424 q 32 482 39 474 q 8 503 24 499 q 44 507 17 507 l 60 507 q 76 504 65 507 q 100 432 83 481 q 126 383 111 399 q 126 424 126 424 q 121 469 126 444 q 96 508 111 494 q 153 510 113 513 q 140 400 140 454 q 161 300 140 336 m 264 299 q 235 285 254 285 q 190 329 207 285 q 178 396 178 363 q 190 468 178 435 q 239 513 207 513 q 281 464 265 513 q 290 394 290 429 q 288 354 290 371 q 264 299 282 324 m 213 403 q 244 328 214 328 q 263 347 256 328 q 269 375 269 363 q 267 404 272 390 q 250 418 261 418 q 231 388 231 418 q 244 361 231 361 q 256 372 253 358 q 250 371 254 371 q 235 390 235 371 q 239 406 235 399 q 250 411 243 414 q 265 382 265 411 q 246 349 265 349 q 225 363 232 347 q 219 389 219 372 q 250 433 225 433 q 267 424 261 433 l 272 417 l 272 424 q 265 456 269 444 q 243 476 256 476 q 219 446 228 476 q 213 403 213 422 m 333 401 q 306 453 306 401 q 319 492 306 472 q 353 513 333 513 q 383 510 363 513 q 415 508 404 508 q 442 514 436 508 q 444 499 444 506 q 443 474 444 485 l 443 450 q 438 457 442 453 q 433 463 435 461 q 413 472 424 472 q 406 468 408 472 q 404 417 404 460 q 406 357 404 368 q 422 290 410 318 q 378 289 406 289 q 344 292 351 289 q 351 301 347 297 q 358 311 354 306 q 371 417 371 335 l 371 447 q 367 472 371 472 l 351 472 q 319 435 319 472 q 324 420 319 426 q 336 414 329 414 q 346 421 343 414 q 343 421 344 421 q 340 419 342 419 q 325 440 325 419 q 328 456 325 450 q 340 463 331 463 q 358 438 358 463 q 354 418 358 426 q 333 401 349 401 m 604 386 q 597 382 599 383 q 596 358 596 374 q 613 289 596 318 q 539 283 583 288 l 538 283 q 557 336 546 304 q 561 392 561 363 l 561 426 q 546 499 561 461 q 542 506 544 500 q 540 508 542 507 q 572 510 551 508 q 604 511 593 511 q 651 497 640 511 q 663 444 663 482 q 646 403 665 424 q 604 386 626 382 m 603 478 q 599 478 601 478 q 593 476 594 476 l 593 464 q 600 413 593 431 q 625 447 625 417 q 603 478 625 478 m 790 403 q 790 415 790 403 q 782 479 790 436 q 774 497 778 485 q 778 503 772 503 q 797 507 783 504 q 818 510 811 510 q 826 506 826 510 l 826 504 q 814 447 814 494 l 814 368 q 768 285 814 285 q 696 411 696 285 l 696 436 q 697 457 697 446 q 682 496 697 488 q 685 504 678 501 q 707 507 699 507 q 727 508 715 507 q 746 510 739 510 q 749 511 747 511 l 753 511 q 756 508 754 511 q 738 467 742 501 q 738 449 738 464 q 736 418 736 432 q 749 328 736 347 q 769 322 756 321 q 789 357 785 325 q 790 403 789 381 m 956 299 q 903 286 939 286 q 875 290 888 286 q 851 296 871 290 q 865 397 863 315 q 867 456 867 439 q 863 485 867 474 q 851 499 860 497 q 843 503 843 500 l 843 506 q 886 513 875 513 q 936 500 913 513 q 963 464 960 488 q 963 443 965 454 q 936 400 963 418 q 965 383 954 394 q 976 346 976 372 q 956 299 976 318 m 901 475 l 899 475 l 899 426 q 904 413 899 413 q 914 424 908 413 q 919 456 919 436 q 913 469 919 464 q 901 475 907 475 m 904 381 q 896 379 899 381 q 897 360 896 364 q 900 314 897 331 q 916 322 904 313 q 928 349 928 331 q 904 381 928 381 m 1060 360 q 1061 357 1060 360 q 1064 335 1061 354 q 1068 326 1067 329 q 1078 324 1069 324 q 1106 349 1094 324 q 1111 358 1107 350 q 1118 369 1115 365 q 1117 342 1121 357 q 1113 289 1117 322 l 1021 289 q 1006 290 1011 289 q 1032 415 1032 347 q 1004 506 1032 478 q 1068 510 1021 506 q 1060 446 1060 510 q 1060 360 1060 365 m 1214 476 q 1207 397 1207 451 q 1208 347 1207 371 q 1214 318 1210 340 q 1219 290 1219 301 q 1210 289 1218 288 q 1188 288 1196 289 l 1164 288 q 1160 290 1164 288 q 1179 392 1179 338 q 1164 481 1179 440 q 1189 483 1172 483 l 1204 483 q 1214 476 1215 483 m 1218 517 q 1192 489 1204 514 q 1164 515 1182 511 q 1181 529 1172 519 q 1189 546 1189 539 q 1194 540 1192 544 q 1200 531 1199 532 q 1218 517 1213 518 m 1194 508 q 1199 515 1199 511 q 1196 523 1199 518 q 1190 525 1193 528 q 1185 518 1185 524 q 1187 512 1185 515 q 1194 508 1189 508 m 1333 426 q 1322 439 1325 426 q 1321 432 1321 438 q 1325 422 1321 426 q 1333 417 1329 417 q 1356 450 1356 417 q 1331 481 1356 481 q 1313 472 1321 481 q 1306 460 1310 469 q 1294 404 1294 433 q 1329 342 1294 342 q 1347 354 1340 342 q 1354 376 1354 367 q 1354 383 1354 379 q 1353 389 1353 388 q 1369 356 1369 381 q 1321 288 1369 288 q 1272 325 1289 288 q 1258 390 1258 354 q 1274 465 1258 426 q 1326 511 1292 511 q 1368 456 1368 511 q 1360 425 1368 440 q 1336 406 1350 406 q 1319 416 1328 406 q 1311 436 1311 426 q 1332 468 1311 468 q 1343 460 1339 468 q 1346 444 1347 453 q 1341 433 1346 439 q 1333 426 1336 426 m 1524 286 q 1464 299 1497 286 q 1489 389 1489 331 q 1488 460 1489 446 q 1472 499 1485 482 q 1517 511 1476 507 q 1550 510 1531 513 q 1603 394 1603 493 q 1599 350 1603 375 q 1524 286 1582 286 m 1525 322 q 1532 321 1528 321 q 1543 324 1538 321 q 1557 364 1553 336 q 1556 424 1557 389 q 1551 461 1554 443 q 1532 490 1546 490 q 1525 486 1528 490 l 1525 482 q 1532 361 1535 390 q 1525 322 1531 344 m 1721 299 q 1692 285 1711 285 q 1649 329 1667 285 q 1635 396 1635 364 q 1649 467 1635 432 q 1696 513 1665 513 q 1738 464 1722 513 q 1747 394 1747 429 q 1744 354 1747 365 q 1721 299 1736 319 m 1669 403 q 1701 328 1671 328 q 1728 375 1721 328 q 1707 418 1728 418 q 1688 388 1688 418 q 1703 361 1688 361 q 1713 372 1710 358 q 1707 371 1711 371 q 1695 378 1699 371 q 1692 390 1692 385 q 1696 406 1692 399 q 1707 411 1700 414 q 1722 382 1722 411 q 1703 349 1722 349 q 1682 363 1689 347 q 1678 389 1676 372 q 1707 433 1678 433 q 1724 424 1718 433 l 1729 417 l 1729 424 q 1700 476 1722 476 q 1676 446 1685 476 q 1669 403 1669 422 m 1828 372 q 1822 354 1828 361 q 1808 347 1817 347 q 1799 367 1796 347 q 1808 356 1800 356 q 1824 374 1824 356 q 1819 390 1824 383 q 1808 396 1815 396 q 1789 365 1789 396 q 1794 346 1789 354 q 1810 338 1800 338 q 1835 369 1835 338 q 1808 414 1840 414 q 1784 401 1796 414 q 1769 374 1772 388 q 1786 297 1765 318 q 1814 285 1794 285 q 1849 307 1836 285 q 1863 353 1863 329 q 1865 392 1863 365 q 1868 432 1868 419 q 1881 346 1881 407 l 1881 318 q 1871 294 1878 301 q 1890 293 1876 290 q 1896 293 1892 293 q 1906 292 1901 292 l 1917 292 q 1929 306 1929 292 q 1928 325 1929 313 q 1926 344 1926 338 q 1939 435 1926 388 q 1951 342 1951 404 q 1943 293 1951 308 q 1950 290 1944 290 q 1965 289 1956 289 q 1982 290 1978 289 q 1960 388 1969 319 q 1956 457 1956 424 q 1963 507 1956 493 q 1931 510 1954 510 q 1907 508 1911 510 q 1914 479 1914 485 q 1914 469 1914 478 q 1913 453 1913 460 q 1900 386 1907 390 q 1888 476 1888 418 q 1890 490 1888 481 q 1892 506 1892 500 q 1839 510 1867 510 l 1828 510 q 1818 508 1824 508 q 1844 401 1844 479 q 1813 328 1844 328 q 1792 341 1800 328 q 1783 367 1783 354 q 1790 392 1783 381 q 1810 403 1797 403 q 1824 390 1819 403 q 1828 372 1828 378 m 2163 297 q 2138 290 2163 290 q 2106 289 2135 289 q 2089 293 2093 289 q 2108 332 2108 303 q 2093 349 2108 349 q 2085 347 2092 349 q 2069 301 2078 325 q 2035 278 2060 278 q 2004 303 2015 278 q 1994 346 1994 324 q 2006 380 1994 363 q 2033 397 2018 397 q 2052 385 2044 397 q 2060 361 2060 372 q 2053 337 2060 351 q 2035 322 2046 322 q 2014 349 2014 322 q 2031 376 2014 376 q 2041 367 2038 376 q 2044 353 2044 357 q 2031 338 2044 338 l 2026 338 q 2036 333 2033 333 q 2047 342 2044 333 q 2049 358 2049 351 q 2033 382 2049 382 q 2016 369 2022 382 q 2010 346 2010 357 q 2015 324 2010 333 q 2032 315 2021 315 q 2068 369 2057 315 q 2075 446 2075 403 q 2043 504 2075 493 q 2074 510 2047 507 q 2106 510 2106 510 l 2124 510 q 2121 472 2121 468 q 2133 381 2121 439 q 2163 297 2147 317 m 2101 381 q 2098 402 2101 383 q 2090 422 2094 421 q 2090 414 2090 421 q 2089 401 2089 407 q 2086 382 2086 385 q 2088 377 2086 379 q 2099 375 2089 375 q 2101 381 2101 376 m 2250 476 q 2243 397 2243 451 q 2244 347 2243 371 q 2250 318 2246 340 q 2256 290 2256 301 q 2246 289 2253 288 q 2222 288 2232 289 l 2200 288 q 2196 290 2199 288 q 2215 392 2215 342 q 2200 481 2215 435 q 2225 483 2208 483 l 2240 483 q 2250 476 2251 483 m 2254 517 q 2228 489 2240 514 q 2200 515 2218 511 q 2216 529 2208 519 q 2225 546 2224 539 q 2231 540 2228 544 q 2236 531 2235 532 q 2254 517 2246 519 m 2231 508 q 2235 515 2235 511 q 2231 522 2235 518 q 2225 525 2228 526 q 2221 518 2221 524 q 2231 508 2221 508 m 2442 300 q 2418 290 2436 290 q 2397 293 2407 290 q 2347 424 2381 353 q 2343 428 2346 428 q 2342 393 2342 415 q 2375 290 2342 324 q 2331 288 2356 288 q 2304 290 2315 288 q 2331 393 2331 336 q 2322 460 2331 424 q 2314 482 2319 474 q 2289 503 2304 499 q 2325 507 2297 507 l 2340 507 q 2357 504 2346 507 q 2379 440 2368 472 q 2408 383 2396 394 q 2408 424 2408 424 q 2376 508 2406 482 q 2435 510 2394 513 q 2421 400 2421 456 q 2442 300 2421 336 m 685 607 q 653 611 667 611 q 638 610 650 611 l 615 610 q 635 732 635 664 q 622 804 635 774 q 607 822 621 814 q 703 831 624 831 l 708 831 q 711 779 708 824 l 711 779 q 703 786 710 779 q 690 796 696 793 q 668 799 685 799 l 665 799 q 663 774 663 790 q 667 740 663 749 l 668 740 q 704 758 686 740 q 706 700 704 726 q 674 715 686 715 q 663 710 663 715 q 679 619 664 649 q 685 607 682 617 m 796 754 q 786 758 790 754 q 781 796 781 775 q 792 806 781 806 q 807 797 801 806 q 813 778 813 789 q 808 762 813 769 q 796 754 804 754 m 876 669 q 870 685 876 678 q 856 692 864 692 q 839 682 844 692 q 835 661 833 668 q 838 646 835 651 q 847 636 843 636 q 863 653 860 636 q 858 673 864 668 q 847 678 853 678 q 854 683 849 683 q 868 656 868 683 q 864 638 868 646 q 851 629 860 629 q 832 649 836 629 q 814 721 832 703 q 840 738 824 724 q 847 768 847 746 q 793 832 847 832 q 772 831 782 832 l 751 831 q 735 832 740 831 q 753 764 753 806 q 750 686 753 708 q 733 611 744 640 q 749 608 740 610 q 801 614 793 608 q 781 713 781 628 q 785 722 781 722 l 786 722 q 801 675 801 722 q 801 669 801 674 q 800 663 800 665 l 800 656 q 810 622 800 636 q 839 607 821 607 q 861 615 851 607 q 875 635 871 624 q 876 669 881 653 m 999 689 q 1000 681 1000 688 q 996 617 999 669 q 993 611 996 614 q 896 610 969 610 l 889 610 q 915 739 915 685 q 911 785 915 771 q 886 826 907 800 q 989 833 944 832 q 990 809 989 825 q 992 785 992 793 l 992 782 q 983 787 988 782 q 972 797 979 792 q 951 801 965 801 l 946 801 q 942 771 942 789 q 944 743 942 754 q 949 742 946 742 q 972 751 961 742 q 986 763 982 761 l 986 715 q 985 703 986 708 q 956 717 971 717 q 942 703 942 717 q 943 681 942 692 q 943 668 943 669 q 963 646 947 646 q 999 689 982 646 m 1139 689 q 1140 681 1140 688 q 1136 617 1139 669 q 1133 611 1136 611 q 1036 610 1111 610 l 1028 610 q 1054 739 1054 679 q 1049 787 1054 769 q 1026 826 1043 804 q 1128 833 1085 832 q 1131 808 1128 833 q 1132 794 1131 803 q 1132 785 1132 788 l 1132 782 q 1122 788 1129 782 q 1111 796 1114 794 q 1092 801 1104 801 l 1085 801 q 1082 771 1082 793 q 1083 745 1082 749 q 1089 742 1085 742 q 1125 763 1104 742 l 1125 739 q 1126 715 1126 726 q 1126 710 1126 714 q 1125 703 1125 706 q 1094 717 1111 717 q 1082 703 1082 717 q 1083 668 1082 675 q 1103 646 1088 646 q 1139 689 1122 646 m 1215 744 q 1210 760 1215 750 q 1196 769 1204 769 q 1185 750 1185 769 q 1194 761 1188 761 q 1211 740 1211 761 q 1207 727 1211 733 q 1194 721 1203 721 q 1181 729 1186 721 q 1175 751 1175 738 q 1181 769 1175 760 q 1196 779 1188 779 q 1215 768 1207 779 q 1222 747 1222 757 q 1194 703 1222 703 q 1171 715 1182 703 q 1158 742 1160 726 q 1163 785 1157 771 q 1207 832 1181 832 q 1242 810 1229 832 q 1256 764 1256 788 q 1258 724 1256 761 q 1260 690 1261 692 q 1272 767 1272 693 q 1257 819 1272 804 q 1278 821 1263 821 l 1304 821 q 1317 808 1317 821 q 1314 790 1317 807 q 1314 781 1314 786 q 1313 772 1313 774 q 1326 689 1313 735 q 1335 729 1331 690 q 1339 775 1339 763 q 1331 824 1339 810 q 1338 827 1332 826 q 1353 828 1343 828 q 1369 826 1364 828 q 1350 749 1358 807 q 1342 667 1342 697 q 1349 615 1342 640 q 1318 613 1346 613 q 1294 614 1303 613 q 1301 643 1301 638 q 1299 669 1301 636 q 1288 731 1294 726 q 1275 640 1275 700 q 1277 626 1275 636 q 1279 611 1279 617 q 1213 607 1254 607 l 1203 607 q 1192 608 1197 608 q 1231 715 1231 649 q 1200 789 1231 789 q 1179 776 1188 789 q 1171 750 1171 763 q 1196 714 1171 714 q 1210 725 1204 714 q 1215 744 1215 736 m 1543 618 q 1518 610 1543 611 q 1485 610 1518 610 q 1469 614 1472 610 q 1489 651 1489 624 q 1474 669 1489 669 q 1465 668 1472 669 q 1443 611 1460 647 q 1415 599 1433 599 q 1385 624 1396 599 q 1375 667 1375 644 q 1385 700 1375 683 q 1414 717 1396 717 q 1432 705 1425 717 q 1439 681 1439 693 q 1433 656 1439 669 q 1415 643 1426 643 q 1399 651 1404 643 q 1394 669 1394 658 q 1411 696 1394 696 q 1422 688 1418 696 q 1425 674 1425 679 q 1411 658 1425 658 l 1407 658 q 1417 654 1411 654 q 1429 679 1429 654 q 1413 703 1429 703 q 1389 667 1389 703 q 1394 644 1389 653 q 1413 636 1400 636 q 1447 690 1436 636 q 1456 765 1456 728 q 1422 825 1456 815 q 1453 829 1429 826 q 1486 831 1476 832 l 1504 829 q 1501 792 1501 790 q 1514 701 1501 758 q 1543 618 1528 638 m 1482 701 q 1478 724 1482 708 q 1471 743 1476 732 q 1469 722 1471 736 q 1467 701 1467 708 q 1468 697 1467 697 q 1479 696 1469 696 q 1482 701 1482 697 m 1621 754 q 1611 758 1615 754 q 1606 796 1606 775 q 1617 806 1606 806 q 1638 778 1638 806 q 1621 754 1638 754 m 1701 669 q 1695 685 1701 678 q 1681 692 1689 692 q 1665 682 1669 692 q 1660 661 1660 672 q 1664 647 1660 657 q 1672 636 1668 636 q 1688 653 1688 636 q 1684 673 1690 668 q 1672 678 1678 678 q 1679 683 1674 683 q 1694 656 1694 683 q 1676 629 1694 629 q 1657 649 1661 629 q 1639 721 1657 703 q 1667 738 1649 724 q 1672 768 1672 747 q 1660 814 1672 796 q 1619 832 1649 832 q 1597 831 1607 832 l 1576 831 q 1560 832 1565 831 q 1578 764 1578 806 q 1575 686 1578 708 q 1558 611 1569 640 q 1575 608 1575 608 q 1626 614 1618 608 q 1606 713 1606 628 q 1610 722 1606 722 l 1611 722 q 1626 675 1626 722 q 1625 663 1626 667 l 1625 656 q 1635 623 1625 639 q 1664 607 1646 607 q 1700 635 1689 607 q 1701 669 1706 653 m 1838 689 q 1839 681 1839 688 q 1835 617 1838 669 q 1832 611 1835 611 q 1735 610 1810 610 l 1728 610 q 1754 739 1754 685 q 1749 786 1754 764 q 1725 826 1742 804 q 1828 833 1783 832 q 1829 809 1828 825 q 1831 785 1831 793 l 1831 782 q 1820 788 1826 782 q 1811 796 1814 794 q 1790 801 1804 801 l 1783 801 q 1781 771 1781 785 q 1783 745 1781 749 q 1788 742 1785 742 q 1808 749 1800 742 q 1824 763 1815 756 l 1824 739 q 1825 715 1825 726 q 1825 710 1825 714 q 1824 703 1824 706 q 1794 717 1810 717 q 1781 703 1781 717 q 1782 668 1781 675 q 1801 646 1786 646 q 1838 689 1821 646 z "},"Æ":{"ha":1326,"x_min":11,"x_max":1301,"o":"m 583 661 q 558 735 583 672 q 496 792 535 792 q 446 732 472 792 q 424 653 424 681 q 460 640 424 640 q 488 642 468 640 q 515 644 507 644 q 550 640 543 644 q 583 661 583 643 m 853 1040 q 1007 1047 900 1040 q 1158 1054 1114 1054 q 1250 979 1218 1054 q 1276 853 1276 921 q 1258 781 1276 810 q 1199 744 1238 744 q 1135 779 1161 744 q 1075 844 1096 831 q 922 881 1022 881 q 893 881 894 881 q 874 847 879 875 q 871 828 871 838 q 917 753 871 782 q 1013 728 957 728 q 1040 743 1024 728 q 1065 758 1056 758 q 1086 728 1086 758 q 1074 635 1086 679 q 1021 572 1056 572 q 980 607 1000 572 q 921 642 960 642 q 875 568 875 642 q 1078 394 875 394 q 1106 399 1085 394 q 1132 400 1122 403 q 1149 399 1140 399 q 1206 432 1183 399 q 1242 465 1229 465 q 1278 438 1263 465 q 1294 386 1294 410 q 1298 315 1294 372 q 1301 219 1301 257 q 1231 0 1301 50 q 1056 -18 1204 -18 q 942 -19 1014 -18 q 825 -19 882 -21 l 563 -18 q 525 0 533 -17 q 521 50 521 11 q 553 140 521 88 l 578 182 q 603 340 599 214 l 606 432 q 467 472 560 472 q 428 465 467 472 q 376 349 376 435 q 403 240 376 286 q 454 181 414 224 q 481 126 481 151 q 381 3 481 31 q 204 -11 332 -11 q 13 85 13 -11 q 86 222 11 169 q 240 490 174 285 q 297 803 297 669 q 279 889 297 854 q 247 929 269 908 q 229 954 229 946 q 378 1033 229 1000 q 563 1056 504 1061 q 853 1040 728 1040 z "},"Ø":{"ha":919,"x_min":33,"x_max":890,"o":"m 311 436 l 461 886 q 422 897 443 897 q 335 821 378 897 q 294 704 296 753 q 311 436 289 529 m 565 693 l 431 283 q 542 344 488 283 q 617 533 603 417 q 619 574 619 556 q 601 651 619 621 q 565 693 594 663 m 706 1065 q 667 994 706 1064 q 839 717 779 907 q 890 374 890 556 q 758 81 890 199 q 457 -31 633 -31 q 349 -17 400 -31 q 206 -69 314 -69 q 94 -35 94 -69 q 114 13 94 -25 q 161 100 154 88 q 33 471 33 244 q 142 864 33 696 q 479 1058 267 1058 q 528 1054 503 1058 q 633 1100 553 1100 q 706 1065 706 1100 z "},"±":{"ha":690,"x_min":103,"x_max":660,"o":"m 660 456 q 554 415 660 415 l 474 415 q 447 275 447 415 q 408 240 447 254 q 346 231 378 231 q 315 331 315 231 q 289 415 315 415 l 136 415 q 103 501 103 415 q 136 589 103 589 l 289 589 q 315 672 315 589 q 346 774 315 774 q 442 767 436 774 q 447 624 447 760 q 590 589 447 589 l 625 553 q 660 456 660 553 m 660 26 q 568 -14 660 -14 l 194 -14 q 103 26 103 -14 q 111 110 103 68 q 136 160 121 160 l 625 160 q 651 110 642 160 q 660 26 660 68 z "},"¥":{"ha":849,"x_min":22,"x_max":903,"o":"m 722 328 q 631 321 679 321 l 613 321 q 643 233 631 250 q 681 192 661 214 q 700 147 700 169 q 642 7 700 33 q 406 -14 599 -14 q 199 17 250 -14 q 147 138 147 49 q 172 183 147 158 q 210 224 204 214 q 238 326 221 247 q 149 328 203 326 q 79 357 79 335 q 110 421 79 388 q 182 449 126 439 q 260 449 196 449 q 271 517 265 482 l 267 517 q 149 518 219 517 q 79 547 79 525 q 118 611 79 575 q 182 640 139 632 q 239 639 193 640 q 217 686 225 663 q 157 801 192 732 q 117 839 143 819 q 72 871 72 871 q 38 892 60 878 q 22 939 22 908 q 94 1024 22 996 q 242 1046 153 1047 q 415 1017 364 1044 q 457 949 457 994 q 444 908 457 921 q 418 885 432 896 q 397 856 404 874 q 393 817 389 838 q 467 731 410 731 q 518 781 488 731 q 542 839 525 806 q 554 872 554 864 q 549 879 554 876 q 531 892 544 882 q 514 939 514 908 q 733 1046 514 1046 q 903 960 903 1046 q 890 919 903 932 q 865 897 876 907 q 819 874 853 888 q 755 844 768 854 q 719 804 742 835 q 643 721 654 733 q 585 635 601 672 l 631 635 q 724 635 683 633 q 774 635 751 635 q 794 636 794 636 q 801 618 801 633 q 792 567 801 597 q 775 529 783 536 q 722 519 774 528 q 631 511 681 511 q 576 513 621 511 q 588 444 582 478 l 631 444 q 724 443 683 443 q 774 444 751 444 q 794 444 794 444 q 801 426 801 443 q 792 377 801 407 q 776 340 783 347 q 756 332 769 333 q 722 328 725 329 z "},"µ":{"ha":808,"x_min":14,"x_max":776,"o":"m 61 571 q 46 579 61 571 q 29 589 31 588 q 14 632 14 603 q 94 733 14 686 q 301 796 200 796 q 338 742 344 796 l 301 479 q 303 451 301 464 q 390 371 319 371 q 418 372 403 371 q 468 421 449 378 q 483 490 483 456 q 459 579 483 553 q 435 633 435 606 q 510 753 435 708 q 654 792 574 792 q 714 770 689 792 q 739 715 739 749 q 724 533 739 654 q 708 350 708 411 q 742 289 708 324 q 776 239 776 254 q 722 76 776 161 q 588 -17 663 -17 q 545 11 575 -17 q 501 39 515 39 q 433 14 489 39 q 332 -11 378 -11 q 219 35 265 -11 q 207 -60 221 -1 q 169 -136 197 -96 q 140 -178 156 -157 q 97 -201 132 -201 q 56 -193 76 -201 q 18 -117 18 -178 q 32 19 18 -107 q 76 232 36 35 q 92 379 82 282 q 96 454 93 404 q 61 571 92 554 z "},"μ":{"ha":808,"x_min":14,"x_max":776,"o":"m 61 571 q 46 579 61 571 q 29 589 31 588 q 14 632 14 603 q 94 733 14 686 q 301 796 200 796 q 338 742 344 796 l 301 479 q 303 451 301 464 q 390 371 319 371 q 418 372 403 371 q 468 421 449 378 q 483 490 483 456 q 459 579 483 553 q 435 633 435 606 q 510 753 435 708 q 654 792 574 792 q 714 770 689 792 q 739 715 739 749 q 724 533 739 654 q 708 350 708 411 q 742 289 708 324 q 776 239 776 254 q 722 76 776 161 q 588 -17 663 -17 q 545 11 575 -17 q 501 39 515 39 q 433 14 489 39 q 332 -11 378 -11 q 219 35 265 -11 q 207 -60 221 -1 q 169 -136 197 -96 q 140 -178 156 -157 q 97 -201 132 -201 q 56 -193 76 -201 q 18 -117 18 -178 q 32 19 18 -107 q 76 232 36 35 q 92 379 82 282 q 96 454 93 404 q 61 571 92 554 z "},"∂":{"ha":1408,"x_min":22,"x_max":1458,"o":"m 114 522 q 97 461 115 475 l 106 454 q 129 360 128 428 q 89 301 131 303 q 28 300 69 301 q 40 529 43 411 l 38 532 l 22 521 q 24 563 24 540 q 85 599 44 578 q 114 522 111 599 m 54 340 l 63 335 l 79 336 q 100 361 103 338 l 100 385 q 93 426 97 413 q 65 433 85 433 l 58 431 l 57 390 q 54 340 56 357 m 90 508 q 89 538 90 547 q 86 549 88 546 q 76 553 85 551 l 68 549 l 56 544 q 54 501 53 517 q 57 471 54 483 q 89 486 85 478 q 90 508 89 497 m 160 531 l 140 525 q 140 492 139 524 q 144 436 142 476 q 164 439 151 436 l 172 449 q 174 486 174 461 q 160 531 174 522 m 196 310 q 178 364 188 322 q 156 403 171 399 q 158 372 157 410 q 163 342 158 363 q 167 311 167 322 l 167 304 q 139 303 149 301 q 124 515 132 374 l 122 554 q 153 560 132 557 q 175 560 175 560 q 200 463 196 550 q 178 419 201 433 q 201 360 199 404 q 215 343 207 346 l 226 344 q 310 338 256 343 l 317 297 q 196 310 260 299 m 243 603 q 304 351 253 506 l 269 357 q 257 408 267 375 l 239 410 q 243 375 243 376 l 243 357 l 218 360 l 217 376 q 212 472 214 410 q 207 568 210 535 l 196 576 q 124 568 171 576 l 128 608 q 171 613 156 614 l 218 610 q 243 603 224 610 m 233 447 q 242 446 235 446 q 251 447 247 446 q 231 568 243 501 l 224 569 l 233 447 m 318 510 q 339 403 322 474 q 358 294 356 332 l 351 294 q 325 296 343 293 q 302 408 318 333 q 279 519 286 482 q 318 510 293 518 m 279 593 q 310 586 290 593 q 313 528 308 575 q 300 532 310 528 l 278 538 l 278 551 q 279 593 279 538 m 433 557 q 458 417 440 506 q 486 281 481 321 q 469 281 482 279 q 456 279 463 278 q 374 453 404 392 l 375 442 l 406 288 q 375 292 385 292 q 349 442 364 360 l 332 518 l 319 525 q 315 585 315 576 q 353 575 340 579 q 449 364 388 478 q 404 575 433 433 l 432 568 l 433 557 m 860 468 l 829 463 l 808 460 l 814 417 q 863 428 831 421 q 864 414 864 424 q 865 399 864 404 l 844 394 q 815 388 832 394 l 817 353 l 821 317 q 869 338 840 324 l 869 300 q 794 274 844 289 q 792 363 796 332 l 785 488 l 803 489 l 829 492 q 858 494 851 492 l 860 468 m 908 511 l 885 511 l 886 488 q 893 436 889 471 q 901 436 896 436 q 911 435 907 435 q 931 474 931 435 q 919 508 929 486 l 908 511 m 1026 333 l 1046 335 l 1047 311 q 1031 310 1042 311 q 979 313 1025 310 q 943 315 964 308 q 927 338 929 317 q 922 379 925 358 q 908 401 919 400 l 897 399 l 901 360 l 908 311 l 894 308 l 879 303 l 874 442 q 868 508 872 460 l 828 508 l 804 507 l 800 547 q 883 549 842 547 q 940 528 931 547 q 953 483 951 517 q 939 431 958 453 l 931 421 q 949 361 946 411 q 961 338 950 342 q 1004 333 972 333 l 1026 333 m 599 518 q 550 519 565 519 q 532 517 543 519 q 542 479 536 507 q 551 435 544 467 q 606 425 568 433 l 607 411 l 611 385 q 564 389 601 385 q 565 365 565 374 q 568 328 565 356 l 635 310 l 635 260 q 544 276 607 265 q 513 500 538 378 q 507 521 510 511 l 485 522 q 472 564 481 538 q 597 554 518 561 q 599 518 599 543 m 610 554 l 638 556 q 679 556 649 554 q 711 408 706 436 q 735 260 728 326 q 701 256 717 256 l 703 274 l 699 328 q 674 325 685 329 q 668 254 668 322 l 656 254 l 643 257 q 644 438 646 390 q 642 511 644 457 l 610 518 l 610 554 m 660 513 q 665 415 656 510 l 669 364 q 686 365 675 365 l 696 367 q 669 511 681 468 l 660 513 m 736 513 l 729 513 q 703 514 721 511 l 699 533 l 693 551 l 721 551 q 751 550 739 551 l 788 549 q 793 500 789 533 l 767 501 q 778 303 778 404 l 778 267 q 750 263 769 264 q 749 325 750 283 q 740 425 749 331 q 736 513 735 501 m 1044 374 q 1011 342 1040 347 q 961 381 965 342 l 960 393 q 961 399 960 396 q 961 404 961 403 l 982 399 q 1006 364 983 365 q 1021 382 1021 367 q 1007 408 1021 400 q 978 425 978 425 q 961 472 964 438 q 972 492 960 483 q 994 501 983 501 q 1040 449 1038 503 l 1017 450 q 1014 468 1015 460 q 1003 479 1013 476 q 983 464 983 483 q 999 440 983 450 q 1033 415 1029 421 q 1044 374 1049 400 m 963 543 l 961 535 l 971 536 l 971 515 l 981 517 l 981 536 l 990 538 l 992 547 l 963 543 m 997 547 l 996 519 l 1003 519 l 1004 536 l 1011 521 l 1017 533 l 1021 519 l 1026 521 l 1026 550 l 1018 549 l 1011 535 l 1006 547 l 997 547 m 1201 388 q 1190 336 1196 349 q 1154 318 1179 318 q 1104 404 1104 318 q 1115 469 1104 440 q 1156 504 1131 504 q 1203 433 1200 504 q 1171 433 1186 436 q 1150 467 1165 467 q 1131 418 1131 467 q 1150 364 1131 364 q 1165 389 1165 364 q 1201 388 1153 388 m 1217 406 q 1274 500 1217 500 q 1326 411 1326 500 q 1268 318 1326 318 q 1217 406 1217 318 m 1268 465 q 1240 413 1240 465 q 1267 360 1240 360 q 1294 404 1294 360 l 1294 428 q 1268 465 1294 465 m 1403 322 q 1382 324 1400 324 l 1378 324 q 1363 431 1374 375 q 1360 325 1363 383 q 1338 326 1346 328 q 1344 496 1342 364 q 1383 493 1350 493 q 1394 389 1389 458 q 1407 492 1401 422 q 1458 490 1429 488 q 1454 321 1454 324 q 1419 322 1450 322 q 1424 432 1424 410 q 1403 322 1414 392 m 1082 368 q 1100 350 1100 368 l 1100 343 q 1081 317 1100 317 q 1060 343 1060 317 q 1082 368 1060 368 m 1261 746 l 1238 746 l 1238 629 l 1213 629 l 1213 751 q 1197 754 1206 754 q 1181 751 1188 754 l 1181 776 l 1261 776 l 1261 746 m 1167 628 q 1139 628 1167 628 l 1139 788 l 1167 788 l 1167 628 m 1124 674 q 1113 635 1124 643 q 1078 626 1103 626 q 1036 654 1036 626 l 1036 686 l 1060 686 q 1060 660 1058 665 q 1082 650 1064 650 q 1099 672 1099 650 q 1068 694 1099 692 q 1038 735 1038 697 q 1081 779 1038 779 q 1124 742 1124 779 q 1122 733 1124 739 q 1121 725 1121 728 l 1094 725 q 1093 751 1094 738 q 1078 756 1092 756 q 1060 738 1060 756 q 1092 715 1060 719 q 1124 674 1124 711 m 1019 628 q 992 628 1019 628 l 992 788 l 1019 788 l 1019 628 m 981 788 l 956 629 l 926 629 q 907 750 919 676 q 889 754 901 751 l 889 778 l 924 778 q 943 685 928 746 l 958 788 l 981 788 m 846 628 l 769 628 l 769 751 q 760 754 767 754 l 760 778 q 789 776 774 776 q 836 778 806 776 l 836 754 q 785 750 789 754 l 785 713 q 829 706 797 706 l 829 682 q 792 681 808 686 l 792 657 q 846 657 819 656 l 846 628 m 750 672 q 704 626 750 626 q 661 661 661 626 l 661 686 l 685 686 q 689 656 688 671 q 708 650 692 650 q 724 669 724 650 q 693 694 724 693 q 663 735 663 696 q 707 779 663 779 q 749 750 749 779 l 749 725 l 722 725 q 719 751 721 746 q 704 756 717 756 q 688 738 688 756 q 719 716 688 721 q 750 672 750 711 m 649 629 l 621 629 q 619 649 619 639 q 606 660 618 660 q 593 650 593 660 q 592 629 592 631 l 568 629 l 588 751 q 568 756 581 753 l 569 778 l 622 778 l 649 629 m 561 628 l 483 628 l 483 751 q 474 754 482 754 l 474 778 q 504 776 488 776 q 551 778 521 776 l 551 754 q 517 756 533 754 q 500 733 500 756 q 508 707 500 708 q 544 706 526 706 l 544 682 q 528 685 538 685 q 508 682 519 685 q 506 657 508 674 q 561 657 535 656 l 561 628 m 467 653 q 469 640 469 647 q 467 628 469 633 q 404 628 465 629 l 404 788 l 431 788 l 431 653 q 467 653 436 651 m 394 735 q 347 672 394 675 q 349 651 347 667 q 349 629 349 636 l 324 629 l 324 751 q 308 754 319 754 l 311 778 l 375 778 q 394 735 394 778 m 618 682 l 610 753 l 590 682 l 618 682 m 372 742 q 365 757 372 754 l 339 757 l 339 700 l 365 700 q 372 742 372 711 z "},"∑":{"ha":1650,"x_min":11,"x_max":1689,"o":"m 847 294 l 843 258 l 806 258 q 797 288 797 272 q 822 307 797 307 q 847 294 838 307 m 1689 261 l 1658 261 l 1658 361 q 1639 388 1658 388 q 1615 378 1624 388 l 1615 258 l 1578 258 l 1578 422 l 1611 422 q 1614 413 1611 417 q 1644 426 1628 426 q 1689 393 1689 426 l 1689 261 m 1556 342 q 1494 254 1556 254 q 1432 340 1432 254 q 1494 426 1432 426 q 1549 400 1535 426 q 1556 342 1556 385 m 1268 258 q 1232 261 1247 263 l 1232 518 q 1268 514 1243 514 l 1268 258 m 1210 336 q 1118 329 1181 335 q 1127 306 1122 317 q 1147 296 1132 296 q 1165 300 1158 296 q 1168 309 1167 301 q 1174 317 1169 317 l 1210 317 q 1199 276 1207 303 q 1174 258 1190 263 q 1147 257 1167 257 q 1093 288 1106 257 q 1088 340 1088 300 q 1149 426 1088 426 q 1210 365 1210 426 l 1210 336 m 1058 258 l 1017 258 q 956 392 990 324 q 953 261 953 389 q 917 258 929 261 l 917 474 q 897 476 911 476 l 897 514 q 925 518 904 518 q 983 435 947 518 q 1025 335 1004 385 l 1025 536 l 1058 536 l 1058 258 m 776 386 q 699 254 776 254 q 626 299 642 254 q 618 386 618 321 q 626 471 618 446 q 699 522 643 522 q 776 386 776 522 m 553 263 q 535 257 549 257 q 513 272 521 257 q 478 254 497 254 q 442 292 456 254 q 431 347 431 321 q 446 399 431 372 q 486 426 461 426 q 498 425 490 426 q 508 424 506 424 q 511 440 511 426 q 508 518 511 454 l 553 518 l 553 263 m 408 261 q 375 258 392 261 q 372 275 375 268 q 340 257 363 257 q 303 301 303 257 q 318 338 303 328 q 376 353 333 347 l 376 389 q 360 394 372 394 q 341 383 344 394 q 335 360 338 372 l 311 360 q 307 372 307 367 q 360 426 307 426 q 395 409 382 426 q 408 372 408 392 l 408 261 m 378 328 l 358 328 q 339 317 350 328 l 340 292 q 364 292 354 290 q 374 293 375 293 q 378 328 374 317 m 286 350 l 251 350 q 251 374 251 361 q 231 388 249 388 q 211 378 219 388 l 211 258 l 175 258 l 175 422 l 208 422 q 210 413 208 415 q 240 426 224 426 q 271 415 256 426 q 286 390 286 403 l 286 350 m 156 332 q 133 261 156 278 l 36 261 l 36 474 q 11 476 29 476 l 11 518 l 104 518 q 137 497 125 518 q 149 453 149 475 q 128 400 149 428 q 156 332 156 389 m 1078 697 q 1071 610 1078 632 q 1014 568 1058 568 q 956 624 968 568 q 950 707 950 646 q 956 783 950 765 q 1014 829 968 829 q 1074 781 1061 829 q 1078 697 1078 763 m 922 697 q 918 614 922 632 q 861 568 906 568 q 801 624 815 568 q 796 711 796 647 q 803 788 796 768 q 858 829 815 829 q 924 738 924 829 q 924 715 924 729 q 922 697 922 701 m 767 757 q 746 694 767 721 q 686 619 690 626 q 756 621 703 618 l 756 572 l 644 572 l 644 604 q 688 691 644 656 q 732 764 732 726 q 708 790 732 790 q 685 779 689 790 q 682 749 683 764 l 651 749 l 651 785 q 669 817 651 806 q 708 829 686 829 q 767 757 767 829 m 603 708 q 582 624 603 664 q 507 572 556 572 q 429 631 456 572 q 411 708 411 669 q 429 790 411 751 q 507 846 454 846 q 585 790 560 846 q 603 708 603 753 m 1376 306 q 1335 327 1378 313 q 1294 375 1293 342 q 1353 426 1297 426 q 1397 414 1376 426 l 1403 408 q 1414 367 1410 390 l 1376 367 q 1375 382 1376 378 q 1351 394 1365 394 q 1331 386 1339 394 l 1331 376 q 1382 351 1333 374 q 1411 306 1411 338 q 1350 254 1411 254 q 1325 258 1343 254 q 1292 317 1300 264 l 1333 317 q 1354 285 1335 285 q 1376 306 1365 285 m 1521 340 q 1494 388 1521 388 q 1464 342 1464 388 q 1496 296 1464 296 q 1517 300 1507 296 q 1521 340 1521 314 m 1171 360 l 1171 376 q 1167 382 1168 379 q 1146 388 1161 388 q 1127 383 1131 388 q 1119 360 1124 379 l 1171 360 m 731 385 q 719 479 731 457 l 671 479 q 657 399 657 411 q 658 339 657 347 q 693 296 665 296 q 710 298 699 296 q 726 300 722 300 q 731 385 731 340 m 525 308 l 525 392 l 489 392 q 472 383 481 392 q 474 340 472 369 q 474 297 474 311 l 514 297 q 525 308 518 301 m 110 447 q 101 479 110 457 l 61 479 l 61 424 l 101 419 q 110 447 110 433 m 117 369 q 68 381 100 374 q 67 297 68 318 l 108 297 q 117 369 117 313 m 1039 618 l 1039 775 q 1014 797 1039 797 q 986 786 994 797 l 986 622 q 1015 611 1001 611 q 1039 618 1031 611 m 883 618 l 883 786 q 858 797 872 797 q 831 782 843 797 l 831 633 q 861 611 831 611 q 883 618 876 611 m 590 708 q 507 828 590 828 q 442 786 464 828 q 425 711 425 754 q 442 632 425 664 q 507 590 464 590 q 572 632 549 590 q 590 708 590 665 m 561 725 l 532 721 q 514 760 540 760 q 486 739 490 760 q 488 711 488 744 q 489 674 488 678 q 517 653 493 653 q 538 679 525 653 l 560 674 q 563 660 563 667 q 544 632 563 642 q 514 622 526 622 q 456 714 456 622 q 506 792 456 792 q 561 725 560 792 m 1101 651 q 1115 651 1106 650 q 1128 651 1124 651 l 1136 651 l 1135 625 q 1158 604 1135 604 q 1183 626 1183 604 q 1179 672 1183 639 q 1144 690 1164 689 q 1143 710 1143 710 q 1144 724 1143 710 q 1179 771 1179 725 q 1176 796 1179 790 q 1156 801 1174 801 q 1138 785 1140 801 q 1133 754 1135 769 l 1103 754 l 1103 775 q 1160 831 1101 831 q 1203 816 1194 831 q 1213 764 1213 801 q 1181 706 1213 711 q 1218 629 1218 701 q 1160 569 1218 569 q 1100 621 1100 569 q 1101 651 1100 629 z "},"∏":{"ha":824,"x_min":29,"x_max":794,"o":"m 413 1021 q 699 847 589 1021 q 794 511 794 697 q 699 174 794 324 q 411 0 588 0 q 125 174 235 0 q 29 511 29 324 q 125 847 29 697 q 413 1021 235 1021 m 411 90 q 647 233 557 90 q 726 511 726 357 q 649 788 726 664 q 413 931 557 931 q 175 789 265 931 q 96 511 96 665 q 175 233 96 356 q 411 90 265 90 m 429 701 q 413 678 413 701 q 414 613 413 628 q 417 597 415 604 q 426 586 418 590 q 431 582 428 585 q 467 602 454 582 q 479 646 479 622 q 429 701 479 701 m 289 628 q 271 683 289 668 q 256 694 265 686 q 246 717 246 701 q 356 771 246 772 q 365 771 368 771 q 413 774 376 771 q 458 775 440 775 q 619 638 619 768 q 575 529 619 557 q 489 507 553 514 q 424 479 435 501 q 432 397 422 453 q 469 333 444 357 q 492 289 490 315 q 372 238 496 238 q 243 279 244 238 q 260 322 242 304 q 279 354 278 339 q 289 614 289 432 l 289 628 z "},"π":{"ha":1625,"x_min":-6,"x_max":1674,"o":"m 1674 403 q 1646 403 1674 403 l 1646 478 q 1626 408 1640 467 l 1613 408 q 1592 478 1610 419 q 1590 461 1590 468 q 1592 406 1590 454 l 1576 406 l 1576 528 q 1565 529 1574 529 l 1565 553 l 1589 553 l 1619 461 q 1650 563 1629 496 l 1674 563 l 1674 403 m 1551 476 q 1547 425 1551 436 q 1507 403 1539 403 q 1465 425 1475 403 q 1461 476 1461 436 q 1507 556 1461 556 q 1547 526 1539 556 q 1551 476 1551 514 m 1311 725 l 1288 725 l 1288 608 l 1263 608 l 1263 731 q 1231 731 1251 733 l 1231 756 l 1311 756 l 1311 725 m 1217 607 q 1188 607 1217 607 l 1188 767 l 1217 767 l 1217 607 m 1449 436 q 1411 403 1449 403 q 1360 476 1360 403 q 1365 531 1360 517 q 1408 553 1375 553 q 1449 510 1449 553 l 1449 490 l 1425 490 q 1425 515 1425 503 q 1406 531 1424 531 q 1385 481 1385 531 q 1385 444 1385 447 q 1408 422 1389 422 q 1425 432 1425 422 q 1425 460 1425 446 l 1449 460 l 1449 436 m 1614 246 q 1569 199 1614 199 q 1540 204 1547 199 q 1525 239 1529 213 l 1528 258 l 1551 258 q 1553 228 1550 235 q 1574 221 1557 221 q 1590 244 1590 221 q 1558 265 1590 261 q 1526 306 1526 269 q 1571 351 1526 351 q 1613 325 1613 351 l 1613 297 l 1586 297 q 1585 318 1586 308 q 1569 328 1583 328 q 1551 308 1551 328 q 1583 288 1551 292 q 1614 246 1614 283 m 1172 653 q 1128 606 1172 606 q 1085 633 1085 606 l 1085 665 l 1110 665 q 1111 638 1108 642 q 1132 629 1114 629 q 1149 651 1149 629 q 1118 674 1149 671 q 1088 714 1088 676 q 1129 758 1088 758 q 1172 721 1172 758 q 1172 713 1172 718 q 1171 704 1171 707 l 1144 704 q 1142 732 1143 729 q 1128 735 1142 735 q 1110 717 1110 735 q 1141 694 1110 699 q 1172 653 1172 690 m 1346 406 q 1321 404 1343 404 l 1321 431 l 1346 429 l 1346 406 m 1510 201 l 1482 201 q 1450 278 1469 236 q 1451 201 1449 276 l 1426 201 l 1426 324 q 1417 325 1426 325 l 1417 350 l 1447 350 l 1489 243 l 1489 360 l 1510 360 l 1510 201 m 1068 607 q 1040 607 1068 607 l 1040 767 l 1068 767 l 1068 607 m 1307 403 q 1282 403 1307 403 q 1264 425 1272 403 q 1254 460 1260 443 l 1246 460 l 1246 403 l 1219 403 l 1219 528 q 1207 529 1215 529 l 1210 553 l 1274 553 q 1293 513 1293 553 q 1272 472 1293 481 q 1286 442 1283 465 q 1307 425 1286 424 l 1307 403 m 1029 767 l 1006 608 l 975 608 q 956 729 968 656 q 939 733 956 729 l 939 757 l 972 757 q 992 663 976 725 l 1008 767 l 1029 767 m 1200 404 l 1124 404 l 1124 528 q 1114 529 1122 529 l 1114 553 q 1190 553 1138 551 l 1190 529 q 1140 525 1143 529 q 1142 507 1140 521 q 1142 486 1142 493 q 1185 486 1179 482 l 1185 458 q 1147 458 1171 461 q 1146 435 1150 446 q 1175 431 1161 431 q 1200 435 1190 431 l 1200 404 m 1404 249 q 1397 233 1397 246 q 1391 207 1396 215 q 1361 199 1386 199 q 1318 226 1326 199 q 1315 272 1315 235 q 1319 324 1315 310 q 1361 351 1329 351 q 1400 318 1400 351 l 1400 290 l 1381 290 q 1372 328 1381 315 l 1347 328 q 1338 276 1338 315 q 1339 233 1338 239 q 1364 221 1343 221 q 1378 226 1372 221 l 1378 253 q 1371 254 1376 253 q 1363 257 1365 256 l 1364 272 l 1404 272 l 1404 249 m 1300 200 q 1272 200 1297 200 l 1272 360 l 1300 360 l 1300 200 m 1101 404 l 1075 404 q 1042 482 1065 431 q 1042 406 1040 481 l 1018 406 l 1018 528 q 1008 529 1015 529 l 1008 553 l 1038 553 l 1082 447 l 1082 563 l 1101 563 l 1101 404 m 896 607 l 818 607 l 818 731 q 808 733 817 733 l 808 757 q 839 756 822 756 q 885 757 854 756 l 885 733 q 835 729 838 733 l 835 690 q 879 685 847 685 l 879 661 q 840 660 858 665 l 840 636 q 896 636 867 635 l 896 607 m 1258 244 q 1213 199 1258 199 q 1168 233 1168 199 l 1168 258 l 1193 258 q 1197 226 1194 243 q 1217 221 1199 221 q 1232 242 1232 221 q 1201 266 1232 264 q 1171 307 1171 268 q 1214 351 1171 351 q 1256 322 1256 351 l 1256 297 l 1229 297 q 1227 322 1229 317 q 1211 328 1225 328 q 1194 308 1194 328 q 1226 288 1194 292 q 1258 244 1258 283 m 993 403 q 964 403 993 403 l 964 563 l 993 563 l 993 403 m 800 651 q 754 606 800 606 q 711 640 711 606 l 711 665 l 735 665 q 739 635 736 650 q 758 629 740 629 q 774 649 774 629 q 743 674 774 672 q 713 714 713 675 q 756 758 713 758 q 797 729 797 758 l 797 704 l 772 704 q 767 730 769 725 q 753 735 765 735 q 736 717 736 735 q 768 695 736 700 q 800 651 800 690 m 1160 200 l 1085 200 l 1085 324 q 1074 325 1081 325 l 1074 350 q 1150 349 1094 347 l 1150 325 l 1101 325 l 1101 281 q 1143 281 1143 281 l 1143 256 l 1107 256 l 1107 229 q 1160 229 1124 226 l 1160 200 m 949 481 q 922 404 949 404 l 874 404 l 874 528 q 860 529 869 529 l 860 553 q 899 553 860 553 q 943 531 932 553 q 949 481 949 518 m 697 608 l 669 608 q 669 629 669 619 q 656 639 668 639 q 642 628 643 639 q 640 608 642 618 l 617 608 l 638 731 q 627 733 635 732 q 617 735 619 735 l 619 757 l 671 757 l 697 608 m 1065 276 q 1060 233 1065 258 q 1039 201 1051 201 l 989 201 l 989 324 q 975 325 986 325 l 975 349 q 1014 350 963 350 q 1058 328 1047 350 q 1065 276 1065 313 m 849 521 l 824 521 l 824 406 l 799 406 l 799 528 q 765 526 781 531 l 765 551 l 849 551 l 849 521 m 610 607 l 533 607 l 533 731 q 524 733 531 733 l 524 757 q 554 756 538 756 q 600 757 569 756 l 600 733 q 563 735 582 733 q 550 713 550 735 q 558 686 550 688 q 594 685 576 685 l 594 661 q 557 661 574 664 q 556 636 557 653 q 610 636 583 635 l 610 607 m 751 404 l 725 404 q 690 482 715 431 q 692 406 690 482 l 668 406 l 668 528 q 658 529 665 529 l 658 553 l 688 553 l 731 447 l 731 563 l 751 563 l 751 404 m 517 632 q 517 606 519 619 q 453 607 514 608 l 453 767 l 481 767 l 481 632 q 517 632 486 631 m 924 317 l 900 317 l 900 201 l 875 201 l 875 319 q 861 326 872 326 q 843 325 840 325 l 843 349 l 924 349 l 924 317 m 443 714 q 397 651 443 654 q 399 608 399 664 l 372 608 l 372 731 q 358 733 368 733 l 360 757 l 424 757 q 443 714 443 757 m 644 476 q 639 426 644 440 q 600 403 631 403 q 558 428 567 403 q 554 478 554 439 q 600 556 554 556 q 644 476 644 556 m 832 243 q 786 199 832 199 q 743 233 743 199 l 743 258 l 767 258 q 771 226 769 243 q 790 221 774 221 q 806 242 806 221 q 775 266 806 264 q 744 307 744 268 q 789 351 744 351 q 831 322 831 351 l 831 297 l 804 297 q 801 321 803 319 q 786 328 799 328 q 769 322 772 328 q 769 308 769 322 q 801 288 769 292 q 832 243 832 283 m 543 529 l 493 529 l 493 476 q 533 476 510 474 l 533 451 l 501 451 l 501 406 l 474 406 l 474 521 q 464 529 474 529 l 464 553 l 543 553 l 543 529 m 735 200 l 657 200 l 657 324 q 647 325 657 325 l 647 350 q 724 349 668 347 l 724 325 q 674 322 676 325 q 675 303 674 317 q 675 282 675 289 q 718 282 713 278 l 718 254 q 682 254 697 257 q 679 231 682 240 q 710 226 694 226 q 735 231 724 226 l 735 200 m 639 317 l 614 317 l 614 201 l 590 201 l 590 319 q 576 326 588 326 q 558 325 556 325 l 558 349 l 639 349 l 639 317 m 451 406 q 428 404 449 404 l 428 431 l 451 429 l 451 406 m 413 563 l 396 404 l 368 404 l 356 488 q 342 403 353 460 l 322 403 q 310 461 314 424 q 300 525 301 517 q 281 529 294 529 l 281 553 l 315 553 l 331 443 l 340 557 l 364 557 l 379 460 q 390 563 388 503 l 413 563 m 544 201 l 519 201 q 516 217 518 207 q 513 232 514 228 l 494 232 q 488 201 493 222 l 467 201 l 485 324 q 467 325 474 326 l 467 350 l 521 350 l 544 201 m 457 225 q 460 213 460 219 q 457 199 460 206 q 446 201 456 201 q 394 199 436 201 l 394 360 l 419 360 l 419 226 q 428 224 422 224 q 436 225 428 224 q 457 225 443 225 m 271 563 l 254 404 l 226 404 l 213 488 q 199 403 210 460 l 176 403 q 156 528 171 446 q 139 529 151 529 l 139 553 l 172 553 l 188 446 l 197 557 l 221 557 l 238 461 q 243 512 239 478 q 249 563 247 546 l 271 563 m 346 201 l 314 201 q 302 228 306 208 q 292 256 299 247 l 285 256 l 285 199 l 258 199 l 258 324 q 246 325 250 326 l 249 350 l 313 350 q 332 308 332 350 q 311 269 332 275 q 325 238 322 261 q 346 221 326 219 l 346 201 m 128 563 l 111 404 q 83 404 83 404 l 69 488 q 58 403 67 461 q 31 404 43 403 q 14 528 26 456 q -6 529 8 529 l -4 553 l 29 553 l 46 447 l 56 557 l 79 557 l 93 464 q 106 563 101 496 l 128 563 m 236 272 q 190 199 236 199 q 147 226 156 199 q 144 274 144 236 q 190 351 144 351 q 236 272 236 351 m 133 325 l 85 325 q 81 310 81 319 q 82 294 81 308 q 83 274 83 281 q 124 274 101 271 l 124 249 l 92 249 l 92 201 l 65 201 l 65 254 q 56 325 65 325 l 56 349 l 133 349 l 133 325 m 1526 476 q 1521 531 1526 521 l 1490 531 q 1485 481 1485 508 q 1485 449 1485 449 q 1507 425 1489 425 q 1525 429 1504 425 q 1526 476 1526 446 m 1271 511 q 1265 532 1271 525 l 1238 532 l 1238 485 l 1261 485 q 1271 511 1271 490 m 922 478 q 911 531 924 531 l 890 531 l 890 432 l 921 432 q 922 478 922 447 m 667 661 l 658 732 l 639 661 l 667 661 m 1038 272 q 1028 326 1038 319 l 1007 326 l 1007 228 l 1038 228 l 1038 272 m 421 721 q 414 736 421 733 l 389 736 l 389 679 l 414 679 q 421 721 421 690 m 618 476 q 613 531 618 519 l 585 531 q 578 476 578 521 q 582 428 578 442 q 592 426 586 428 q 600 425 597 425 q 618 440 615 425 q 618 476 618 442 m 517 254 q 508 325 511 286 l 499 325 l 489 254 l 517 254 m 310 307 q 304 329 310 318 l 276 329 l 276 281 l 300 281 q 310 307 310 289 m 210 272 q 203 328 210 321 l 175 328 q 168 274 168 314 q 174 224 168 238 l 207 224 q 210 272 210 254 z "},"∫":{"ha":1074,"x_min":8,"x_max":1131,"o":"m 875 500 q 685 468 799 468 q 578 469 625 468 q 731 382 610 382 q 847 438 751 382 q 990 489 943 494 q 1014 433 1014 486 q 990 274 1014 388 q 851 63 961 136 q 611 -3 753 -3 q 346 111 447 -3 q 249 381 249 218 q 258 478 249 429 q 244 478 240 478 q 247 478 247 478 q 207 479 243 478 l 92 481 q 32 495 56 482 q 8 525 8 508 q 22 547 8 538 q 129 575 63 575 q 171 574 143 575 q 213 572 199 572 q 242 572 243 572 q 286 572 256 572 q 314 639 297 606 l 244 640 q 185 653 208 640 q 161 685 161 667 q 175 706 161 696 q 282 733 215 733 q 324 732 296 733 q 365 731 351 731 q 574 957 454 871 q 842 1053 707 1053 q 963 1015 901 1053 q 1053 978 1024 978 q 1111 1001 1079 978 q 1131 951 1131 994 q 1121 878 1131 924 q 1094 808 1110 826 q 1018 782 1072 782 q 989 810 1004 782 q 956 861 969 849 q 879 889 928 889 q 731 845 803 889 q 617 731 660 801 q 1028 721 1008 731 q 1058 683 1058 704 q 1033 658 1058 665 q 972 636 1024 656 q 907 628 951 628 q 578 636 897 628 l 576 635 q 568 571 569 601 q 869 563 861 569 q 892 522 892 542 q 875 500 892 507 z "},"æ":{"ha":1010,"x_min":24,"x_max":978,"o":"m 365 331 q 364 364 364 349 q 364 386 364 375 q 354 417 363 413 q 344 422 353 422 q 290 391 310 422 q 271 325 271 360 q 324 251 271 251 q 356 292 343 251 q 365 331 363 313 m 765 299 q 828 324 789 303 q 883 343 861 343 q 950 317 922 343 q 978 253 978 292 q 891 58 978 135 q 686 -19 804 -19 q 568 3 622 -19 q 460 -15 517 -15 q 383 5 422 -15 q 331 25 344 25 q 270 13 311 25 q 207 1 229 1 q 76 63 129 1 q 24 203 24 124 q 107 408 24 319 q 303 518 186 492 q 344 529 317 519 q 371 579 371 539 q 318 672 371 672 q 263 638 286 672 q 219 572 240 604 q 139 538 188 538 q 97 558 113 538 q 81 606 81 579 q 188 747 81 697 q 378 786 271 786 q 544 739 494 786 q 708 788 618 788 q 893 726 819 788 q 971 551 971 661 q 919 482 971 506 q 807 461 876 461 q 676 486 728 461 q 650 493 661 493 q 619 474 631 493 q 617 442 617 458 q 654 350 617 396 q 739 299 692 304 l 765 299 m 699 668 q 638 649 664 668 q 607 594 607 628 q 658 568 607 568 q 754 572 750 568 q 772 599 772 574 q 751 649 772 629 q 699 668 729 668 z "},"ø":{"ha":718,"x_min":26,"x_max":699,"o":"m 279 253 l 343 647 q 228 504 243 628 q 224 439 224 468 q 239 344 224 389 q 279 253 247 322 m 436 628 l 364 189 q 444 236 413 189 q 496 372 472 278 q 503 425 503 399 q 474 543 503 478 q 436 628 438 622 m 515 958 q 474 801 515 963 l 468 781 q 639 614 575 739 q 699 374 699 500 q 604 114 699 232 q 365 -14 504 -14 q 332 -12 349 -14 q 250 -69 314 -69 q 188 -35 188 -69 q 203 22 188 -25 q 26 358 26 111 q 121 647 26 510 q 372 799 226 800 l 375 799 l 407 914 q 433 978 421 964 q 475 993 444 993 q 515 958 515 993 z "},"¿":{"ha":749,"x_min":33,"x_max":722,"o":"m 233 776 q 286 901 233 858 q 419 942 335 942 q 536 898 493 942 q 579 781 579 854 q 529 636 579 708 q 406 556 475 556 q 281 632 333 556 q 233 776 233 700 m 126 229 q 200 274 164 251 q 263 329 243 301 q 279 385 275 347 q 294 438 283 422 q 419 478 321 478 q 543 335 543 478 q 475 190 543 290 q 401 75 403 85 q 399 58 399 65 q 447 7 399 10 q 522 54 506 3 q 540 154 532 104 q 606 210 554 210 q 689 176 656 210 q 722 92 722 143 q 600 -85 722 -19 q 381 -137 500 -137 q 164 -90 265 -137 q 33 74 33 -32 q 126 229 33 167 z "},"¡":{"ha":482,"x_min":31,"x_max":464,"o":"m 31 86 q 78 213 31 144 q 132 368 118 272 q 158 510 150 488 q 194 540 165 525 q 243 554 224 554 q 326 549 311 554 q 378 467 376 533 q 378 351 378 483 q 421 219 378 297 q 461 85 464 140 q 385 -35 458 14 q 249 -79 321 -79 q 108 -33 176 -79 q 31 86 31 17 m 76 867 q 129 993 76 949 q 263 1033 178 1033 q 378 989 335 1033 q 422 871 422 944 q 372 726 422 799 q 249 646 318 646 q 124 722 176 646 q 76 867 76 790 z "},"¬":{"ha":919,"x_min":138,"x_max":879,"o":"m 879 239 q 829 204 879 218 q 747 194 789 194 q 710 219 718 194 q 707 269 707 232 l 707 347 q 703 393 707 385 q 671 410 697 410 l 182 410 q 138 496 138 410 q 182 581 138 581 l 835 581 q 868 539 854 581 q 879 472 879 504 l 879 239 z "},"√":{"ha":840,"x_min":14,"x_max":818,"o":"m 250 -33 q 222 229 235 160 q 138 433 193 401 q 125 438 131 438 q 95 383 108 438 q 56 333 82 329 q 15 401 17 339 q 57 539 14 475 q 156 603 100 603 q 196 592 176 603 q 299 481 268 551 q 361 236 322 426 q 513 676 386 432 q 714 1046 613 861 q 744 1063 722 1063 q 792 1049 767 1063 q 817 1028 818 1036 q 592 468 769 869 q 367 -61 400 39 q 318 -114 347 -114 q 274 -86 294 -114 q 250 -33 253 -58 z "},"ƒ":{"ha":864,"x_min":-72,"x_max":908,"o":"m 224 458 q 193 467 196 465 q 183 493 183 472 q 184 518 183 504 q 189 551 185 532 q 203 588 193 579 q 233 597 207 589 q 285 608 244 608 q 325 624 321 610 q 646 968 368 968 q 824 932 751 968 q 908 814 908 892 q 879 740 908 769 q 808 710 850 710 q 724 739 767 710 q 663 779 669 776 q 600 767 626 792 q 574 701 574 743 q 596 663 574 682 q 640 633 601 651 q 701 608 671 621 q 744 590 722 599 q 757 563 757 582 q 761 526 764 556 q 753 494 758 499 q 688 453 750 453 q 614 450 625 453 q 557 400 572 440 q 547 176 553 376 q 501 -68 543 40 q 390 -243 453 -193 q 190 -301 319 -301 q 11 -264 83 -301 q -72 -140 -72 -219 q -40 -60 -72 -92 q 42 -28 -7 -28 q 149 -85 89 -28 q 210 -125 188 -125 q 250 -87 240 -125 q 278 128 260 -49 q 300 442 297 324 q 265 453 300 449 q 224 458 226 456 z "},"«":{"ha":611,"x_min":17,"x_max":565,"o":"m 524 668 q 553 652 540 668 q 565 614 565 636 q 528 504 565 588 q 469 354 482 404 q 528 203 482 306 q 565 94 565 121 q 522 39 565 39 q 383 176 482 39 q 318 269 329 251 q 288 354 288 319 q 385 533 288 397 q 524 668 483 668 m 251 668 q 282 652 269 668 q 294 614 294 636 q 257 504 294 588 q 197 354 211 404 q 257 203 211 304 q 293 94 293 119 q 250 39 293 39 q 113 176 211 39 q 47 269 58 251 q 17 354 17 319 q 114 533 17 397 q 251 668 211 668 z "},"»":{"ha":575,"x_min":17,"x_max":565,"o":"m 565 353 q 467 174 565 310 q 329 39 369 39 q 300 54 313 39 q 288 93 288 69 q 325 203 288 119 q 383 354 369 304 q 324 504 369 401 q 288 613 288 586 q 331 668 288 668 q 469 531 369 668 q 535 436 524 454 q 565 353 565 386 m 294 353 q 197 174 294 310 q 60 39 100 39 q 30 54 43 39 q 17 93 17 69 q 56 203 17 119 q 114 354 100 304 q 56 504 100 403 q 18 613 18 588 q 61 668 18 668 q 200 531 100 668 q 265 436 253 456 q 294 353 294 386 z "},"…":{"ha":1051,"x_min":47,"x_max":994,"o":"m 994 150 q 958 30 994 79 q 868 -19 921 -19 q 778 30 815 -19 q 742 150 742 79 q 778 270 742 221 q 868 319 815 319 q 958 270 921 319 q 994 150 994 221 m 647 150 q 610 30 647 79 q 521 -19 574 -19 q 431 30 468 -19 q 394 150 394 79 q 431 270 394 221 q 521 319 468 319 q 610 270 574 319 q 647 150 647 221 m 300 150 q 263 30 300 79 q 174 -19 226 -19 q 84 30 121 -19 q 47 150 47 79 q 84 270 47 221 q 174 319 121 319 q 264 270 228 319 q 300 150 300 221 z "}," ":{"ha":425,"x_min":0,"x_max":0,"o":""},"À":{"ha":1100,"x_min":11,"x_max":1078,"o":"m 1075 128 q 958 14 1069 47 q 782 -10 886 -10 q 632 8 678 -10 q 556 122 556 38 q 565 194 556 154 q 628 386 628 257 q 567 454 628 431 q 467 472 521 472 q 428 465 467 472 q 376 349 376 435 q 403 240 376 286 q 454 181 414 224 q 481 126 481 151 q 381 3 481 31 q 204 -11 332 -11 q 13 85 13 -11 q 86 222 11 169 q 240 490 174 285 q 297 803 297 669 q 279 889 297 854 q 247 929 269 908 q 229 954 229 946 q 378 1033 229 1000 q 563 1056 504 1061 q 713 996 661 1046 q 782 888 736 972 q 817 779 796 860 q 978 296 897 458 q 1021 248 990 272 q 1061 208 1051 224 q 1075 128 1078 179 m 583 661 q 557 735 583 672 q 494 792 535 792 q 446 732 472 792 q 424 653 424 681 q 458 640 424 640 q 488 642 468 640 q 515 644 507 644 q 549 640 543 644 q 583 661 583 643 m 692 1138 q 614 1072 692 1072 q 472 1106 576 1072 q 344 1160 363 1139 q 303 1210 303 1174 q 340 1275 303 1246 q 415 1304 378 1304 q 590 1244 443 1304 q 632 1214 608 1232 q 671 1181 651 1197 q 692 1138 692 1160 z "},"Ã":{"ha":1100,"x_min":11,"x_max":1078,"o":"m 1075 128 q 958 14 1069 47 q 782 -10 886 -10 q 632 8 678 -10 q 556 122 556 38 q 565 194 556 154 q 628 386 628 257 q 567 454 628 431 q 467 472 521 472 q 428 465 467 472 q 376 349 376 435 q 403 240 376 286 q 454 181 414 224 q 481 126 481 151 q 381 3 481 31 q 204 -11 332 -11 q 13 85 13 -11 q 86 222 11 169 q 240 490 174 285 q 297 803 297 669 q 279 889 297 854 q 247 929 269 908 q 229 954 229 946 q 378 1033 229 1000 q 563 1056 504 1061 q 713 996 661 1046 q 782 888 736 972 q 817 779 796 860 q 978 296 897 458 q 1021 248 990 272 q 1061 208 1051 224 q 1075 128 1078 179 m 583 661 q 557 735 583 672 q 494 792 535 792 q 446 732 472 792 q 424 653 424 681 q 458 640 424 640 q 488 642 468 640 q 515 644 507 644 q 549 640 543 644 q 583 661 583 643 m 833 1292 q 785 1182 833 1232 q 674 1132 738 1132 q 529 1166 622 1132 q 411 1200 436 1200 q 370 1161 378 1200 q 322 1122 363 1122 q 242 1174 242 1122 q 279 1267 242 1215 q 397 1336 329 1336 q 535 1302 442 1336 q 661 1268 628 1268 q 707 1306 700 1268 q 754 1344 714 1344 q 833 1292 833 1344 z "},"Õ":{"ha":918,"x_min":33,"x_max":890,"o":"m 890 374 q 758 81 890 199 q 456 -31 633 -31 q 140 125 260 -31 q 33 471 33 267 q 142 864 33 696 q 478 1058 267 1058 q 797 822 685 1058 q 890 374 890 629 m 586 556 q 546 758 586 647 q 422 897 496 897 q 356 833 379 897 q 338 729 338 785 q 368 553 338 635 q 489 443 410 443 q 586 556 586 443 m 821 1292 q 773 1182 821 1232 q 661 1132 725 1132 q 517 1166 610 1132 q 400 1200 425 1200 q 358 1161 365 1200 q 310 1122 350 1122 q 231 1174 231 1122 q 267 1267 231 1215 q 386 1336 317 1336 q 523 1302 429 1336 q 650 1268 617 1268 q 695 1306 688 1268 q 742 1344 703 1344 q 821 1292 821 1344 z "},"Œ":{"ha":1265,"x_min":33,"x_max":1239,"o":"m 586 556 q 546 758 586 647 q 422 897 496 897 q 356 833 379 897 q 338 729 338 785 q 368 553 338 635 q 490 443 410 443 q 586 556 586 443 m 590 1038 q 688 1046 635 1046 q 738 1043 704 1046 q 790 1040 772 1040 q 944 1047 838 1040 q 1096 1054 1051 1054 q 1189 979 1156 1054 q 1214 853 1214 921 q 1197 781 1214 810 q 1136 744 1175 744 q 1072 779 1099 744 q 1013 844 1033 831 q 861 881 961 881 q 831 881 832 881 q 811 847 817 875 q 808 828 808 838 q 854 753 808 782 q 950 728 894 728 q 977 743 961 728 q 1004 758 993 758 q 1025 728 1025 758 q 1011 635 1025 679 q 958 572 994 572 q 918 607 938 572 q 860 642 899 642 q 889 419 885 533 q 1015 394 936 394 q 1042 399 1024 394 q 1069 400 1060 403 q 1086 399 1079 399 q 1144 432 1121 399 q 1179 465 1167 465 q 1216 438 1200 465 q 1232 386 1232 410 q 1235 315 1232 372 q 1239 219 1239 257 q 1168 0 1239 50 q 993 -18 1143 -18 q 879 -19 951 -18 q 763 -19 819 -21 l 565 -18 q 457 -31 511 -31 q 140 125 260 -31 q 33 471 33 267 q 142 864 33 696 q 479 1058 267 1058 q 590 1038 538 1058 z "},"œ":{"ha":1083,"x_min":26,"x_max":1054,"o":"m 442 404 q 424 546 442 474 q 353 649 399 649 q 304 610 321 649 q 290 543 290 579 q 311 424 290 479 q 392 350 339 350 q 427 366 413 350 q 442 404 442 382 m 842 299 q 904 324 865 303 q 960 343 939 343 q 1026 317 999 343 q 1054 253 1054 292 q 967 58 1054 135 q 763 -19 881 -19 q 554 61 639 -19 q 365 -14 468 -14 q 113 93 203 -14 q 26 358 26 193 q 121 647 26 510 q 372 799 226 799 q 578 704 490 799 q 785 788 667 788 q 969 726 896 788 q 1047 551 1047 661 q 996 482 1047 506 q 883 461 953 461 q 753 486 804 461 q 726 493 738 493 q 697 474 707 493 q 693 444 693 460 q 696 417 694 431 q 740 339 706 375 q 815 299 775 303 l 842 299 m 775 668 q 713 648 742 668 q 685 594 685 628 q 735 568 685 568 q 831 572 826 568 q 849 599 849 574 q 827 649 849 629 q 775 668 806 668 z "},"–":{"ha":703,"x_min":-15,"x_max":711,"o":"m 710 378 l 711 365 q 610 268 711 318 q 526 243 596 243 q 437 246 496 243 q 347 249 378 249 q 284 244 340 249 q 190 239 228 239 q 6 304 32 239 q -10 328 -3 306 q -15 357 -15 346 q 85 467 -15 417 q 168 492 99 492 q 601 486 383 492 q 649 485 625 485 q 689 468 686 482 q 704 429 697 464 q 711 383 711 400 l 710 378 z "},"—":{"ha":1415,"x_min":-21,"x_max":1426,"o":"m 1404 354 q 1200 243 1319 243 q 644 246 1015 243 q 88 249 272 249 l 76 258 q 9 291 39 258 q -21 357 -21 324 q -15 381 -21 371 q 189 492 42 492 q 1383 478 1367 492 q 1426 408 1426 443 q 1404 354 1426 382 z "},"“":{"ha":769,"x_min":54,"x_max":754,"o":"m 754 658 q 711 543 754 590 q 600 496 668 496 q 476 557 522 496 q 435 693 435 613 q 501 918 435 788 q 661 1067 578 1067 q 707 1052 685 1067 q 729 1015 729 1038 q 687 950 729 1004 q 644 850 644 896 q 672 807 644 832 q 726 753 713 771 q 754 658 754 713 m 374 658 q 331 543 374 590 q 219 496 288 496 q 96 557 142 496 q 54 693 54 613 q 121 918 54 786 q 281 1067 197 1067 q 326 1052 304 1067 q 349 1015 349 1038 q 306 950 349 1004 q 264 850 264 896 q 292 807 264 832 q 344 753 332 772 q 374 658 374 713 z "},"”":{"ha":776,"x_min":49,"x_max":750,"o":"m 750 871 q 682 644 750 776 q 522 496 606 496 q 477 510 499 496 q 456 549 456 525 q 497 613 456 558 q 539 713 539 667 q 511 756 539 731 q 458 810 471 792 q 431 904 431 850 q 473 1019 431 972 q 583 1067 515 1067 q 707 1006 661 1067 q 750 871 750 950 m 368 871 q 300 644 368 776 q 142 496 224 496 q 97 510 118 496 q 75 549 75 525 q 117 613 75 558 q 158 713 158 667 q 131 756 158 731 q 76 810 90 792 q 49 904 49 850 q 92 1019 49 972 q 203 1067 135 1067 q 326 1006 281 1067 q 368 871 368 950 z "},"‘":{"ha":392,"x_min":39,"x_max":357,"o":"m 299 1107 q 332 1097 313 1107 q 351 1074 351 1088 q 308 1008 351 1069 q 264 904 264 947 q 310 820 264 886 q 357 699 357 754 q 311 576 357 640 q 207 508 263 508 q 78 568 121 508 q 39 710 39 621 q 115 953 39 815 q 299 1107 201 1107 z "},"’":{"ha":363,"x_min":35,"x_max":346,"o":"m 346 914 q 275 671 346 807 q 101 514 196 514 q 54 554 54 514 q 94 619 54 565 q 135 715 135 674 q 85 799 135 733 q 35 917 35 865 q 81 1044 35 983 q 196 1111 131 1111 q 311 1046 269 1111 q 346 914 346 990 z "},"÷":{"ha":851,"x_min":138,"x_max":879,"o":"m 622 644 q 588 564 622 597 q 508 531 554 531 q 428 564 461 531 q 394 644 394 597 q 428 724 394 690 q 508 758 461 758 q 588 724 554 758 q 622 644 622 690 m 879 339 q 756 299 879 299 l 182 299 q 138 385 138 299 q 182 472 138 472 l 835 472 q 869 414 857 472 q 879 339 879 374 m 622 126 q 588 46 622 79 q 508 13 554 13 q 428 46 461 13 q 394 126 394 79 q 428 206 394 172 q 508 240 461 240 q 588 206 554 240 q 622 126 622 172 z "},"ÿ":{"ha":671,"x_min":3,"x_max":713,"o":"m 51 571 q 19 589 21 588 q 3 632 3 603 q 85 733 3 686 q 292 796 189 796 q 326 742 333 796 l 324 715 q 313 625 313 632 q 318 538 313 558 q 414 406 338 474 q 471 488 436 406 q 501 592 501 564 q 483 642 501 613 q 464 690 464 671 q 597 774 464 774 q 713 696 713 774 q 668 618 713 663 q 601 529 615 567 q 521 238 561 383 q 392 -99 457 17 q 185 -260 301 -260 q 63 -208 110 -260 q 17 -79 17 -156 q 40 8 17 -32 q 113 54 67 54 q 172 39 156 54 q 186 11 179 32 q 204 -3 190 -3 q 238 54 238 -3 q 169 304 238 111 q 94 511 132 408 q 72 553 86 533 q 51 571 61 565 m 376 981 q 417 1061 376 1033 q 492 1085 450 1085 q 553 1064 526 1085 q 582 994 582 1039 q 539 914 582 944 q 461 889 503 889 q 404 913 428 889 q 376 981 376 939 m 104 981 q 144 1063 104 1033 q 218 1086 178 1086 q 279 1064 254 1086 q 310 994 310 1039 q 265 914 310 944 q 188 889 229 889 q 130 914 156 889 q 104 981 104 939 z "},"Ÿ":{"ha":892,"x_min":22,"x_max":903,"o":"m 569 551 q 643 233 611 276 q 678 193 661 214 q 700 147 700 169 q 642 7 700 33 q 406 -14 597 -14 q 199 17 250 -14 q 147 138 147 49 q 172 183 147 158 q 210 224 204 214 q 251 396 228 260 q 278 575 272 513 q 257 611 278 581 q 217 686 231 649 q 157 801 192 732 q 117 839 143 819 q 72 871 72 871 q 38 892 60 878 q 22 939 22 908 q 94 1024 22 996 q 242 1046 153 1047 q 415 1017 364 1044 q 457 949 457 994 q 444 908 457 921 q 418 885 432 896 q 397 856 404 874 q 393 817 389 838 q 467 731 410 731 q 518 781 488 731 q 542 839 525 806 q 554 872 554 864 q 549 879 554 876 q 531 892 544 882 q 514 939 514 908 q 733 1046 514 1046 q 903 960 903 1046 q 890 919 903 932 q 865 897 876 907 q 819 874 853 888 q 755 844 768 854 q 719 804 742 835 q 619 690 639 717 q 569 575 569 625 q 569 551 569 565 m 431 1257 q 471 1338 431 1308 q 546 1361 504 1361 q 609 1338 581 1361 q 638 1269 638 1314 q 593 1190 638 1221 q 515 1164 557 1164 q 458 1189 482 1164 q 431 1257 431 1215 m 158 1257 q 199 1338 158 1308 q 274 1361 232 1361 q 333 1340 308 1361 q 364 1269 364 1314 q 321 1190 364 1221 q 243 1164 285 1164 q 186 1189 210 1164 q 158 1257 158 1215 z "},"⁄":{"ha":425,"x_min":-240,"x_max":456,"o":"m 456 850 q 433 794 456 829 q 339 658 386 726 q 33 178 182 424 q -61 8 -18 93 q -100 -61 -96 -56 q -131 -79 -115 -79 q -226 -39 -168 -79 q -240 -17 -240 -29 q -182 83 -240 -1 q 7 379 -82 232 q 285 853 135 599 q 353 913 319 913 q 447 868 390 913 q 456 850 456 861 z "},"¤":{"ha":833,"x_min":24,"x_max":819,"o":"m 699 204 l 568 335 q 422 299 503 299 q 276 335 342 299 l 146 204 l 24 326 l 154 458 q 121 601 121 521 q 154 742 121 679 l 24 875 l 146 996 l 276 865 q 421 901 340 901 q 568 865 504 901 l 699 996 l 819 875 l 689 742 q 722 600 722 678 q 689 460 722 524 l 818 326 l 699 204 m 422 726 q 333 689 369 726 q 296 600 296 651 q 333 511 296 549 q 422 474 369 474 q 512 511 475 474 q 549 600 549 549 q 511 689 549 651 q 422 726 474 726 z "},"‹":{"ha":435,"x_min":22,"x_max":392,"o":"m 336 668 q 375 652 358 668 q 392 614 392 636 q 342 504 392 588 q 264 354 282 404 q 342 203 282 304 q 392 94 392 119 q 335 39 392 39 q 150 176 282 39 q 63 269 78 251 q 22 354 22 319 q 63 436 22 386 q 151 532 82 460 q 336 668 282 668 z "},"›":{"ha":381,"x_min":21,"x_max":390,"o":"m 390 353 q 350 271 390 321 q 261 175 332 249 q 78 39 131 39 q 38 54 54 39 q 21 93 21 69 q 71 203 21 119 q 150 354 131 304 q 71 504 131 403 q 22 613 22 588 q 79 668 22 668 q 264 531 131 668 q 350 436 335 456 q 390 353 390 386 z "},"":{"ha":868,"x_min":22,"x_max":838,"o":"m 439 233 q 489 435 485 338 q 479 525 490 481 l 476 531 q 432 486 468 486 q 421 488 428 486 q 408 488 413 488 q 383 478 390 488 q 389 394 379 471 q 403 296 396 346 q 439 233 404 275 m 407 617 q 407 628 407 622 q 517 746 407 694 q 694 792 614 792 q 745 760 721 792 q 763 704 769 729 q 747 589 763 665 q 732 472 732 513 q 785 247 732 388 q 838 104 838 107 q 753 -1 838 36 q 610 -29 689 -29 q 449 8 513 -29 q 244 -24 381 -24 q 99 7 158 -24 q 22 124 22 46 q 54 204 22 150 q 99 289 92 265 q 135 474 115 346 q 118 481 131 481 q 94 478 111 481 q 68 475 76 475 q 36 491 44 475 q 29 544 28 507 q 44 600 31 585 q 88 606 49 606 q 139 626 139 606 q 106 719 138 649 q 75 822 75 789 q 141 988 75 925 q 308 1051 207 1051 q 456 1001 394 1051 q 518 869 518 951 q 497 793 518 825 q 432 756 474 756 q 343 819 385 756 q 276 882 301 882 q 242 832 242 882 q 289 708 242 788 q 383 618 339 624 q 407 617 394 617 z "},"":{"ha":946,"x_min":22,"x_max":907,"o":"m 504 938 q 560 979 524 958 q 767 1040 664 1040 q 801 986 810 1040 l 763 717 l 763 697 q 794 451 763 613 q 854 211 824 304 q 885 164 858 197 q 907 118 907 135 q 676 -17 907 -17 q 489 36 547 -17 q 244 -24 431 -24 q 99 7 158 -24 q 22 124 22 46 q 54 204 22 150 q 99 289 92 265 q 135 474 115 346 q 118 481 131 481 q 94 478 111 481 q 68 475 76 475 q 36 491 44 475 q 29 544 28 507 q 44 600 31 585 q 72 606 49 606 l 88 606 q 139 626 139 606 q 106 719 138 649 q 75 822 75 789 q 141 988 75 925 q 308 1051 207 1051 q 428 1021 374 1051 q 504 938 482 990 m 511 824 q 432 756 492 756 q 343 819 385 756 q 276 882 301 882 q 242 832 242 882 q 289 708 242 788 q 383 618 339 624 q 448 615 415 618 q 481 575 481 613 q 432 486 481 486 q 421 488 428 486 q 408 488 413 488 q 383 478 390 488 q 389 394 379 471 q 403 296 396 346 q 432 243 404 276 q 483 179 481 183 q 493 200 490 189 q 540 430 518 279 q 563 664 563 581 l 563 671 q 563 675 563 672 q 533 811 563 785 q 511 824 529 814 z "},"‡":{"ha":689,"x_min":25,"x_max":660,"o":"m 660 188 q 589 49 660 49 q 535 89 576 49 q 428 135 493 129 q 418 104 418 121 q 442 -24 418 65 q 467 -137 467 -114 q 421 -199 467 -175 q 343 -218 383 -218 q 253 -188 294 -218 q 211 -112 211 -158 q 242 -28 211 -82 q 272 76 272 26 q 260 103 272 81 q 244 126 249 126 q 167 106 197 126 q 128 68 151 97 q 96 49 110 49 q 42 99 60 49 q 28 181 28 138 q 38 258 28 218 q 75 315 50 315 q 151 289 107 315 q 221 258 194 263 q 244 294 232 275 q 257 331 257 313 q 243 389 257 347 q 257 464 247 397 q 267 549 267 531 q 240 597 267 576 q 158 562 208 592 q 99 532 108 532 q 25 668 25 532 q 96 807 25 807 q 151 767 108 807 q 257 721 193 726 q 269 744 269 728 q 240 883 269 815 q 211 967 211 951 q 254 1044 211 1014 q 342 1074 293 1074 q 429 1044 390 1074 q 474 967 474 1014 q 443 882 474 936 q 413 779 413 828 q 424 751 413 774 q 440 728 436 728 q 518 749 488 728 q 557 786 532 758 q 589 807 574 807 q 643 756 624 807 q 657 675 657 717 q 649 596 657 636 q 610 540 635 540 q 536 565 576 540 q 465 597 490 593 q 436 572 461 592 q 419 544 419 558 q 428 463 419 528 q 442 389 438 397 q 424 317 424 342 q 444 258 424 286 q 526 294 476 264 q 586 324 576 324 q 660 188 660 324 z "},"·":{"ha":271,"x_min":36,"x_max":290,"o":"m 290 400 q 253 279 290 328 q 163 231 217 231 q 73 280 110 231 q 36 400 36 329 q 73 520 36 471 q 163 569 110 569 q 253 520 217 569 q 290 400 290 471 z "},"∙":{"ha":271,"x_min":36,"x_max":290,"o":"m 290 400 q 253 279 290 328 q 163 231 217 231 q 73 280 110 231 q 36 400 36 329 q 73 520 36 471 q 163 569 110 569 q 253 520 217 569 q 290 400 290 471 z "},"‚":{"ha":333,"x_min":36,"x_max":276,"o":"m 276 125 q 189 -174 276 -29 q 107 -250 143 -250 q 72 -235 89 -250 q 56 -199 56 -219 q 88 -134 56 -187 q 119 -33 119 -81 q 107 -1 119 -15 q 82 26 94 13 q 36 160 36 81 q 69 275 36 229 q 153 321 101 321 q 242 265 207 321 q 276 125 276 210 z "},"„":{"ha":619,"x_min":36,"x_max":563,"o":"m 563 125 q 475 -174 563 -29 q 392 -250 429 -250 q 358 -235 374 -250 q 342 -199 342 -219 q 373 -134 342 -187 q 404 -33 404 -81 q 392 -1 404 -15 q 367 26 381 13 q 322 160 322 79 q 355 275 322 229 q 438 321 388 321 q 528 265 493 321 q 563 125 563 210 m 276 125 q 189 -174 276 -29 q 107 -250 143 -250 q 72 -235 89 -250 q 56 -199 56 -219 q 88 -134 56 -187 q 119 -33 119 -81 q 107 -1 119 -15 q 82 26 94 13 q 36 160 36 81 q 69 275 36 229 q 153 321 101 321 q 242 265 207 321 q 276 125 276 210 z "},"‰":{"ha":1451,"x_min":21,"x_max":1488,"o":"m 778 1026 q 642 722 778 989 q 429 221 565 536 q 368 61 390 133 q 349 0 351 4 q 325 -17 336 -17 q 233 -6 300 -17 q 128 28 147 10 q 118 50 118 38 q 211 182 118 64 q 393 443 328 329 q 533 757 424 497 q 649 1029 592 893 q 700 1088 675 1088 q 771 1044 729 1088 q 778 1026 778 1038 m 426 706 q 365 515 426 589 q 219 440 304 440 q 78 511 136 440 q 21 697 21 582 q 85 892 21 818 q 233 963 144 963 q 369 889 313 963 q 426 706 426 815 m 267 649 q 251 768 267 713 q 210 833 235 833 q 178 761 178 833 q 192 646 178 704 q 236 576 210 576 q 267 649 267 576 m 1051 272 q 969 81 1051 156 q 775 7 888 7 q 586 78 663 7 q 510 264 510 149 q 596 458 510 383 q 794 531 676 531 q 975 456 899 531 q 1051 272 1051 382 m 838 217 q 818 336 838 279 q 763 400 796 400 q 719 329 719 400 q 739 214 719 272 q 797 144 763 144 q 838 217 838 144 m 1488 278 q 1426 87 1488 161 q 1281 13 1365 13 q 1140 84 1199 13 q 1082 269 1082 156 q 1144 463 1082 390 q 1296 535 1207 535 q 1431 461 1374 535 q 1488 278 1488 388 m 1329 221 q 1314 340 1329 285 q 1272 406 1297 406 q 1239 333 1239 406 q 1254 218 1239 276 q 1297 149 1272 149 q 1329 221 1329 149 z "},"Â":{"ha":1100,"x_min":11,"x_max":1078,"o":"m 1075 128 q 958 14 1069 47 q 782 -10 886 -10 q 632 8 678 -10 q 556 122 556 38 q 565 194 556 154 q 628 386 628 257 q 567 454 628 431 q 467 472 521 472 q 428 465 467 472 q 376 349 376 435 q 403 240 376 286 q 454 181 414 224 q 481 126 481 151 q 381 3 481 31 q 204 -11 332 -11 q 13 85 13 -11 q 86 222 11 169 q 240 490 174 285 q 297 803 297 669 q 279 889 297 854 q 247 929 269 908 q 229 954 229 946 q 378 1033 229 1000 q 563 1056 504 1061 q 713 996 661 1046 q 782 888 736 972 q 817 779 796 860 q 978 296 897 458 q 1021 248 990 272 q 1061 208 1051 224 q 1075 128 1078 179 m 583 661 q 557 735 583 672 q 494 792 535 792 q 446 732 472 792 q 424 653 424 681 q 458 640 424 640 q 488 642 468 640 q 515 644 507 644 q 549 640 543 644 q 583 661 583 643 m 782 1139 q 717 1100 782 1100 q 628 1131 672 1100 q 581 1166 619 1135 q 533 1197 542 1197 q 407 1114 486 1163 q 340 1100 379 1100 q 279 1140 279 1100 q 289 1164 279 1154 q 351 1238 297 1182 q 429 1304 406 1294 q 533 1350 474 1350 q 618 1315 583 1350 q 706 1243 644 1304 q 774 1163 767 1182 q 782 1139 782 1154 z "},"Ê":{"ha":839,"x_min":6,"x_max":814,"o":"m 128 779 q 94 871 119 851 q 60 892 82 878 q 43 939 43 908 q 115 1024 43 996 q 263 1046 175 1047 q 313 1043 279 1046 q 365 1040 347 1040 q 519 1047 413 1040 q 671 1054 626 1054 q 764 979 731 1054 q 789 853 789 921 q 772 781 789 810 q 711 744 750 744 q 647 779 674 744 q 588 844 608 831 q 436 881 536 881 q 406 881 407 881 q 386 847 392 875 q 383 828 383 838 q 429 753 383 782 q 525 728 469 728 q 552 743 536 728 q 579 758 568 758 q 600 728 600 758 q 588 635 600 679 q 533 572 569 572 q 492 607 513 572 q 433 642 472 642 q 388 568 388 642 q 590 394 388 394 q 617 399 599 394 q 644 400 635 403 q 661 399 654 399 q 719 432 696 399 q 756 465 742 465 q 792 438 776 465 q 807 386 807 410 q 810 315 807 372 q 814 219 814 257 q 744 0 814 50 q 568 -18 718 -18 q 454 -19 526 -18 q 338 -19 394 -21 l 76 -18 q 6 50 6 -17 q 26 97 6 76 q 65 140 61 132 l 92 182 q 115 340 111 214 l 126 699 q 128 779 129 744 m 718 1139 q 653 1100 718 1100 q 564 1131 607 1100 q 516 1166 554 1135 q 468 1197 478 1197 q 343 1114 421 1163 q 276 1100 315 1100 q 214 1140 214 1100 q 225 1164 214 1154 q 287 1238 232 1182 q 364 1304 342 1294 q 468 1350 408 1350 q 554 1315 519 1350 q 640 1243 579 1304 q 708 1163 701 1182 q 718 1139 718 1154 z "},"Á":{"ha":1100,"x_min":11,"x_max":1078,"o":"m 1075 128 q 958 14 1069 47 q 782 -10 886 -10 q 632 8 678 -10 q 556 122 556 38 q 565 194 556 154 q 628 386 628 257 q 567 454 628 431 q 467 472 521 472 q 428 465 467 472 q 376 349 376 435 q 403 240 376 286 q 454 181 414 224 q 481 126 481 151 q 381 3 481 31 q 204 -11 332 -11 q 13 85 13 -11 q 86 222 11 169 q 240 490 174 285 q 297 803 297 669 q 279 889 297 854 q 247 929 269 908 q 229 954 229 946 q 378 1033 229 1000 q 563 1056 504 1061 q 713 996 661 1046 q 782 888 736 972 q 817 779 796 860 q 978 296 897 458 q 1021 248 990 272 q 1061 208 1051 224 q 1075 128 1078 179 m 583 661 q 557 735 583 672 q 494 792 535 792 q 446 732 472 792 q 424 653 424 681 q 458 640 424 640 q 488 642 468 640 q 515 644 507 644 q 549 640 543 644 q 583 661 583 643 m 529 1304 q 581 1279 553 1304 q 614 1210 614 1250 q 583 1160 614 1175 q 504 1113 572 1144 q 406 1078 436 1082 q 369 1074 394 1074 q 322 1138 322 1074 q 385 1219 322 1176 q 424 1249 386 1222 q 467 1278 463 1275 q 529 1304 506 1304 z "},"Ë":{"ha":839,"x_min":6,"x_max":814,"o":"m 128 779 q 94 871 119 851 q 60 892 82 878 q 43 939 43 908 q 115 1024 43 996 q 263 1046 175 1047 q 313 1043 279 1046 q 365 1040 347 1040 q 519 1047 413 1040 q 671 1054 626 1054 q 764 979 731 1054 q 789 853 789 921 q 772 781 789 810 q 711 744 750 744 q 647 779 674 744 q 588 844 608 831 q 436 881 536 881 q 406 881 407 881 q 386 847 392 875 q 383 828 383 838 q 429 753 383 782 q 525 728 469 728 q 552 743 536 728 q 579 758 568 758 q 600 728 600 758 q 588 635 600 679 q 533 572 569 572 q 492 607 513 572 q 433 642 472 642 q 388 568 388 642 q 590 394 388 394 q 617 399 599 394 q 644 400 635 403 q 661 399 654 399 q 719 432 696 399 q 756 465 742 465 q 792 438 776 465 q 807 386 807 410 q 810 315 807 372 q 814 219 814 257 q 744 0 814 50 q 568 -18 718 -18 q 454 -19 526 -18 q 338 -19 394 -21 l 76 -18 q 6 50 6 -17 q 26 97 6 76 q 65 140 61 132 l 92 182 q 115 340 111 214 l 126 699 q 128 779 129 744 m 410 1257 q 450 1338 410 1308 q 525 1361 483 1361 q 588 1338 560 1361 q 615 1269 615 1314 q 572 1190 615 1221 q 494 1164 536 1164 q 438 1189 461 1164 q 410 1257 410 1215 m 138 1257 q 178 1338 138 1308 q 251 1361 211 1361 q 313 1340 288 1361 q 343 1269 343 1314 q 299 1190 343 1221 q 221 1164 263 1164 q 163 1190 189 1164 q 138 1257 138 1215 z "},"È":{"ha":839,"x_min":6,"x_max":814,"o":"m 128 779 q 94 871 119 851 q 60 892 82 878 q 43 939 43 908 q 115 1024 43 996 q 263 1046 175 1047 q 313 1043 279 1046 q 365 1040 347 1040 q 519 1047 413 1040 q 671 1054 626 1054 q 764 979 731 1054 q 789 853 789 921 q 772 781 789 810 q 711 744 750 744 q 647 779 674 744 q 588 844 608 831 q 436 881 536 881 q 406 881 407 881 q 386 847 392 875 q 383 828 383 838 q 429 753 383 782 q 525 728 469 728 q 552 743 536 728 q 579 758 568 758 q 600 728 600 758 q 588 635 600 679 q 533 572 569 572 q 492 607 513 572 q 433 642 472 642 q 388 568 388 642 q 590 394 388 394 q 617 399 599 394 q 644 400 635 403 q 661 399 654 399 q 719 432 696 399 q 756 465 742 465 q 792 438 776 465 q 807 386 807 410 q 810 315 807 372 q 814 219 814 257 q 744 0 814 50 q 568 -18 718 -18 q 454 -19 526 -18 q 338 -19 394 -21 l 76 -18 q 6 50 6 -17 q 26 97 6 76 q 65 140 61 132 l 92 182 q 115 340 111 214 l 126 699 q 128 779 129 744 m 626 1138 q 549 1072 626 1072 q 407 1106 513 1072 q 279 1160 297 1139 q 238 1210 238 1174 q 275 1275 238 1246 q 350 1304 313 1304 q 525 1244 378 1304 q 567 1214 543 1232 q 606 1181 586 1197 q 626 1138 626 1160 z "},"Í":{"ha":593,"x_min":6,"x_max":558,"o":"m 153 701 q 115 871 151 842 q 81 892 103 878 q 64 939 64 908 q 136 1024 64 996 q 283 1046 196 1047 q 457 1017 407 1044 q 500 949 500 994 q 487 908 500 921 q 460 885 474 896 q 439 854 446 874 q 414 668 414 793 l 414 661 q 453 410 426 542 q 501 233 481 261 q 539 192 519 214 q 558 147 558 169 q 501 7 558 33 q 264 -14 457 -14 q 57 17 108 -14 q 6 138 6 49 q 32 183 6 158 q 68 224 64 214 q 115 425 88 263 q 153 701 140 571 m 310 1304 q 363 1279 335 1304 q 396 1210 396 1250 q 364 1160 396 1175 q 286 1113 354 1144 q 188 1078 218 1082 q 151 1074 176 1074 q 104 1138 104 1074 q 167 1219 104 1176 q 206 1249 168 1222 q 249 1278 244 1275 q 310 1304 288 1304 z "},"Î":{"ha":593,"x_min":6,"x_max":569,"o":"m 153 701 q 115 871 151 842 q 81 892 103 878 q 64 939 64 908 q 136 1024 64 996 q 283 1046 196 1047 q 457 1017 407 1044 q 500 949 500 994 q 487 908 500 921 q 460 885 474 896 q 439 854 446 874 q 414 668 414 793 l 414 661 q 453 410 426 542 q 501 233 481 261 q 539 192 519 214 q 558 147 558 169 q 501 7 558 33 q 264 -14 457 -14 q 57 17 108 -14 q 6 138 6 49 q 32 183 6 158 q 68 224 64 214 q 115 425 88 263 q 153 701 140 571 m 569 1139 q 504 1100 569 1100 q 417 1131 460 1100 q 369 1166 407 1135 q 321 1197 331 1197 q 196 1114 274 1163 q 128 1100 167 1100 q 67 1140 67 1100 q 76 1164 67 1154 q 139 1238 85 1182 q 217 1304 193 1294 q 321 1350 261 1350 q 407 1315 372 1350 q 493 1243 432 1304 q 561 1163 554 1182 q 569 1139 569 1154 z "},"Ï":{"ha":593,"x_min":-10,"x_max":558,"o":"m 153 701 q 115 871 151 842 q 81 892 103 878 q 64 939 64 908 q 136 1024 64 996 q 283 1046 196 1047 q 457 1017 407 1044 q 500 949 500 994 q 487 908 500 921 q 460 885 474 896 q 439 854 446 874 q 414 668 414 793 l 414 661 q 453 410 426 542 q 501 233 481 261 q 539 192 519 214 q 558 147 558 169 q 501 7 558 33 q 264 -14 457 -14 q 57 17 108 -14 q 6 138 6 49 q 32 183 6 158 q 68 224 64 214 q 115 425 88 263 q 153 701 140 571 m 263 1257 q 303 1338 263 1308 q 378 1361 336 1361 q 440 1338 413 1361 q 468 1269 468 1314 q 425 1190 468 1221 q 347 1164 389 1164 q 290 1189 314 1164 q 263 1257 263 1215 m -10 1257 q 31 1338 -10 1308 q 106 1361 64 1361 q 165 1340 140 1361 q 196 1269 196 1314 q 153 1190 196 1221 q 75 1164 117 1164 q 16 1190 42 1164 q -10 1257 -10 1215 z "},"Ì":{"ha":593,"x_min":6,"x_max":558,"o":"m 153 701 q 115 871 151 842 q 81 892 103 878 q 64 939 64 908 q 136 1024 64 996 q 283 1046 196 1047 q 457 1017 407 1044 q 500 949 500 994 q 487 908 500 921 q 460 885 474 896 q 439 854 446 874 q 414 668 414 793 l 414 661 q 453 410 426 542 q 501 233 481 261 q 539 192 519 214 q 558 147 558 169 q 501 7 558 33 q 264 -14 457 -14 q 57 17 108 -14 q 6 138 6 49 q 32 183 6 158 q 68 224 64 214 q 115 425 88 263 q 153 701 140 571 m 479 1138 q 403 1072 479 1072 q 260 1106 365 1072 q 132 1160 150 1139 q 90 1210 90 1174 q 128 1275 90 1246 q 203 1304 165 1304 q 378 1244 231 1304 q 419 1214 396 1232 q 458 1181 439 1197 q 479 1138 479 1160 z "},"Ó":{"ha":918,"x_min":33,"x_max":890,"o":"m 890 374 q 758 81 890 199 q 456 -31 633 -31 q 140 125 260 -31 q 33 471 33 267 q 142 864 33 696 q 478 1058 267 1058 q 797 822 685 1058 q 890 374 890 629 m 586 556 q 546 758 586 647 q 422 897 496 897 q 356 833 379 897 q 338 729 338 785 q 368 553 338 635 q 489 443 410 443 q 586 556 586 443 m 510 1304 q 563 1279 535 1304 q 594 1210 594 1250 q 564 1160 594 1175 q 485 1113 554 1144 q 386 1078 417 1082 q 351 1074 376 1074 q 303 1138 303 1074 q 365 1219 303 1176 q 406 1249 368 1222 q 449 1278 444 1275 q 510 1304 486 1304 z "},"Ô":{"ha":918,"x_min":33,"x_max":890,"o":"m 890 374 q 758 81 890 199 q 456 -31 633 -31 q 140 125 260 -31 q 33 471 33 267 q 142 864 33 696 q 478 1058 267 1058 q 797 822 685 1058 q 890 374 890 629 m 586 556 q 546 758 586 647 q 422 897 496 897 q 356 833 379 897 q 338 729 338 785 q 368 553 338 635 q 489 443 410 443 q 586 556 586 443 m 769 1139 q 704 1100 769 1100 q 617 1131 660 1100 q 569 1166 607 1135 q 521 1197 531 1197 q 396 1114 474 1163 q 328 1100 367 1100 q 267 1140 267 1100 q 276 1164 267 1154 q 339 1238 285 1182 q 417 1304 393 1294 q 521 1350 461 1350 q 607 1315 572 1350 q 693 1243 632 1304 q 761 1163 754 1182 q 769 1139 769 1154 z "},"":{"ha":1107,"x_min":18,"x_max":1076,"o":"m 111 728 q 94 667 113 681 l 104 660 q 132 567 128 633 q 92 507 136 510 q 31 507 57 506 q 36 733 42 626 l 33 736 l 18 724 q 21 769 18 765 q 79 804 40 783 q 111 728 108 804 m 57 544 l 65 539 l 82 542 q 103 568 103 544 l 100 590 q 92 632 100 611 q 65 636 83 639 l 58 636 l 58 596 q 58 571 58 589 q 57 544 58 553 m 86 714 q 85 731 88 722 q 83 743 83 740 q 72 757 83 756 l 64 753 l 50 749 q 51 706 50 715 q 56 676 51 696 q 86 692 83 683 q 86 714 86 703 m 156 738 l 136 733 q 138 700 135 732 q 143 642 139 686 q 154 645 147 644 q 164 647 161 646 l 171 657 q 171 694 172 674 q 168 719 169 707 q 156 738 167 732 m 199 520 q 194 525 199 520 q 181 572 190 529 q 156 610 172 607 q 158 594 156 604 q 160 581 160 585 q 169 518 161 563 l 171 511 q 143 510 167 513 q 115 722 133 581 q 118 761 115 757 q 147 767 129 767 q 158 768 149 767 q 169 769 168 769 q 199 671 196 758 q 178 628 200 643 q 204 568 199 611 q 217 554 207 556 l 228 554 q 313 550 286 554 l 321 511 q 199 520 207 511 m 236 814 q 306 564 257 676 q 275 569 294 565 q 253 618 272 589 l 239 621 q 243 586 243 588 q 246 568 244 581 q 232 567 243 569 q 219 565 221 565 l 218 578 q 201 776 214 644 l 190 785 q 118 774 165 785 l 121 814 q 164 821 146 821 l 211 819 q 236 814 218 819 m 225 779 l 218 779 q 217 714 214 750 q 222 660 218 685 l 232 657 q 240 657 235 656 q 250 658 246 657 q 238 722 243 675 q 225 779 232 765 m 314 722 q 363 508 333 653 l 329 508 q 276 732 311 583 q 314 722 290 731 m 272 806 q 304 799 283 806 q 311 743 301 764 q 301 740 296 743 q 276 749 293 739 q 274 757 276 751 q 272 764 272 763 l 272 806 m 374 658 q 396 582 386 631 q 411 504 407 517 q 379 507 407 507 q 343 664 369 565 q 326 739 339 692 q 318 747 318 744 q 310 797 306 772 q 347 789 310 797 q 450 582 385 692 q 397 792 428 651 l 404 792 q 417 786 408 796 l 425 790 l 426 778 q 451 640 424 726 q 490 500 486 536 q 476 496 489 499 q 460 497 465 496 q 422 581 450 532 q 376 663 378 660 l 374 658 m 883 685 q 850 681 879 681 q 835 660 832 679 q 842 638 835 642 q 888 644 858 638 q 893 614 890 636 l 882 615 q 864 613 876 615 q 844 610 851 610 q 846 558 844 592 q 860 536 846 536 q 899 554 864 536 l 900 518 q 824 489 876 506 q 821 578 825 547 l 808 701 l 818 708 l 828 710 q 885 711 843 707 q 883 685 885 694 m 931 729 q 911 731 924 729 q 906 721 904 729 q 909 708 908 714 q 918 654 910 703 q 936 654 936 654 q 951 669 947 654 q 953 693 956 681 q 940 726 953 715 l 931 729 m 1068 554 l 1074 558 l 1076 540 q 1060 533 1068 533 q 1000 536 1032 532 q 971 535 997 535 q 954 558 957 535 q 949 599 953 578 q 935 621 946 619 l 928 617 q 931 578 924 597 q 938 529 938 535 l 925 522 q 910 519 914 522 q 900 665 907 568 q 890 725 897 701 q 863 725 879 728 q 835 721 840 721 l 822 721 l 821 763 q 866 765 836 763 q 908 767 896 767 q 963 747 951 767 q 978 704 971 738 q 964 650 985 671 l 956 642 q 972 615 969 633 q 976 583 975 597 q 990 561 976 568 q 1039 556 999 560 q 1068 554 1064 558 m 621 726 q 572 725 618 725 q 556 722 564 725 q 565 692 560 714 q 578 640 567 676 q 603 636 585 640 q 631 633 621 632 q 638 608 635 621 l 639 589 q 618 592 635 589 q 596 594 601 596 q 593 572 593 594 q 597 539 597 539 q 631 530 607 533 q 664 519 654 526 q 669 467 664 503 q 624 476 660 468 q 576 482 594 482 q 535 706 572 547 q 525 725 535 706 l 513 728 q 494 767 507 732 q 611 764 536 767 q 621 726 614 751 m 632 763 l 638 764 q 701 767 658 763 q 764 469 749 569 q 729 461 740 467 l 731 472 l 728 533 q 703 535 728 546 q 699 464 699 533 q 681 463 694 474 l 674 467 q 671 656 675 558 q 664 721 668 699 l 646 724 q 632 735 633 722 q 631 758 631 747 l 632 763 m 697 574 q 714 576 711 576 l 721 582 l 721 596 q 715 626 721 607 q 710 656 710 646 q 693 724 710 657 l 682 728 q 684 671 679 725 q 692 603 689 617 l 697 574 m 757 725 l 750 726 q 721 725 740 728 q 718 740 718 729 l 718 763 l 736 764 q 790 761 769 767 l 808 765 q 815 714 813 756 q 785 713 806 711 q 807 517 801 653 l 808 482 q 795 479 806 478 q 781 475 785 481 q 778 538 782 488 q 765 638 776 553 q 757 725 756 714 m 1039 565 q 989 601 1003 564 l 986 621 q 988 629 986 624 q 989 636 989 635 l 1008 626 l 1007 606 l 1011 594 q 1040 586 1022 583 q 1056 601 1051 588 q 1011 633 1047 619 q 982 701 986 642 q 1008 732 981 729 q 1065 674 1056 736 l 1051 667 q 1028 704 1042 697 q 1007 699 1015 707 l 1004 686 q 1017 660 1001 675 q 1072 597 1069 640 q 1039 565 1065 567 m 997 767 l 996 758 l 1006 758 l 1003 742 l 1013 742 l 1015 758 l 1025 757 l 1026 767 l 997 767 m 1029 767 l 1024 739 l 1031 739 l 1035 756 l 1039 739 l 1046 751 l 1049 736 l 1054 736 l 1058 765 l 1050 765 l 1042 753 l 1038 765 l 1029 767 m 68 421 l 68 403 q 97 403 68 403 q 97 385 97 385 q 86 386 94 385 q 75 386 79 386 l 68 386 q 68 338 68 386 q 42 338 42 338 q 44 440 44 372 q 106 438 86 438 q 106 418 106 418 q 78 421 86 421 l 68 421 m 114 386 q 158 446 114 446 q 201 389 201 446 q 154 333 201 333 q 114 386 114 333 m 156 422 q 132 390 132 422 q 154 364 132 364 q 174 390 174 364 l 174 396 q 156 422 174 422 m 235 394 q 233 365 235 388 q 233 338 232 347 q 210 338 210 338 q 214 440 217 389 q 236 439 217 439 q 260 364 243 414 q 263 439 264 406 q 294 438 267 438 q 292 335 292 404 l 251 338 q 235 394 246 356 m 357 336 q 325 336 347 339 q 328 396 328 357 l 328 419 l 322 419 q 315 421 321 419 q 307 421 310 421 q 308 440 308 428 q 381 438 347 436 q 379 417 381 411 q 364 417 364 417 l 360 417 q 357 336 357 390 m 493 375 q 454 333 486 333 q 415 385 415 333 q 456 446 415 446 q 493 403 493 446 l 468 403 q 453 422 464 422 q 436 393 436 422 q 454 367 436 367 q 464 376 464 367 q 479 376 469 376 q 493 375 489 375 m 508 386 q 553 443 508 443 q 594 389 594 443 q 549 333 594 333 q 508 386 508 333 m 549 422 q 526 390 526 422 q 549 364 526 364 q 568 390 568 364 l 568 396 q 549 422 568 422 m 656 336 q 640 336 656 336 l 638 336 q 625 389 636 343 q 622 338 625 371 q 604 338 604 338 q 610 440 606 354 q 640 439 614 439 q 650 375 649 397 q 660 438 653 386 q 700 438 681 435 q 699 387 700 421 q 697 335 697 353 q 667 336 688 335 q 669 389 669 369 q 663 363 668 381 q 656 336 657 346 m 738 368 l 736 338 l 713 338 q 715 440 715 360 q 735 440 722 440 q 753 439 747 439 q 786 404 786 439 q 738 368 786 363 m 736 421 q 735 406 735 415 l 735 394 l 753 394 q 760 406 760 394 q 736 421 760 418 m 832 336 q 829 353 832 342 l 806 354 l 801 338 l 779 340 q 815 440 792 368 q 842 438 832 438 q 865 333 850 386 q 832 336 854 335 m 811 376 q 819 375 814 375 l 828 375 q 821 415 826 392 q 811 376 818 406 m 903 394 q 903 365 903 385 q 901 338 901 346 q 879 338 879 338 q 882 440 883 394 q 904 439 886 439 q 929 364 911 414 q 931 439 932 415 q 963 438 935 438 q 960 335 963 404 l 921 338 q 903 394 914 356 m 1032 336 l 1000 338 q 1003 375 1003 360 q 975 440 1003 385 q 997 440 997 440 q 1014 393 1000 424 q 1031 440 1024 413 q 1063 438 1038 438 q 1032 374 1032 386 l 1032 336 z "},"Ò":{"ha":915,"x_min":33,"x_max":890,"o":"m 890 374 q 758 81 890 199 q 456 -31 633 -31 q 140 125 260 -31 q 33 471 33 267 q 142 864 33 696 q 478 1058 267 1058 q 797 822 685 1058 q 890 374 890 629 m 586 556 q 546 758 586 647 q 422 897 496 897 q 356 833 379 897 q 338 729 338 785 q 368 553 338 635 q 489 443 410 443 q 586 556 586 443 m 679 1138 q 601 1072 679 1072 q 460 1106 564 1072 q 332 1160 350 1139 q 290 1210 290 1174 q 328 1275 290 1246 q 403 1304 365 1304 q 578 1244 431 1304 q 619 1214 596 1232 q 658 1181 639 1197 q 679 1138 679 1160 z "},"Ú":{"ha":964,"x_min":1,"x_max":985,"o":"m 899 651 q 901 510 899 604 q 903 369 903 417 q 785 113 903 235 q 531 -8 667 -8 q 185 85 285 -8 q 81 419 81 181 q 85 557 81 465 q 90 694 90 649 q 68 843 90 796 q 25 890 57 865 q 1 939 1 908 q 81 1026 1 999 q 210 1046 135 1046 q 438 949 438 1046 q 414 897 438 918 q 375 854 382 869 q 351 668 351 799 l 350 671 q 375 499 351 543 q 529 435 411 435 q 665 476 629 435 q 700 621 700 518 q 692 786 700 726 q 643 882 682 858 q 608 939 608 901 q 828 1046 608 1046 q 928 1028 885 1046 q 985 953 985 1003 q 961 901 985 922 q 924 860 931 875 q 899 651 899 799 m 535 1304 q 588 1279 560 1304 q 619 1210 619 1250 q 589 1160 619 1175 q 510 1113 579 1144 q 411 1078 442 1082 q 376 1074 401 1074 q 328 1138 328 1074 q 390 1219 328 1176 q 431 1249 393 1222 q 474 1278 469 1275 q 535 1304 511 1304 z "},"Û":{"ha":964,"x_min":1,"x_max":985,"o":"m 899 651 q 901 510 899 604 q 903 369 903 417 q 785 113 903 235 q 531 -8 667 -8 q 185 85 285 -8 q 81 419 81 181 q 85 557 81 465 q 90 694 90 649 q 68 843 90 796 q 25 890 57 865 q 1 939 1 908 q 81 1026 1 999 q 210 1046 135 1046 q 438 949 438 1046 q 414 897 438 918 q 375 854 382 869 q 351 668 351 799 l 350 671 q 375 499 351 543 q 529 435 411 435 q 665 476 629 435 q 700 621 700 518 q 692 786 700 726 q 643 882 682 858 q 608 939 608 901 q 828 1046 608 1046 q 928 1028 885 1046 q 985 953 985 1003 q 961 901 985 922 q 924 860 931 875 q 899 651 899 799 m 794 1139 q 729 1100 794 1100 q 642 1131 685 1100 q 594 1166 632 1135 q 546 1197 556 1197 q 421 1114 499 1163 q 353 1100 392 1100 q 292 1140 292 1100 q 301 1164 292 1154 q 364 1238 310 1182 q 442 1304 418 1294 q 546 1350 486 1350 q 632 1315 597 1350 q 718 1243 657 1304 q 786 1163 779 1182 q 794 1139 794 1154 z "},"Ù":{"ha":964,"x_min":1,"x_max":985,"o":"m 899 651 q 901 510 899 604 q 903 369 903 417 q 785 113 903 235 q 531 -8 667 -8 q 185 85 285 -8 q 81 419 81 181 q 85 557 81 465 q 90 694 90 649 q 68 843 90 796 q 25 890 57 865 q 1 939 1 908 q 81 1026 1 999 q 210 1046 135 1046 q 438 949 438 1046 q 414 897 438 918 q 375 854 382 869 q 351 668 351 799 l 350 671 q 375 499 351 543 q 529 435 411 435 q 665 476 629 435 q 700 621 700 518 q 692 786 700 726 q 643 882 682 858 q 608 939 608 901 q 828 1046 608 1046 q 928 1028 885 1046 q 985 953 985 1003 q 961 901 985 922 q 924 860 931 875 q 899 651 899 799 m 704 1138 q 626 1072 704 1072 q 485 1106 589 1072 q 357 1160 375 1139 q 315 1210 315 1174 q 353 1275 315 1246 q 428 1304 390 1304 q 603 1244 456 1304 q 644 1214 621 1232 q 683 1181 664 1197 q 704 1138 704 1160 z "},"ı":{"ha":426,"x_min":17,"x_max":390,"o":"m 210 -14 q 21 72 21 -14 q 38 114 21 96 q 62 139 50 125 q 78 169 74 153 q 85 426 99 244 q 39 550 79 513 q 17 593 17 571 q 83 665 17 632 q 221 715 143 696 q 304 729 279 729 q 326 701 325 729 q 328 665 328 688 l 328 240 q 349 146 328 181 q 379 108 350 143 q 390 74 390 96 q 210 -14 390 -14 z "},"ˆ":{"ha":638,"x_min":107,"x_max":610,"o":"m 610 863 q 544 825 610 824 q 456 854 500 825 q 407 892 447 858 q 361 921 369 921 q 235 838 314 886 q 168 825 207 825 q 107 865 107 824 q 117 889 107 878 q 178 963 124 907 q 257 1029 233 1019 q 361 1074 301 1074 q 446 1039 411 1074 q 532 968 471 1029 q 601 888 593 907 q 610 863 610 878 z "},"˜":{"ha":701,"x_min":92,"x_max":682,"o":"m 682 1017 q 634 907 682 957 q 522 857 586 857 q 378 890 471 857 q 261 924 286 924 q 219 885 226 924 q 171 846 211 846 q 92 897 92 846 q 128 992 92 939 q 247 1061 178 1061 q 384 1027 290 1061 q 511 993 478 993 q 556 1028 549 993 q 603 1068 563 1068 q 682 1017 682 1068 z "},"¯":{"ha":676,"x_min":129,"x_max":656,"o":"m 649 989 q 625 940 656 967 q 592 913 610 928 q 535 894 581 894 q 484 897 535 894 q 406 899 433 899 l 221 899 l 221 899 q 174 913 199 899 q 156 922 163 915 q 147 928 149 928 q 135 939 140 928 q 129 958 129 950 q 129 961 129 960 q 151 1007 131 989 q 185 1036 167 1019 q 243 1054 196 1054 q 293 1052 243 1054 q 372 1050 343 1050 l 556 1049 q 631 1038 625 1049 q 644 1015 636 1036 q 649 989 651 994 z "},"ˉ":{"ha":676,"x_min":129,"x_max":656,"o":"m 649 989 q 625 940 656 967 q 592 913 610 928 q 535 894 581 894 q 484 897 535 894 q 406 899 433 899 l 221 899 l 221 899 q 174 913 199 899 q 156 922 163 915 q 147 928 149 928 q 135 939 140 928 q 129 958 129 950 q 129 961 129 960 q 151 1007 131 989 q 185 1036 167 1019 q 243 1054 196 1054 q 293 1052 243 1054 q 372 1050 343 1050 l 556 1049 q 631 1038 625 1049 q 644 1015 636 1036 q 649 989 651 994 z "},"˘":{"ha":651,"x_min":118,"x_max":640,"o":"m 640 1053 q 568 915 640 983 q 381 838 488 838 q 192 917 275 838 q 118 1053 118 988 q 146 1082 118 1082 q 193 1047 154 1082 q 379 976 275 976 q 567 1047 485 976 q 614 1081 604 1081 q 640 1053 640 1081 z "},"˙":{"ha":488,"x_min":174,"x_max":457,"o":"m 174 956 q 228 1039 174 1008 q 332 1065 274 1065 q 415 1042 379 1065 q 457 969 457 1015 q 397 886 457 918 q 290 860 347 860 q 211 885 244 860 q 174 956 174 911 z "},"˚":{"ha":565,"x_min":128,"x_max":533,"o":"m 533 957 q 469 829 533 876 q 331 788 411 788 q 189 829 246 788 q 128 957 128 876 q 190 1083 128 1036 q 331 1126 246 1126 q 469 1083 411 1126 q 533 957 533 1036 m 404 957 q 384 1013 404 989 q 331 1036 364 1036 q 277 1013 297 1036 q 257 957 257 989 q 277 901 257 924 q 331 878 297 878 q 384 901 364 878 q 404 957 404 924 z "},"¸":{"ha":439,"x_min":138,"x_max":471,"o":"m 471 -169 q 417 -254 471 -222 q 301 -283 369 -283 q 176 -257 224 -283 q 138 -210 138 -236 q 164 -172 138 -179 q 206 -172 176 -169 q 261 -175 242 -176 q 310 -144 310 -172 q 285 -119 310 -125 q 246 -112 265 -115 q 221 -90 233 -111 q 199 0 201 -58 q 268 0 233 0 l 335 0 q 336 -34 335 -7 q 336 -62 338 -61 q 378 -72 335 -64 q 471 -169 471 -90 z "},"˝":{"ha":789,"x_min":150,"x_max":774,"o":"m 774 989 q 751 949 774 965 q 676 881 740 931 q 574 817 608 828 q 515 797 547 797 q 470 813 492 797 q 449 849 449 828 q 474 894 449 869 q 513 933 508 926 q 568 1028 536 978 q 647 1064 589 1064 q 724 1040 679 1064 q 774 989 774 1015 m 472 992 q 451 954 472 969 q 376 883 440 933 q 275 818 310 829 q 217 799 249 799 q 172 813 193 799 q 150 849 150 826 q 175 893 150 868 q 213 932 207 924 q 265 1029 235 979 q 301 1057 274 1046 q 343 1067 325 1067 q 421 1044 376 1067 q 472 992 472 1019 z "},"˛":{"ha":438,"x_min":140,"x_max":469,"o":"m 469 -196 q 429 -267 469 -236 q 300 -303 382 -303 q 171 -260 214 -303 q 140 -189 140 -229 q 174 -101 140 -142 q 294 0 207 -60 l 393 0 q 392 -3 393 -1 q 294 -139 294 -67 q 354 -196 294 -196 q 405 -181 378 -196 q 443 -165 432 -165 q 469 -196 469 -165 z "},"ˇ":{"ha":621,"x_min":107,"x_max":610,"o":"m 494 1053 q 504 1056 494 1053 q 549 1061 514 1060 q 610 1021 610 1061 q 600 996 610 1006 q 538 923 593 979 q 460 856 483 867 q 356 811 415 811 q 268 846 304 811 q 183 917 243 856 q 115 997 122 978 q 107 1024 107 1006 q 172 1061 107 1061 q 273 1008 188 1060 q 375 956 358 956 q 494 1053 475 1046 z "},"Ł":{"ha":801,"x_min":14,"x_max":782,"o":"m 603 -4 l 532 -7 q 197 -8 521 -8 q 22 122 22 -8 q 60 226 22 151 q 107 347 101 310 l 97 340 q 46 314 60 314 q 14 360 14 314 q 14 382 14 376 q 28 425 17 408 q 58 456 29 426 l 129 525 q 136 678 138 621 q 94 871 136 838 q 60 892 82 878 q 43 939 43 908 q 115 1024 43 996 q 263 1046 175 1047 q 436 1017 386 1044 q 479 949 479 994 q 456 897 479 915 q 448 888 453 889 q 440 885 443 886 q 418 854 425 874 q 393 686 393 794 q 393 650 393 676 l 467 699 q 522 725 508 725 q 556 658 556 725 q 511 588 556 621 l 401 504 q 400 496 401 501 q 488 328 431 328 q 565 353 528 328 q 640 397 621 389 q 696 413 678 413 q 732 400 714 413 q 771 367 765 376 q 782 274 782 344 q 729 29 782 97 q 651 -6 701 -6 q 625 -4 643 -6 q 603 -4 610 -3 z "},"ł":{"ha":515,"x_min":-8,"x_max":494,"o":"m 67 876 q 147 979 67 932 q 354 1040 253 1040 q 389 986 397 1040 l 351 731 q 350 679 353 713 q 356 618 351 651 q 401 651 396 649 q 432 665 424 665 q 454 624 454 665 q 417 550 454 576 l 369 518 q 442 211 401 333 q 471 166 447 197 q 494 118 494 135 q 264 -17 494 -17 q 119 10 176 -17 q 40 122 40 44 q 57 161 40 140 q 82 200 78 188 q 122 390 101 267 l 61 354 q 14 328 25 328 q -8 363 -8 328 q -7 381 -8 376 q 33 446 -3 424 l 139 507 q 151 664 151 607 l 151 671 q 150 675 150 672 q 121 811 150 785 q 85 833 103 822 q 67 876 67 844 z "},"Š":{"ha":790,"x_min":3,"x_max":783,"o":"m 232 367 q 328 458 328 367 q 264 543 328 489 q 149 649 168 626 q 85 790 85 719 q 186 990 85 917 q 407 1056 276 1056 q 527 1040 449 1056 q 649 1025 606 1025 q 724 853 724 1025 q 646 754 724 754 q 542 833 592 754 q 447 913 493 913 q 346 839 346 913 q 460 742 346 796 q 669 621 614 669 q 783 368 783 522 q 674 92 783 200 q 397 -17 565 -17 q 121 67 228 -17 q 3 324 3 157 q 89 407 3 407 q 147 387 117 407 q 232 367 176 367 m 582 1329 q 633 1336 599 1336 q 694 1296 694 1336 q 685 1272 694 1282 q 623 1198 678 1254 q 544 1132 568 1142 q 440 1088 500 1088 q 354 1121 389 1088 q 269 1192 329 1132 q 201 1272 208 1253 q 192 1299 192 1282 q 257 1336 192 1336 q 358 1284 272 1336 q 461 1232 443 1232 q 582 1329 561 1321 z "},"š":{"ha":613,"x_min":28,"x_max":600,"o":"m 65 601 q 135 746 65 693 q 292 796 197 796 q 485 715 410 796 q 546 607 546 653 q 467 553 546 553 q 394 608 428 553 q 336 664 361 664 q 305 652 319 664 q 290 624 290 640 q 365 542 290 586 q 506 442 469 481 q 581 233 581 360 q 498 59 581 129 q 311 -11 415 -11 q 28 253 28 -11 q 72 315 28 315 q 106 306 85 315 q 140 297 128 297 q 193 350 193 297 q 129 459 193 386 q 65 601 65 532 m 486 1053 q 496 1056 486 1053 q 539 1061 506 1060 q 600 1021 600 1061 q 592 996 600 1006 q 530 923 585 979 q 451 856 475 867 q 347 811 407 811 q 260 846 296 811 q 174 917 235 856 q 107 997 114 978 q 97 1024 97 1006 q 163 1061 97 1061 q 265 1008 179 1060 q 367 956 350 956 q 486 1053 467 1046 z "},"Ž":{"ha":860,"x_min":0,"x_max":838,"o":"m 371 360 q 479 335 388 344 q 600 328 549 328 q 697 353 647 328 q 764 378 746 378 q 819 340 797 378 q 838 274 838 310 q 828 151 838 222 q 794 42 815 56 q 650 -8 722 -8 q 540 -4 621 -8 q 432 -1 468 -1 q 78 -12 260 -7 q 53 -15 69 -12 q 26 -18 36 -18 q 1 1 6 -18 q 0 38 0 6 q 197 535 0 235 q 463 864 349 765 q 465 868 465 865 q 417 892 465 879 q 353 903 375 903 q 250 860 299 903 q 176 781 214 821 q 107 740 139 740 q 58 756 85 740 q 24 869 24 813 q 49 988 24 953 q 332 1049 93 1049 q 421 1047 368 1049 q 485 1046 474 1046 q 636 1036 588 1046 q 735 949 735 1014 q 725 910 735 924 q 698 887 724 908 q 588 739 672 865 q 469 551 517 632 l 371 360 m 583 1329 q 635 1336 600 1336 q 696 1296 696 1336 q 686 1272 696 1282 q 626 1199 679 1254 q 547 1132 569 1142 q 443 1088 501 1088 q 356 1121 390 1088 q 270 1192 331 1132 q 203 1272 210 1253 q 193 1299 193 1282 q 258 1336 193 1336 q 360 1284 274 1336 q 463 1232 446 1232 q 583 1329 563 1321 z "},"ž":{"ha":621,"x_min":-4,"x_max":629,"o":"m 568 228 q 540 92 568 172 q 463 -7 507 -7 q 403 -3 446 -7 q 338 0 361 1 l 83 -7 q 24 1 44 -8 q 0 51 -4 15 q 89 289 14 178 q 233 457 128 344 q 347 607 322 550 q 350 619 350 614 q 299 643 350 643 q 230 637 272 643 q 186 631 188 631 q 165 599 171 629 q 146 540 157 556 q 64 511 122 508 q 25 540 39 511 q 14 592 14 564 q 46 708 14 639 q 122 789 82 789 q 199 786 147 789 q 281 783 251 783 q 343 786 283 783 q 443 789 403 789 q 576 756 576 789 q 469 491 576 683 q 361 231 361 299 q 394 201 361 200 q 413 235 407 201 q 435 293 421 276 q 513 321 458 324 q 568 228 568 317 m 515 1053 q 525 1056 515 1053 q 568 1061 535 1060 q 629 1021 629 1061 q 621 996 629 1006 q 559 923 614 979 q 481 856 504 867 q 376 811 436 811 q 289 846 325 811 q 203 917 264 856 q 136 997 143 978 q 126 1024 126 1006 q 192 1061 126 1061 q 294 1008 208 1060 q 396 956 379 956 q 515 1053 496 1046 z "},"¦":{"ha":381,"x_min":193,"x_max":326,"o":"m 326 592 q 288 557 326 571 q 224 547 256 547 q 193 672 193 547 l 193 856 q 224 982 193 982 q 288 971 256 982 q 326 938 326 958 l 326 592 m 326 -83 q 288 -118 326 -104 q 224 -129 256 -129 q 193 -3 193 -129 l 193 181 q 224 307 193 307 q 288 296 256 307 q 326 263 326 283 l 326 -83 z "},"Ð":{"ha":1010,"x_min":11,"x_max":992,"o":"m 211 517 l 199 517 q 81 519 151 517 q 11 558 24 526 q 47 678 18 610 q 114 738 68 725 q 215 735 131 738 q 178 871 210 844 q 143 892 165 878 q 126 939 126 908 q 199 1024 126 996 q 346 1046 258 1047 q 422 1042 364 1046 q 829 910 693 1024 q 992 481 992 772 q 881 128 992 260 q 546 -14 761 -14 q 365 -15 261 -14 q 169 6 228 -14 q 104 31 117 22 q 83 78 79 46 q 119 175 90 143 q 171 251 158 217 q 211 517 201 339 m 618 683 q 586 586 618 657 q 568 543 585 581 q 490 515 549 525 l 490 504 q 556 389 493 389 q 663 471 628 389 q 689 615 689 531 q 663 790 689 719 q 542 899 625 894 q 524 885 535 894 q 501 854 508 874 q 488 810 493 835 l 488 729 q 558 731 526 729 q 588 732 590 732 q 618 683 618 718 z "},"ð":{"ha":806,"x_min":26,"x_max":846,"o":"m 372 542 q 306 475 328 542 q 290 372 290 429 q 306 286 290 322 q 369 238 326 238 q 411 250 397 238 q 433 431 433 268 q 372 542 433 542 m 836 1014 q 846 967 846 990 q 846 921 846 961 q 725 833 828 876 q 682 815 715 829 l 671 524 q 699 235 664 363 q 738 143 704 213 q 767 54 767 88 q 664 -57 767 -11 q 504 -96 579 -96 q 440 -77 478 -96 q 383 -58 403 -58 q 324 -72 364 -58 q 261 -85 283 -85 q 85 50 156 -85 q 26 278 26 163 q 90 536 26 400 q 275 699 167 699 q 411 658 344 699 q 451 628 426 649 q 474 613 471 613 q 467 732 474 628 q 407 708 444 722 q 328 717 350 692 q 314 785 314 765 q 351 865 314 836 q 449 904 368 872 q 440 940 444 939 q 407 960 410 957 q 392 1001 392 972 q 472 1104 392 1057 q 679 1165 578 1165 q 715 1111 722 1165 l 700 1006 q 767 1035 739 1022 l 790 1046 q 836 1014 824 1044 z "},"Ý":{"ha":888,"x_min":22,"x_max":903,"o":"m 569 551 q 643 233 611 276 q 678 193 661 214 q 700 147 700 169 q 642 7 700 33 q 406 -14 597 -14 q 199 17 250 -14 q 147 138 147 49 q 172 183 147 158 q 210 224 204 214 q 251 396 228 260 q 278 575 272 513 q 257 611 278 581 q 217 686 231 649 q 157 801 192 732 q 117 839 143 819 q 72 871 72 871 q 38 892 60 878 q 22 939 22 908 q 94 1024 22 996 q 242 1046 153 1047 q 415 1017 364 1044 q 457 949 457 994 q 444 908 457 921 q 418 885 432 896 q 397 856 404 874 q 393 817 389 838 q 467 731 410 731 q 518 781 488 731 q 542 839 525 806 q 554 872 554 864 q 549 879 554 876 q 531 892 544 882 q 514 939 514 908 q 733 1046 514 1046 q 903 960 903 1046 q 890 919 903 932 q 865 897 876 907 q 819 874 853 888 q 755 844 768 854 q 719 804 742 835 q 619 690 639 717 q 569 575 569 625 q 569 551 569 565 m 479 1304 q 531 1279 503 1304 q 564 1210 564 1250 q 533 1160 564 1175 q 454 1113 522 1144 q 356 1078 386 1082 q 319 1074 344 1074 q 272 1138 272 1074 q 335 1219 272 1176 q 374 1249 336 1222 q 417 1278 413 1275 q 479 1304 456 1304 z "},"Þ":{"ha":750,"x_min":21,"x_max":749,"o":"m 361 786 q 453 800 419 800 q 660 721 571 800 q 749 524 749 642 q 661 286 749 358 q 494 222 608 240 q 385 186 396 207 q 382 151 389 167 q 422 -17 386 88 q 457 -149 457 -122 q 258 -232 457 -232 q 118 -214 183 -232 q 21 -133 21 -187 q 35 -99 21 -119 q 53 -68 50 -79 q 103 288 94 118 q 108 739 108 407 q 74 846 108 824 q 38 869 39 868 q 24 914 24 883 q 90 988 24 968 q 232 1001 135 1001 q 374 988 329 1001 q 442 913 442 968 q 428 871 442 886 q 391 842 421 863 q 361 788 361 822 l 361 786 m 335 479 q 346 431 335 453 q 385 403 361 403 q 449 446 425 403 q 469 526 469 483 q 450 594 469 563 q 379 635 425 639 q 335 479 335 635 z "},"þ":{"ha":750,"x_min":21,"x_max":749,"o":"m 361 647 q 453 661 419 661 q 660 582 571 661 q 749 385 749 503 q 661 147 749 219 q 494 83 608 101 q 385 47 396 68 q 382 13 389 28 q 422 -89 386 -53 q 457 -149 457 -125 q 258 -232 457 -232 q 118 -214 183 -232 q 21 -133 21 -187 q 35 -99 21 -119 q 53 -68 50 -79 q 82 25 53 -68 q 103 149 99 82 q 108 600 108 268 q 99 742 108 665 q 72 847 88 836 q 38 869 39 868 q 24 914 24 883 q 90 988 24 968 q 232 1001 135 1001 q 374 988 329 1001 q 442 913 442 968 q 428 871 442 886 q 392 843 421 863 q 369 753 379 835 q 361 649 361 686 l 361 647 m 335 340 q 346 292 335 314 q 385 264 361 264 q 449 307 425 264 q 469 388 469 344 q 450 456 469 424 q 379 496 425 500 q 335 340 335 496 z "},"­":{"ha":926,"x_min":129,"x_max":872,"o":"m 872 504 q 750 464 872 464 l 251 464 q 129 504 129 464 q 140 588 129 546 q 175 638 154 638 l 826 638 q 861 588 849 638 q 872 504 872 546 z "},"−":{"ha":926,"x_min":129,"x_max":872,"o":"m 872 504 q 750 464 872 464 l 251 464 q 129 504 129 464 q 140 588 129 546 q 175 638 154 638 l 826 638 q 861 588 849 638 q 872 504 872 546 z "}}}
